<svg id="_1-poke_bowl" height="512" viewBox="0 0 64 64" width="512" xmlns="http://www.w3.org/2000/svg"><path d="m51.658 17.939c.517.189 1.093-.077 1.283-.596l5.507-15.061 1.879.687-5.737 15.687c-.189.519.077 1.093.596 1.282.113.042.229.062.344.062.408 0 .791-.251.939-.657l6.08-16.626c.189-.519-.077-1.093-.596-1.282l-3.757-1.374c-.25-.092-.524-.079-.765.032s-.427.314-.519.563l-5.851 16c-.189.519.077 1.093.596 1.282z"/><path d="m46.095 13.974c.532.126 1.075-.209 1.199-.748l2.559-11.026 1.948.452-2.813 12.122c-.124.538.211 1.075.749 1.2.075.018.151.026.227.026.455 0 .866-.312.974-.774l3.038-13.096c.06-.258.015-.53-.126-.755s-.364-.385-.623-.445l-3.897-.905c-.53-.123-1.074.21-1.2.748l-2.783 12c-.125.538.21 1.075.748 1.2z"/><path d="m44.001 21c.86 0 1.681.37 2.25 1.016.197.224.474.338.75.338.235 0 .472-.083.661-.25.414-.365.454-.997.089-1.412-.949-1.076-2.315-1.693-3.75-1.693-.553 0-1 .448-1 1s.447 1 1 1z"/><path d="m44.877 17.054c2.513.313 4.664 1.969 5.615 4.321.157.389.531.625.927.625.125 0 .252-.024.375-.073.512-.208.759-.79.552-1.302-1.223-3.023-3.99-5.152-7.221-5.555-.553-.074-1.048.321-1.116.868-.068.548.32 1.048.868 1.116z"/><path d="m56.869 21.061c-.518-.191-1.093.079-1.281.598l-2.748 7.551c-.941-1.424-1.425-3.122-1.655-4.209h1.817c.553 0 1-.448 1-1s-.447-1-1-1h-8c-.553 0-1 .448-1 1s.447 1 1 1h4.141c.269 1.456 1.019 4.36 2.891 6.422l-.211.578h-3.045c-.194-.683-.51-1.258-.959-1.707-.856-.856-1.554-2.071-2.07-3.611l-1.897.637c.617 1.835 1.476 3.312 2.553 4.389.084.084.157.184.223.293h-2.011l-3.219-8.844c-.159-.436-.422-.809-.742-1.12 1.451-1.599 2.344-3.713 2.344-6.036v-2c0-.552-.447-1-1-1h-2c-3.484 0-6.505 1.993-8 4.896-1.495-2.902-4.516-4.896-8-4.896h-2c-.553 0-1 .448-1 1v2c0 4.318 3.058 7.933 7.123 8.8-.736.278-1.326.82-1.66 1.535-.339.727-.374 1.541-.1 2.294l1.227 3.371h-.925c-.194-.683-.51-1.259-.959-1.707-1.546-1.546-2.244-3.951-2.532-5.328.466-.086.825-.474.825-.965 0-.552-.447-1-1-1h-3.033l.564-3.201c.047-.261-.013-.53-.165-.748s-.385-.365-.646-.411c-4.134-.73-8.13 1.001-10.508 4.128l-.799-2.194c-.188-.518-.765-.788-1.281-.597-5.113 1.86-7.965 7.196-6.891 12.376-.181.214-.268.493-.232.772.091.705 2.333 17.126 14.993 24.447v3.426c0 1.654 1.346 3 3 3h28.001c1.654 0 3-1.346 3-3v-3.426c12.659-7.32 14.902-23.742 14.993-24.447.023-.18-.02-.354-.09-.517.647-5.006-2.234-9.803-7.035-11.55zm.237 2.273c3.251 1.613 5.181 5.045 4.861 8.666h-8.016zm-14.616 8.666h-1.204c-.494-1.688-1.317-2.811-2.453-3.341-1.758-.82-3.117-2.5-3.921-3.705 1.566-.158 3.012-.725 4.238-1.584.165.116.298.274.369.47l2.97 8.16zm-7.667 0c-.423-.602-.932-1.051-1.524-1.327-1.966-.917-3.435-2.911-4.182-4.111l3.615-1.316c.785 1.336 2.603 3.988 5.256 5.225.55.256.929.861 1.19 1.529zm5.178-17h1v1c0 3.86-3.141 7-7 7h-1v-1c0-3.86 3.141-7 7-7zm-17 1v-1h1c3.859 0 7 3.14 7 7v1h-1c-3.859 0-7-3.14-7-7zm5.835 13.571c.734.869 1.653 1.753 2.739 2.429h-1.855zm-4.318 2.429h-3.739c-.194-.683-.51-1.258-.959-1.707-1.534-1.534-2.232-3.91-2.524-5.293h3.847c.281 1.524 1.082 4.637 3.152 6.707.084.084.157.184.223.293zm-8.517-4.27c.495 1.347 1.251 2.823 2.404 3.977.084.084.157.184.223.293h-2.628v-4.27zm2.379-7.238-.442 2.508h-.937c-1.654 0-3 1.346-3 3v6h-4.559c-.436-1.358-.556-2.801-.305-4.222.788-4.466 4.811-7.562 9.243-7.286zm-11.483 1.759 1.006 2.763c-.329.761-.585 1.565-.735 2.417-.27 1.529-.205 3.084.176 4.569h-5.139c-.836-3.918 1.089-7.956 4.691-9.749zm39.104 39.749h-28.001c-.552 0-1-.449-1-1v-3h30.001v3c0 .551-.448 1-1 1zm1.742-6h-31.485c-10.17-5.703-13.327-18.186-14.071-22h59.629c-.74 3.811-3.886 16.288-14.073 22z"/><path d="m7.284 37.687c-.11-.335-.213-.66-.307-.974-.158-.529-.716-.83-1.245-.671s-.829.716-.671 1.245c.1.331.206.673.322 1.026.139.42.53.687.95.687.104 0 .209-.017.313-.051.525-.173.811-.738.638-1.263z"/><path d="m8.38 40.609c-.216-.509-.807-.745-1.311-.529-.509.216-.746.803-.529 1.312 1.516 3.569 3.446 6.593 5.737 8.987.196.205.46.309.723.309.249 0 .498-.092.691-.277.399-.382.413-1.015.031-1.414-2.123-2.219-3.921-5.041-5.343-8.387z"/></svg>