<svg id="Capa_1" enable-background="new 0 0 512 512" height="512" viewBox="0 0 512 512" width="512" xmlns="http://www.w3.org/2000/svg"><g><circle cx="256" cy="245" fill="#fe76a8" r="245"/><path d="m366.01 26.044c-33.081-16.653-70.447-26.044-110.01-26.044s-76.929 9.391-110.01 26.044c-65.751 38.041-109.99 109.13-109.99 190.555 0 121.502 98.497 220 220 220s220-98.498 220-220c0-81.425-44.239-152.514-109.99-190.555z" fill="#fe5694"/><g><path d="m212.163 382.638c-3.208 0-6.356.587-9.355 1.744l-10.051 3.879c-2.782 1.073-5.688 1.618-8.638 1.618-10.532.001-19.733-6.752-22.896-16.804l-3.234-10.277c-3.193-10.146-12.107-17.256-22.711-18.111l-10.261-.828-65.256 113.025c-2.465 4.269 1.438 9.395 6.209 8.154l52.967-13.773c2.938-.764 5.946.972 6.753 3.899l14.556 52.757c1.311 4.752 7.701 5.569 10.166 1.3l71.888-124.513c-3.182-1.348-6.63-2.07-10.137-2.07z" fill="#8379c1"/><path d="m135.277 344.687-10.261-.828-65.255 113.025c-2.465 4.269 1.438 9.395 6.209 8.154l32.866-8.546 56.978-98.688c-4.181-7.429-11.778-12.411-20.537-13.117z" fill="#6e61b6"/><path d="m452.239 456.884-65.255-113.025-10.26.828c-10.604.855-19.519 7.965-22.711 18.111l-3.234 10.277c-3.163 10.05-12.364 16.804-22.896 16.804-2.949 0-5.855-.544-8.638-1.618l-10.051-3.879c-3-1.157-6.147-1.744-9.355-1.744-3.508 0-6.956.723-10.138 2.07l71.888 124.513c2.465 4.269 8.855 3.452 10.166-1.3l14.556-52.757c.807-2.927 3.815-4.663 6.753-3.899l52.967 13.773c4.769 1.24 8.672-3.885 6.208-8.154z" fill="#8379c1"/><path d="m327.882 389.879c-2.949 0-5.855-.544-8.638-1.618l-10.051-3.879c-3-1.157-6.147-1.744-9.355-1.744-3.508 0-6.956.723-10.138 2.07l71.888 124.513c2.465 4.269 8.855 3.452 10.166-1.3l10.148-36.781-47.449-82.185c-2.1.593-4.301.924-6.571.924z" fill="#6e61b6"/></g><path d="m274.229 33.813 7.373 7.856c6.965 7.422 17.735 9.88 27.231 6.215l10.051-3.879c13.463-5.196 28.517 2.054 32.848 15.819l3.234 10.277c3.055 9.709 11.692 16.596 21.837 17.415l10.739.866c14.384 1.16 24.801 14.223 22.732 28.505l-1.545 10.662c-1.46 10.073 3.333 20.026 12.119 25.165l9.3 5.44c12.456 7.286 16.174 23.576 8.113 35.545l-6.018 8.936c-5.686 8.442-5.686 19.489 0 27.931l6.018 8.936c8.061 11.969 4.343 28.259-8.113 35.545l-9.3 5.44c-8.786 5.139-13.579 15.092-12.119 25.165l1.545 10.662c2.07 14.281-8.348 27.345-22.732 28.505l-10.739.866c-10.145.818-18.782 7.706-21.837 17.415l-3.234 10.277c-4.332 13.765-19.385 21.015-32.848 15.819l-10.051-3.879c-9.496-3.665-20.265-1.207-27.231 6.215l-7.373 7.856c-9.875 10.522-26.584 10.522-36.459 0l-7.373-7.856c-6.965-7.422-17.735-9.88-27.231-6.215l-10.051 3.879c-13.463 5.196-28.517-2.054-32.848-15.819l-3.234-10.277c-3.055-9.709-11.692-16.596-21.837-17.415l-10.739-.866c-14.384-1.16-24.801-14.223-22.732-28.505l1.545-10.662c1.46-10.073-3.333-20.026-12.119-25.165l-9.3-5.44c-12.456-7.286-16.174-23.576-8.113-35.545l6.018-8.936c5.686-8.442 5.686-19.489 0-27.931l-6.018-8.936c-8.061-11.969-4.343-28.259 8.113-35.545l9.3-5.44c8.786-5.139 13.579-15.092 12.119-25.165l-1.545-10.662c-2.07-14.281 8.348-27.345 22.732-28.505l10.739-.866c10.145-.818 18.782-7.706 21.837-17.415l3.234-10.277c4.332-13.765 19.385-21.015 32.848-15.819l10.051 3.879c9.496 3.665 20.265 1.207 27.231-6.215l7.373-7.856c9.876-10.523 26.584-10.523 36.459 0z" fill="#fef0ae"/><path d="m184.846 332.515c-38.903-23.932-64.846-66.891-64.846-115.916 0-53.28 30.644-99.396 75.264-121.707 23.269-24.902 53.406-43.306 87.398-52.177-.359-.34-.717-.682-1.059-1.046l-7.373-7.856c-9.875-10.522-26.584-10.522-36.459 0l-7.373 7.856c-6.965 7.422-17.735 9.88-27.231 6.215l-10.051-3.879c-13.463-5.196-28.517 2.054-32.848 15.819l-3.234 10.277c-3.055 9.709-11.692 16.596-21.837 17.415l-10.739.866c-14.384 1.16-24.801 14.223-22.732 28.504l1.545 10.663c1.46 10.073-3.333 20.026-12.119 25.165l-9.3 5.44c-12.456 7.286-16.174 23.576-8.113 35.545l6.018 8.936c5.686 8.442 5.686 19.489 0 27.931l-6.017 8.934c-8.061 11.969-4.343 28.259 8.113 35.545l9.3 5.44c8.786 5.139 13.579 15.092 12.119 25.165l-1.545 10.663c-2.07 14.281 8.348 27.345 22.732 28.505l10.739.866c10.146.818 18.782 7.706 21.837 17.415l3.234 10.277c4.332 13.765 19.385 21.015 32.848 15.819l10.051-3.879c9.496-3.665 20.265-1.207 27.231 6.215l7.373 7.856c9.875 10.522 26.584 10.522 36.459 0l3.615-3.852c-37.291-10.837-69.662-33.222-93-63.02z" fill="#fee45a"/><circle cx="256" cy="216.599" fill="#fed402" r="136"/><path d="m176 216.599c0-65.512 46.323-120.199 108-133.108-9.037-1.892-18.401-2.892-28-2.892-75.111 0-136 60.889-136 136s60.889 136 136 136c9.599 0 18.963-1 28-2.892-61.677-12.909-108-67.596-108-133.108z" fill="#fac600"/><g><g><path d="m258.541 268.897 7.075 14.336c.413.836 1.211 1.416 2.134 1.55l15.82 2.299c2.324.338 3.253 3.194 1.571 4.834l-11.448 11.159c-.668.651-.973 1.589-.815 2.508l2.702 15.756c.397 2.315-2.033 4.08-4.112 2.987l-14.15-7.439c-.826-.434-1.812-.434-2.637 0l-14.15 7.439c-2.079 1.093-4.509-.672-4.112-2.987l2.702-15.756c.158-.919-.147-1.857-.815-2.508l-11.448-11.159c-1.682-1.639-.754-4.496 1.571-4.834l15.82-2.299c.923-.134 1.721-.714 2.134-1.55l7.075-14.336c1.04-2.106 4.044-2.106 5.083 0z" fill="#978ecb"/><g><path d="m252.25 315.953 2.702-15.757c.158-.919-.147-1.857-.815-2.508l-11.448-11.159c-.422-.411-.679-.899-.792-1.404l-13.468 1.957c-2.324.338-3.252 3.194-1.571 4.834l11.448 11.159c.668.651.973 1.589.815 2.509l-2.702 15.756c-.397 2.315 2.033 4.08 4.112 2.988l12.121-6.373c-.359-.558-.531-1.249-.402-2.002z" fill="#8379c1"/></g></g><g><circle cx="195" cy="295.79" fill="#978ecb" r="14"/><circle cx="317" cy="295.79" fill="#978ecb" r="14"/><g fill="#8379c1"><path d="m315 295.79c0-5.582 3.274-10.386 8-12.635-1.821-.866-3.85-1.365-6-1.365-7.732 0-14 6.268-14 14s6.268 14 14 14c2.15 0 4.179-.499 6-1.365-4.726-2.249-8-7.053-8-12.635z"/><path d="m193 295.79c0-5.582 3.274-10.386 8-12.635-1.821-.866-3.85-1.365-6-1.365-7.732 0-14 6.268-14 14s6.268 14 14 14c2.15 0 4.179-.499 6-1.365-4.726-2.249-8-7.053-8-12.635z"/></g></g></g><path d="m439.883 305.301c-11.881 4.322-17.049 9.49-21.372 21.372-1.027 2.823-4.994 2.823-6.021 0-4.322-11.881-9.49-17.049-21.372-21.372-2.823-1.027-2.823-4.994 0-6.021 11.882-4.322 17.049-9.49 21.372-21.372 1.027-2.823 4.994-2.823 6.021 0 4.322 11.881 9.49 17.049 21.372 21.372 2.823 1.026 2.823 4.994 0 6.021z" fill="#fff"/><g><path d="m422.382 317.378c-4.322-11.881-9.49-17.049-21.372-21.372-.497-.181-.901-.456-1.223-.786-2.437 1.512-5.271 2.824-8.669 4.06-2.823 1.027-2.823 4.994 0 6.021 11.882 4.323 17.049 9.491 21.372 21.372 1.027 2.823 4.994 2.823 6.022 0 1.252-3.442 2.582-6.307 4.119-8.765-.095-.165-.18-.34-.249-.53z" fill="#f2fbff"/></g><path d="m453.014 79.755c-11.146 4.055-15.994 8.903-20.049 20.049-.963 2.648-4.685 2.648-5.649 0-4.055-11.146-8.903-15.994-20.049-20.049-2.648-.963-2.648-4.685 0-5.649 11.146-4.055 15.994-8.903 20.049-20.049.964-2.648 4.685-2.648 5.649 0 4.055 11.146 8.903 15.994 20.049 20.049 2.648.963 2.648 4.685 0 5.649z" fill="#fee45a"/><g><path d="m436.035 91.523c-4.055-11.146-8.903-15.994-20.049-20.049-.496-.18-.899-.458-1.209-.795-2.144 1.26-4.61 2.372-7.51 3.427-2.648.963-2.648 4.685 0 5.648 11.146 4.055 15.994 8.903 20.049 20.049.964 2.648 4.685 2.648 5.649 0 1.063-2.921 2.184-5.401 3.455-7.556-.152-.215-.286-.452-.385-.724z" fill="#fed402"/></g><path d="m113.979 146.376c-15.166 5.208-21.184 11.226-26.393 26.393-.925 2.695-4.744 2.695-5.669 0-5.208-15.166-11.226-21.184-26.393-26.393-2.695-.925-2.695-4.744 0-5.669 15.166-5.208 21.184-11.226 26.393-26.393.925-2.695 4.744-2.695 5.669 0 5.208 15.166 11.226 21.184 26.393 26.393 2.695.926 2.695 4.744 0 5.669z" fill="#fff"/><g><path d="m67.653 135.103c-3.276 2.14-7.217 3.917-12.128 5.604-2.695.925-2.695 4.744 0 5.669 15.166 5.208 21.184 11.226 26.393 26.393.925 2.695 4.744 2.695 5.669 0 1.687-4.912 3.465-8.853 5.604-12.128-5.084-14.478-11.06-20.454-25.538-25.538z" fill="#f2fbff"/></g><g fill="#6e61b6"><path d="m227.313 123.959h-30.853c-2.761 0-5 2.238-5 5s2.239 5 5 5h10.426v45.685c0 2.762 2.239 5 5 5s5-2.238 5-5v-45.685h10.427c2.761 0 5-2.238 5-5s-2.238-5-5-5z"/><path d="m286.131 184.644c2.762 0 5-2.238 5-5v-20.342h11.737c9.744 0 17.672-7.928 17.672-17.672s-7.928-17.671-17.672-17.671h-16.737c-2.762 0-5 2.238-5 5v50.685c0 2.761 2.238 5 5 5zm5-50.685h11.737c4.23 0 7.672 3.441 7.672 7.671s-3.441 7.672-7.672 7.672h-11.737z"/><path d="m252.274 184.644h4.333c9.67 0 17.537-7.867 17.537-17.538v-25.608c0-9.671-7.867-17.538-17.537-17.538h-4.333c-9.67 0-17.538 7.867-17.538 17.538v25.608c0 9.67 7.868 17.538 17.538 17.538zm-7.538-43.147c0-4.156 3.381-7.538 7.538-7.538h4.333c4.156 0 7.537 3.382 7.537 7.538v25.608c0 4.156-3.381 7.538-7.537 7.538h-4.333c-4.156 0-7.538-3.382-7.538-7.538z"/><path d="m179.817 223.467c2.707-3.106 4.348-7.164 4.348-11.598 0-9.744-7.927-17.671-17.671-17.671h-14.508c-2.761 0-5 2.238-5 5v50.685c0 2.762 2.239 5 5 5h16.738c9.744 0 17.671-7.927 17.671-17.671 0-5.546-2.568-10.504-6.578-13.745zm-22.831-19.269h9.508c4.23 0 7.671 3.441 7.671 7.671s-3.441 7.672-7.671 7.672h-9.508zm11.738 40.685h-11.738v-15.342h11.738c4.23 0 7.671 3.441 7.671 7.671s-3.441 7.671-7.671 7.671z"/><path d="m218.517 194.198h-21.696c-2.761 0-5 2.238-5 5v50.685c0 2.762 2.239 5 5 5s5-2.238 5-5v-20.342h5.473l14.723 23.034c.954 1.493 2.568 2.309 4.218 2.309.921 0 1.854-.255 2.688-.788 2.327-1.487 3.007-4.579 1.52-6.905l-11.301-17.681c6.719-.329 12.088-5.882 12.088-12.682v-9.915c0-7.012-5.703-12.715-12.713-12.715zm2.713 22.629c0 1.496-1.217 2.714-2.713 2.714h-16.696v-15.343h16.696c1.496 0 2.713 1.218 2.713 2.714z"/><path d="m315.9 194.198c-2.762 0-5 2.238-5 5v32.103l-20.083-34.613c-1.136-1.953-3.438-2.905-5.624-2.318-2.184.588-3.701 2.567-3.701 4.828v50.685c0 2.762 2.238 5 5 5s5-2.238 5-5v-32.104l20.101 34.604c.866 1.489 2.461 2.501 4.307 2.501 2.762 0 5-2.238 5-5v-50.685c0-2.762-2.238-5.001-5-5.001z"/><path d="m258.566 194.198h-4.411c-9.649 0-17.499 7.85-17.499 17.499v38.186c0 2.762 2.239 5 5 5s5-2.238 5-5v-12.111h19.409v12.111c0 2.762 2.238 5 5 5s5-2.238 5-5v-38.186c0-9.649-7.849-17.499-17.499-17.499zm7.499 33.573h-19.409v-16.074c0-4.135 3.364-7.499 7.499-7.499h4.411c4.135 0 7.499 3.364 7.499 7.499z"/><path d="m344.588 194.198h-13.982c-2.762 0-5 2.238-5 5v50.685c0 2.762 2.238 5 5 5h13.982c11.263 0 20.426-9.163 20.426-20.427v-19.831c0-11.264-9.163-20.427-20.426-20.427zm10.426 40.258c0 5.749-4.677 10.427-10.426 10.427h-8.982v-40.685h8.982c5.749 0 10.426 4.678 10.426 10.427z"/></g></g></svg>