<svg height="512" viewBox="0 0 64 64" width="512" xmlns="http://www.w3.org/2000/svg" xmlns:xlink="http://www.w3.org/1999/xlink"><linearGradient id="linear-gradient" gradientUnits="userSpaceOnUse" x1="5" x2="43" y1="27" y2="27"><stop offset="0" stop-color="#9dd5df"/><stop offset="1" stop-color="#c3e1f5"/></linearGradient><linearGradient id="linear-gradient-2" gradientUnits="userSpaceOnUse" x1="20" x2="40" y1="18" y2="18"><stop offset="0" stop-color="#fbcc88"/><stop offset="1" stop-color="#ffe5c3"/></linearGradient><linearGradient id="linear-gradient-3" x1="27" x2="33" xlink:href="#linear-gradient-2" y1="18" y2="18"/><linearGradient id="linear-gradient-4" x1="43" x2="51" xlink:href="#linear-gradient" y1="8" y2="8"/><linearGradient id="linear-gradient-5" gradientUnits="userSpaceOnUse" x1="14.01" x2="19.99" y1="33" y2="33"><stop offset="0" stop-color="#da5466"/><stop offset="1" stop-color="#f4929c"/></linearGradient><linearGradient id="linear-gradient-6" gradientUnits="userSpaceOnUse" x1="24.01" x2="45.99" y1="33" y2="33"><stop offset="0" stop-color="#474f72"/><stop offset="1" stop-color="#878c9f"/></linearGradient><linearGradient id="linear-gradient-7" x1="14.01" x2="19.99" xlink:href="#linear-gradient-5" y1="39" y2="39"/><linearGradient id="linear-gradient-8" x1="24.01" x2="45.99" xlink:href="#linear-gradient-6" y1="39" y2="39"/><linearGradient id="linear-gradient-9" x1="14.01" x2="19.99" xlink:href="#linear-gradient-5" y1="45" y2="45"/><linearGradient id="linear-gradient-10" x1="24.01" x2="45.99" xlink:href="#linear-gradient-6" y1="45" y2="45"/><linearGradient id="linear-gradient-11" x1="14.01" x2="19.99" xlink:href="#linear-gradient-5" y1="51" y2="51"/><linearGradient id="linear-gradient-12" x1="24.01" x2="45.99" xlink:href="#linear-gradient-6" y1="51" y2="51"/><linearGradient id="linear-gradient-13" x1="36" x2="58" xlink:href="#linear-gradient-5" y1="53" y2="53"/><g id="Cancelation"><rect fill="url(#linear-gradient)" height="54" rx="2" width="38" x="5"/><path d="m51 12v44a2 2 0 0 1 -2 2h-38a2 2 0 0 1 -2-2v-50a2 2 0 0 1 2-2h32z" fill="#d7f1ff"/><circle cx="30" cy="18" fill="url(#linear-gradient-2)" r="10"/><circle cx="30" cy="18" fill="#f6b756" r="8"/><path d="m30 17a1 1 0 0 1 0-2h2a1 1 0 0 0 0-2h-1a1 1 0 1 0 -2 .18 3 3 0 0 0 1 5.82 1 1 0 0 1 0 2h-2a1 1 0 0 0 0 2h1a1 1 0 1 0 2-.18 3 3 0 0 0 -1-5.82z" fill="url(#linear-gradient-3)"/><path d="m51 12h-8v-8z" fill="url(#linear-gradient-4)"/><path d="m19 34h-4a1 1 0 0 1 0-2h4a1 1 0 0 1 0 2z" fill="url(#linear-gradient-5)"/><path d="m45 34h-20a1 1 0 0 1 0-2h20a1 1 0 0 1 0 2z" fill="url(#linear-gradient-6)"/><path d="m19 40h-4a1 1 0 0 1 0-2h4a1 1 0 0 1 0 2z" fill="url(#linear-gradient-7)"/><path d="m45 40h-20a1 1 0 0 1 0-2h20a1 1 0 0 1 0 2z" fill="url(#linear-gradient-8)"/><path d="m19 46h-4a1 1 0 0 1 0-2h4a1 1 0 0 1 0 2z" fill="url(#linear-gradient-9)"/><path d="m45 46h-20a1 1 0 0 1 0-2h20a1 1 0 0 1 0 2z" fill="url(#linear-gradient-10)"/><path d="m19 52h-4a1 1 0 0 1 0-2h4a1 1 0 0 1 0 2z" fill="url(#linear-gradient-11)"/><path d="m45 52h-20a1 1 0 0 1 0-2h20a1 1 0 0 1 0 2z" fill="url(#linear-gradient-12)"/><path d="m56.8 55.85a2.66 2.66 0 0 0 -.86 2 4 4 0 0 1 -4.08 4.08 2.66 2.66 0 0 0 -2 .86 4 4 0 0 1 -5.7 0 2.66 2.66 0 0 0 -2-.86 4 4 0 0 1 -4.08-4.08 2.66 2.66 0 0 0 -.86-2 4 4 0 0 1 0-5.7 2.66 2.66 0 0 0 .86-2 4 4 0 0 1 4.08-4.08 2.66 2.66 0 0 0 2-.86 4 4 0 0 1 5.7 0 2.66 2.66 0 0 0 2 .86 4 4 0 0 1 4.08 4.08 2.66 2.66 0 0 0 .86 2 4 4 0 0 1 0 5.7z" fill="url(#linear-gradient-13)"/><circle cx="47" cy="53" fill="#cf4055" r="7"/><path d="m48.41 53 2.3-2.29a1 1 0 0 0 -1.42-1.42l-2.29 2.3-2.29-2.3a1 1 0 0 0 -1.42 1.42l2.3 2.29-2.3 2.29a1 1 0 0 0 1.42 1.42l2.29-2.3 2.29 2.3a1 1 0 0 0 1.42-1.42z" fill="#fff2e3"/></g></svg>