<svg id="Layer_1" enable-background="new 0 0 51 51" height="512" viewBox="0 0 51 51" width="512" xmlns="http://www.w3.org/2000/svg"><g id="_x37_"><g><g><g><g enable-background="new"><g><g><path d="m45.4649467 33.3498535v.9400024l-19.040041 11.0700073-8.1400146-4.710022c-.9199829-.5200195-1.6599731-1.7999878-1.6499634-2.8499756l.0100098-4.1199951c0-.5300293-.3699951-1.1800537-.8400259-1.4500122l-5.0899658-2.9400043c-.9200439-.5300293-1.6600342-1.8099976-1.6500244-2.8500366l.039978-13.8699942 19.0400381-11.0700075.8099976.4700317-.0400391 13.8699954c0 .5300283.3800049 1.1900015.8400269 1.460021l5.0899677 2.9400024c.9200439.5199585 1.6600342 1.7999878 1.6500244 2.8499756l-.0100098 4.1099854c0 .5300293.3699951 1.1799927.8400269 1.4500122z" fill="#dedffb"/></g></g></g></g><g><g enable-background="new"><g><g><path d="m26.4253845 44.4184685 19.0397415-11.0646897-.002655.9364815-19.0397415 11.0646858z" fill="#e9e7fc"/></g></g><g><path d="m37.3241425 28.6535797c-.4656754-.2688828-.8395882-.9214935-.8381042-1.4516354l.0116653-4.1124897c.0029678-1.0454445-.736248-2.3258495-1.6504059-2.8536415l-5.0924339-2.9401245c-.4613857-.2663708-.8395882-.9214954-.8381042-1.4516373l.0393257-13.8733578-19.0397426 11.0646878-.0393247 13.8733578c-.0014839.5301838.3767176 1.1852665.8381033 1.4516373l5.0924349 2.9401245c.914156.527792 1.6533718 1.8081951 1.650404 2.8536434l-.0116653 4.1124878c-.0014858.5301437.3724308 1.1827507.8381023 1.4516373l8.1410122 4.7001724 19.0397433-11.0646858z" fill="#f3f1fc"/></g><g><g><path d="m9.9163408 13.035388-.0393305 13.8733568c-.001503.5301685.3767242 1.1852684.8380966 1.4516411l5.092432 2.9401169c.9141464.5277843 1.6533756 1.8082123 1.6504116 2.8536644l-.0116577 4.112484c-.001503.5301361.3724117 1.1827469.8380966 1.4516106l8.140995 4.7002068-.002655.9364777-8.140995-4.7002029c-.9141331-.5277748-1.6533775-1.8082161-1.6503983-2.8586044l.0116577-4.1124878c.001503-.5301666-.3723965-1.1827698-.8380957-1.4516411l-5.092432-2.940115c-.9141321-.5277748-1.6533766-1.8081799-1.6504126-2.8536663l.0393314-13.8733559z" fill="#dedffb"/></g></g><g><g><path d="m9.1013851 12.5648727 19.0397415-11.0646884.8149567.4705152-19.0397425 11.0646885z" fill="#e9e7fc"/></g></g></g></g><g><g><g><path d="m43.0829735 33.0387497-17.212965 10.0043793-.4476757-.2649346 17.2129631-10.0043792z" fill="#dedffb"/></g></g><g><g><path d="m41.4019051 32.0611458-17.2221661 10.0043793-.4476738-.2649346 17.2130184-10.0043793z" fill="#dedffb"/></g></g><g><g><path d="m39.7025452 31.0835438-17.2130185 10.0043812-.4476757-.2649384 17.2129631-9.9952316z" fill="#dedffb"/></g></g><g><g><path d="m38.0122757 30.1059418-17.2129631 10.0043792-.4476757-.2557907 17.2038174-10.0043792z" fill="#dedffb"/></g></g><g><g><path d="m36.4042587 29.091814-17.2952156 10.0409031-.3654232-.2101173c-.0274353-.0182915-.0548153-.0365257-.0822506-.0548172l17.4414291-10.1323013c.091343.127922.1918297.2467002.3014603.3563327z" fill="#dedffb"/></g></g><g><g><path d="m35.6093979 27.5843391-17.2495461 10.0317612v-.5299301l17.2130203-10.0043774v.1187782c.0000001.1279221.0091439.2558461.0365258.3837681z" fill="#dedffb"/></g></g><g><g><path d="m35.582016 25.1174984-.0091438.5299282-17.2038746 10.0043221v-.5298729z" fill="#dedffb"/></g></g><g><g><path d="m35.582016 23.1622944v.5299263l-17.2495442 10.0134678c-.0091457-.155304-.0456715-.3197517-.0913982-.4750557z" fill="#dedffb"/></g></g><g><g><path d="m35.2256813 21.9380455-17.4505176 10.1413918c-.0731068-.1279221-.1553593-.255846-.2467003-.3837128l17.4414272-10.1414471c.1004867.1187763.1826858.2467003.2557907.3837681z" fill="#dedffb"/></g></g><g><g><path d="m33.910038 20.7411232-17.2586899 10.0318146c-.1278687-.1004868-.2557907-.191885-.3837147-.2649918l-.0365257-.0182343 17.2221088-10.013525z" fill="#dedffb"/></g></g><g><g><path d="m32.2106781 19.7635765-17.2130184 10.0134678-.4568205-.2649345 17.2221651-10.0043793z" fill="#dedffb"/></g></g><g><g><path d="m30.5204086 18.7859745-17.2221079 10.0134678-.4476747-.2649365 17.2129631-10.0043792z" fill="#dedffb"/></g></g><g><g><path d="m28.8941574 17.7717896-17.2860699 10.0500507-.4385853-.2557907c-.0091457 0-.0091457-.0091457-.0182352-.0091457l17.4231377-10.1231575c.1004877.1279239.2009745.2467021.3197527.3380432z" fill="#dedffb"/></g></g><g><g><path d="m28.0536232 16.3008423-17.2586899 10.0409031v-.5390167l17.2038746-9.9952335v.0365257c0 .1462135.0182343.3015174.0548153.4568214z" fill="#dedffb"/></g></g><g><g><path d="m28.0078964 13.8431454-.0090885.5299272-17.1947288 9.9952345v-.5207825z" fill="#dedffb"/></g></g><g><g><path d="m28.0078964 11.8788509v.5390168l-17.2038173 9.9952335.0091457-.5390167z" fill="#dedffb"/></g></g><g><g><path d="m28.0170422 9.923646v.5299272l-17.2038174 9.9952336v-.5299282z" fill="#dedffb"/></g></g></g><g><g><g><g><g><path d="m41.6849174 32.3398438-3.2299804 1.8699951-3-1.7399903-.0300293-17.4400034 3.2299805-1.8599853 3 1.7399902z" fill="#df3260"/></g></g></g><g enable-background="new"><g><g><path d="m35.4286194 15.0311546.0247459 17.4338913 2.997284 1.7418328-.024746-17.4338932z" fill="#e93565"/></g></g><g><g><path d="m38.4259033 16.7729855.024746 17.4338932 3.2293434-1.8644638-.024746-17.4338913z" fill="#df3260"/></g></g><g><g><path d="m35.4286194 15.0311546 2.9972839 1.7418309 3.2293434-1.8644619-2.9972839-1.7418309z" fill="#f45170"/></g></g></g><g><g><g><path d="m35.2749443 35.9498291-3.1800537 1.8300171-2.9499531-1.710022-.0200195-16.0499897 3.1799946-1.8399658 2.9500122 1.7199707z" fill="#fcba1e"/></g></g></g><g enable-background="new"><g><g><path d="m29.1206188 20.0214424.0243893 16.0480766 2.9511566 1.7150269-.0243912-16.0480804z" fill="#ffd06c"/></g></g><g><g><path d="m32.0717735 21.7364655.0243912 16.0480804 3.1829033-1.8376503-.0243912-16.0480785z" fill="#fcba1e"/></g></g><g><g><path d="m29.1206188 20.0214424 2.9511547 1.7150231 3.1829033-1.8376484-2.9511566-1.715025z" fill="#ffde9b"/></g></g></g><g><g><g><path d="m28.9849033 39.3398438-3.0700073 1.7700195-2.829956-1.6400147-.0200196-14.4600238 3.0599976-1.7699585 2.8300171 1.6499633z" fill="#5ec363"/></g></g></g><g enable-background="new"><g><g><path d="m23.0610466 25.0077324.0234756 14.459732 2.8325539 1.6460991-.0234756-14.459732z" fill="#72d561"/></g></g><g><g><path d="m25.8936005 26.6538315.0234756 14.459732 3.0634918-1.7687072-.0234756-14.459734z" fill="#5ec363"/></g></g><g><g><path d="m23.0610466 25.0077324 2.8325539 1.6460991 3.0634918-1.7687092-2.8325539-1.6460991z" fill="#78e75a"/></g></g></g></g><g><g enable-background="new"><g><g><path d="m47.6849174 18.2998638-1.5100097-.0800171-2.459961 5.7000122-11.9200458 6.8999634-4.9599609 10.0000019-2.3900147 1.3800049-1.0800171-.6300049 6.289978-13.0499897 11.8900166-6.8800049 1.6300049-3.6599731h-.1499634l-1.0900269-.6400147 4.4699708-5.3499746 1.0900268.6300049z" fill="#497bfe"/></g></g></g></g><g><g enable-background="new"><g><g><path d="m42.6372147 22.2690411-1.0893975-.6330891 1.9104767-4.27771 1.0893974.6330872z" fill="#5094ff"/></g></g><g><g><path d="m43.0204391 17.975771-1.0893974-.6330891 4.4725533-5.3536749 1.0893974.6330881z" fill="#57b3fe"/></g></g><g><g><path d="m30.7487965 29.1511936-1.0893975-.633089 11.8884182-6.8821526 1.0893975.6330891z" fill="#57b3fe"/></g></g><g><g><path d="m24.4495869 42.198555-1.0893975-.633091 6.2992096-13.0473594 1.0893975.633089z" fill="#5094ff"/></g></g><g><g><path d="m47.4929924 12.6220951.1890831 5.677948-1.5076714-.0779724-2.4550666 5.6939239-11.9278965 6.9049454-4.9536229 9.998766-2.3882312 1.378849 6.2992096-13.0473614 11.8884182-6.8821525 1.9104766-4.2777119-1.5272522-.0155582z" fill="#497bfe"/></g></g></g></g></g></g><g><g><path d="m14.6740522 11.8004751-3.8425903 2.2345581v4.4585562l3.8425903-2.2324829z" fill="#dedffb"/></g><g><path d="m16.6661167 10.6420889v4.4616089l11.3692017-6.6053467v-4.4677124z" fill="#dba660"/></g></g></g><g><g><g><g><g><g><g><g><g><g><g><g><g><g><g enable-background="new"><g><g><g><path d="m3.3790152 40.2209702.0050747 1.2648277c.0021191.747551.493623 1.4939079 1.4749813 2.0642128 1.9764485 1.1485863 5.1876798 1.1486015 7.1770587.0000343.9975595-.575943 1.4961329-1.3326187 1.4939899-2.0886726l-.0050716-1.2648277c.00214.7560539-.5374622 1.4491501-1.5350218 2.0250893-1.989378 1.148571-5.1546826 1.1152763-7.1311312-.0333099-.9813584-.570305-1.4777607-1.2197992-1.47988-1.9673539z" fill="#ffd06c"/></g></g></g><g><g><g><path d="m4.8554854 42.2859344c.3880095.2271118.8233242.4069176 1.2901754.5425568.3659072.1104164.7476015.1892776 1.1387491.2397385.2113423.0315361.4258614.0504837.6435189.0630913.962101.056778 1.9494429-.0473213 2.8326836-.3091278.4573975-.1356583.8863974-.3154449 1.2712297-.5362587 1.9841566-1.1450653 1.9936104-3.0061913.0157881-4.1544151-.38801-.2239532-.8233242-.4069176-1.2870178-.5425529-4.9716066-1.4790536-10.0724112 2.2776564-5.905127 4.6969679z" fill="#f9a83d"/></g></g><g><g><path d="m8.4382944 42.6028061c1.2256336 0 2.3736057-.2731514 3.2325048-.7690125.7864771-.454155 1.2200871-1.033123 1.2210112-1.6303787.0008221-.5934525-.4271383-1.1693382-1.2049856-1.6214409-3.105299-1.8045959-7.6719007-.2726479-7.6745162 1.6320229-.0008221.5932465.4266243 1.1687241 1.2038555 1.6204147.852633.4954491 1.9970098.7683945 3.2221303.7683945z" fill="#ffd06c"/></g></g></g></g></g></g></g></g></g></g></g></g></g></g><g><g><g><g><path d="m8.7021914 41.1877289-.0639467.4366379c-.6387315-.0260124-1.1979499-.1504364-1.6717982-.3744049l-.3425841.1990852-.301724-.1741982.3367486-.1956978c-.3057475-.1945572-.4709287-.3981667-.4916515-.6108284-.024632-.2126579.1012459-.3993034.373755-.5576706.274457-.1594963.5689454-.2307587.881474-.217186.3144984.014698.6938524.102932 1.1419477.2624245l.0137166.0079194.8817663-.5124283c-.2779837-.1199036-.5947781-.1968193-.948451-.2318802l.1264935-.4275856c.5158663.0565567.9598455.1775894 1.3319378.3630981l.2394199-.1391335.3017244.1741982-.2335844.135746c.2900705.1855049.4415483.3834572.4603062.5927277.0207109.2103958-.1071405.3936462-.3777103.5508842-.2705612.1572342-.5572319.2284966-.8580647.2126579-.3047333-.015831-.6742954-.100666-1.1145792-.2578964l-.9109602.5293922c.3249335.1357385.7335281.2137795 1.2257643.2341386zm-1.5411072-.400425.8447723-.4909248c-.2464895-.0769196-.434176-.1153831-.5689497-.1187706-.1328039-.0022659-.2556605.0282745-.3646693.0916252-.1090002.063343-.1554241.1425247-.1373367.2341499.0161485.092762.0908875.1877747.2261834.2839203m2.6141538-1.1696357-.8116827.4716988c.2327738.0689964.4106865.1040649.5337124.1051979.1249914-.0000038.2380915-.0294151.343195-.0904961.105113-.0610847.153532-.1346092.1432705-.2217064-.0102539-.087101-.0791159-.1764679-.2084952-.2646942" fill="#f9a83d"/></g></g></g></g></g></g><g><g><g><g><g><g><g><g><g><g><g><g><g enable-background="new"><g><g><g><path d="m3.3790152 38.4739952.0050747 1.2648277c.0021191.747551.493623 1.4939079 1.4749813 2.0642128 1.9764485 1.1485863 5.1876798 1.1486015 7.1770587.0000305.9975595-.5759392 1.4961329-1.3326149 1.4939899-2.0886688l-.0050716-1.2648277c.00214.7560539-.5374622 1.4491501-1.5350218 2.0250893-1.989378 1.148571-5.1546826 1.1152763-7.1311312-.0333099-.9813584-.5703049-1.4777607-1.2198029-1.47988-1.9673539z" fill="#ffd06c"/></g></g></g><g><g><g><path d="m4.8554854 40.5389595c.3880095.227108.8233242.4069138 1.2901754.5425529.3659072.1104164.7476015.1892776 1.1387491.2397423.2113423.0315361.4258614.0504799.6435189.0630913.962101.056778 1.9494429-.0473251 2.8326836-.3091278.4573975-.1356583.8863974-.3154449 1.2712297-.5362587 1.9841566-1.1450653 1.9936104-3.0061951.0157881-4.1544151-4.8250111-2.7849236-11.878311 1.4338684-7.1921448 4.1544151z" fill="#f9a83d"/></g></g><g><g><path d="m8.4382944 40.8558311c1.2256336 0 2.3736057-.2731514 3.2325048-.7690125.7864771-.454155 1.2200871-1.033123 1.2210112-1.6303787.0008221-.5934525-.4271383-1.1693382-1.2049856-1.6214409-2.8422194-1.6517105-7.6716838-.430584-7.6745162 1.6320229-.0008221.5932465.4266243 1.1687241 1.2038555 1.6204109.852633.4954529 1.9970098.7683983 3.2221303.7683983z" fill="#ffd06c"/></g></g></g></g></g></g></g></g></g></g></g></g></g></g><g><g><g><g><path d="m8.7021914 39.4407539-.0639467.4366379c-.6387315-.0260124-1.1979499-.1504402-1.6717982-.3744087l-.3425841.1990891-.301724-.174202.3367486-.195694c-.5696268-.3624725-.7007971-.8297539-.1178966-1.168499.6409025-.3724518 1.3153992-.2067757 2.0234218.0452385l.0137167.0079193.8817663-.5124283c-.2779837-.1199036-.5947781-.1968193-.948451-.2318802l.1264935-.4275856c.5158663.0565567.9598455.1775856 1.3319378.3630981l.2394199-.1391373.3017244.174202-.2335844.135746c.2900705.1855049.4415483.3834572.4603062.5927277.0207109.2103958-.1071405.3936462-.3777103.5508842-.2705612.1572304-.5572319.2284966-.8580647.2126579-.3047333-.015831-.6742954-.100666-1.1145792-.2578964l-.9109602.5293922c.3249334.1357385.733528.2137796 1.2257642.2341386zm-1.5411072-.4004249.8447723-.4909286c-1.027523-.3206368-1.326735.148426-.8447723.4909286m2.6141538-1.1696358-.8116827.4716988c.2327738.0689964.4106865.1040649.5337124.1051941.1249914 0 .2380915-.0294113.343195-.0904922.105113-.0610847.153532-.134613.1432705-.2217064-.0102539-.0871011-.0791159-.176468-.2084952-.2646943" fill="#f9a83d"/></g></g></g></g></g></g><g><g><g><g><g><g><g><g><g><g><g><g><g enable-background="new"><g><g><g><path d="m3.3790152 36.7270164.0050747 1.2648315c.0021191.747551.493623 1.4939079 1.4749813 2.0642128 1.9764485 1.1485863 5.1876798 1.1486015 7.1770587.0000305.9975595-.5759392 1.4961329-1.3326149 1.4939899-2.0886688l-.0050716-1.2648277c.00214.7560539-.5374622 1.4491463-1.5350218 2.0250893-1.989378 1.1485672-5.1546826 1.1152763-7.1311312-.0333099-.9813584-.5703049-1.4777607-1.2198029-1.47988-1.9673577z" fill="#ffd06c"/></g></g></g><g><g><g><path d="m4.8554854 38.7919846c.7191472.4209328 1.7775049.770359 3.0724435.8453865.962101.056778 1.9494429-.0473251 2.8326836-.3091278.4573975-.1356583.8863974-.3154449 1.2712297-.5362587 1.9841566-1.1450653 1.9936104-3.0061951.0157881-4.1544151-1.3526325-.7807198-3.2112083-1.0073243-4.7632203-.7791405-.3911476.0504646-.7728419.1324806-1.1387491.2397423-.4573979.1387978-.8863974.3154449-1.2680922.5362587-1.9904523 1.1482009-1.9999056 3.0093307-.0220833 4.1575546z" fill="#f9a83d"/></g></g><g><g><path d="m11.6707993 38.3398438c.7864771-.4541588 1.2200871-1.0331268 1.2210112-1.6303787.0027151-1.9604073-4.6604195-3.3523483-7.6542792-1.6239052-.7892499.4556961-1.224401 1.0361023-1.2252226 1.6344872-.0027195 1.9628714 4.6608547 3.3503989 7.6584906 1.6197967z" fill="#ffd06c"/></g></g></g></g></g></g></g></g></g></g></g></g></g></g><g><g><g><g><path d="m8.7021914 37.693779-.0639467.4366379c-.6387315-.0260124-1.1979499-.1504402-1.6717982-.3744087l-.3425841.1990891-.301724-.174202.3367486-.1956978c-.5696268-.3624687-.7007971-.8297501-.1178966-1.1684952.8732753-.5074921 1.8279147.027916 2.0371385.053154l.8817663-.5124245c-.2779837-.1199036-.5947781-.1968193-.948451-.2318802l.1264935-.4275894c.5158663.0565605.9598455.1775894 1.3319378.363102l.2394199-.1391373.3017244.174202-.2335844.1357422c1.1218481.7174454.0630322 1.7958412-1.890048 1.0983772l-.9109602.5293922c.3249334.1357384.733528.2137795 1.2257642.2341385zm-1.5411072-.400425.8447723-.4909286c-1.027523-.3206368-1.326735.148426-.8447723.4909286m2.6141538-1.1696357-.8116827.4716987c.9471836.2807579 1.269063-.1598015.8116827-.4716987" fill="#f9a83d"/></g></g></g></g></g></g><g><g><g><g><g><g><g><g><g><g><g><g><g enable-background="new"><g><g><g><path d="m3.3790152 34.9800415.0050747 1.2648315c.0021191.747551.493623 1.4939079 1.4749813 2.064209 1.9764485 1.1485863 5.1876798 1.1486015 7.1770587.0000343.9975595-.575943 1.4961329-1.3326149 1.4939899-2.0886726l-.0050716-1.2648239c.00214.7560539-.5374622 1.4491463-1.5350218 2.0250893-3.1221999 1.8026008-8.6040289.4622268-8.6110112-2.0006676z" fill="#ffd06c"/></g></g></g><g><g><g><path d="m10.7606125 37.5812683c.4573975-.1356583.8863974-.3154449 1.2712297-.5362625 1.9841566-1.1450615 1.9936104-3.0061913.0157881-4.1544113-.38801-.2239532-.8233242-.4069176-1.2870178-.5425568-.8800831-.2618256-1.867425-.3627682-2.8326836-.3028336-.214519.0126305-.4290189.0347138-.6435189.0662499-.3911476.0504646-.7728419.1324806-1.1387491.2397423-.4573979.1387939-.8863974.3154449-1.2680922.5362587-4.2045831 2.4254341.8793555 6.1769752 5.8830438 4.6938133z" fill="#f9a83d"/></g></g><g><g><path d="m11.6707993 36.592865c.7864771-.454155 1.2200871-1.033123 1.2210112-1.6303749.0008221-.5934525-.4271383-1.169342-1.2049856-1.6214409-.8527355-.4955559-1.9978313-.7685013-3.224287-.7685013-1.224196 0-2.3694973.2721252-3.2250066.766037-.7892499.4556961-1.224401 1.0361023-1.2252226 1.6344833-.0028826 2.0806618 4.8261475 3.2549744 7.6584906 1.6197968z" fill="#ffd06c"/></g></g></g></g></g></g></g></g></g></g></g></g></g></g><g><g><g><g><path d="m8.7021914 35.946804-.0639467.4366379c-.6387315-.0260162-1.1979499-.1504402-1.6717982-.3744087l-.3425841.1990891-.301724-.174202.3367486-.1956978c-.5696268-.3624725-.7007971-.8297501-.1178966-1.1684952.8732753-.5074921 1.8279147.0279121 2.0371385.053154l.8817663-.5124245c-.2779837-.1199036-.5947781-.1968231-.948451-.231884l.1264935-.4275856c.5158663.0565605.9598455.1775894 1.3319378.3630981l.2394199-.1391335.3017244.174202-.2335844.1357422c1.1218481.7174454.0630322 1.7958412-1.890048 1.0983772l-.9109602.5293922c.3249334.1357347.733528.2137796 1.2257642.2341386zm-1.5411072-.4004249.8447723-.4909286c-1.0346556-.3228608-1.3243356.1501312-.8447723.4909286m2.6141538-1.1696358-.8116827.4716949c.9471836.2807618 1.269063-.1597976.8116827-.4716949" fill="#f9a83d"/></g></g></g></g></g></g><g><g><g><g><g><g><g><g><g><g><g><g enable-background="new"><g><g><g><path d="m3.3790152 33.2330666.0050747 1.2648277c.0074916 2.642849 5.504005 3.8817635 8.6520405 2.0642471.9975595-.575943 1.4961329-1.3326187 1.4939899-2.0886726l-.0050716-1.2648277c.00214.7560577-.5374622 1.4491501-1.5350218 2.0250931-1.989378 1.1485672-5.1546826 1.1152725-7.1311312-.0333138-.9813589-.5703011-1.4777612-1.2197991-1.4798805-1.9673538z" fill="#ffd06c"/></g></g></g><g><g><g><path d="m4.8554854 35.2980309c1.9186683 1.1230392 5.1348233 1.1714211 7.1763568 0 1.9841566-1.1450615 1.9936104-3.0061913.0157881-4.1544132-.38801-.2239532-.8233242-.4069176-1.2870178-.5425549-.8800831-.2618256-1.867425-.3627701-2.8326836-.3028336-.214519.0126305-.4290189.0347138-.6435189.0662499-.3911476.0504627-.7728419.1324806-1.1387491.2397404-.4573979.1387959-.8863974.3154449-1.2680922.5362587-1.9904523 1.1482028-1.9999056 3.0093326-.0220833 4.1575527z" fill="#f9a83d"/></g></g><g><g><path d="m12.8918104 33.2155113c.0008221-.5934525-.4271383-1.1693382-1.2049856-1.621439-.8527355-.495554-1.9978313-.7684994-3.224287-.7684994-1.224196 0-2.3694973.2721233-3.2250066.7660351-.7892499.4556942-1.224401 1.0361004-1.2252226 1.6344852-.0008221.5932465.4266243 1.1687241 1.2038555 1.6204147 3.1049247 1.8042222 7.6726985.2734071 7.6756463-1.6309966z" fill="#ffd06c"/></g></g></g></g></g></g></g></g></g></g></g></g></g></g><g><g><g><g><path d="m8.7021914 34.1998291-.0639468.4366379c-.6387315-.0260162-1.1979499-.1504402-1.6717982-.3744087l-.3425841.1990891-.301724-.174202.3367486-.1956978c-.3057475-.1945572-.4709287-.3981667-.4916515-.6108284-.024632-.2126579.1012459-.3993034.373755-.5576706.274457-.1594963.5689454-.2307587.881474-.217186.5231853.0244522 1.0546198.2396355 1.1556644.2703438l.8817663-.5124283c-.2779837-.1199036-.5947781-.1968193-.948451-.2318802l.1264935-.4275856c.5158663.0565586.9598455.1775875 1.3319378.3630981l.2394199-.1391335.3017244.1741982-.2335844.135746c.2900705.1855049.4415483.383461.4603062.5927277.0422239.4289551-.6951561 1.0967369-2.3503542.5056496l-.9109602.5293922c.3249335.1357346.7335281.2137795 1.2257643.2341385zm-1.5411072-.400425.8447723-.4909286c-.2464895-.0769157-.434176-.1153793-.5689497-.1187706-.1328039-.0022621-.2556605.0282745-.3646693.0916252-.1090002.063343-.1554241.1425247-.1373367.2341499.0161485.092762.0908875.1877747.2261834.2839241m2.6141538-1.1696395-.8116827.4716988c.9471836.2807616 1.269063-.1597978.8116827-.4716988" fill="#f9a83d"/></g></g></g></g></g><g><g><g><g><g><g><g><g><g><g><g><g enable-background="new"><g><g><g><path d="m3.3790152 31.4860916.0050747 1.2648277c.0021191.747551.493623 1.4939079 1.4749813 2.0642128 1.9764485 1.1485863 5.1876798 1.1486015 7.1770587.0000343.9975595-.575943 1.4961329-1.3326187 1.4939899-2.0886726l-.0050716-1.2648277c.00214.7560539-.5374622 1.4491501-1.5350218 2.0250893-1.989378 1.148571-5.1546826 1.1152763-7.1311312-.0333099-.9813584-.5703049-1.4777607-1.2197991-1.47988-1.9673539z" fill="#ffd06c"/></g></g></g><g><g><g><path d="m4.8554854 33.5510559c.3880095.2271118.8233242.4069176 1.2901754.5425568 1.7787666.5367622 4.2092538.4196548 5.8861814-.5425568 1.9841566-1.1450653 1.9936104-3.0061932.0157881-4.1544151-.38801-.2239532-.8233242-.4069157-1.2870178-.5425549-.8800831-.2618237-1.867425-.3627682-2.8326836-.3028336-.214519.0126305-.429019.0347137-.6435189.0662518-.3911476.0504608-.7728419.1324806-1.1387491.2397404-.4573979.1387959-.8863974.315443-1.2680922.5362587-1.9904523 1.1482029-1.9999056 3.0093326-.0220833 4.1575527z" fill="#f9a83d"/></g></g><g><g><path d="m11.6707993 33.0989151c.7864771-.454155 1.2200871-1.033123 1.2210112-1.6303768.0008221-.5934544-.4271383-1.1693401-1.2049856-1.6214409-.8527355-.495554-1.9978313-.7684994-3.224287-.7684994-1.224196 0-2.3694973.2721233-3.2250066.7660332-.7892499.4556961-1.224401 1.0361042-1.2252226 1.6344872-.0008221.5932465.4266243 1.1687241 1.2038555 1.6204147 1.7653088 1.0257911 4.6773476 1.0254516 6.4546351-.000618z" fill="#ffd06c"/></g></g></g></g></g></g></g></g></g></g></g></g></g></g><g><g><g><g><path d="m9.4276924 32.2187119-.9109612-.5293903c-.4402828.1572284-.8098454.2420634-1.1145787.2578963-.3008327.0158367-.5875039-.0554276-.8580647-.2126598-.2705698-.157238-.3984208-.3404865-.3777108-.5508842.0187583-.2092686.1702361-.4072227.4603066-.5927296l-.2335844-.1357441.3017244-.1742001.2394195.1391354c.3720922-.1855106.816072-.3065395 1.3319387-.3630981l.1264935.4275856c-.3536739.0350609-.6704683.1119766-.948452.2318802l.8817663.5124283.0137167-.0079193c.4480963-.1594944.8274498-.2477264 1.1419477-.2624245.3125296-.0135746.6070175.0576897.8814745.2171879.2725086.1583633.398387.3450089.3737545.5576706-.0207224.2126598-.1859035.4162693-.4916515.6108265l.3367491.1956978-.3017244.1741982-.3425837-.1990852c-.4738483.2239685-1.0330667.3483925-1.6717987.3744049l-.0639467-.4366379c.4922372-.0203592.9008313-.0984003 1.2257653-.2341386zm.315342-.1662865c.1352959-.0961456.2100353-.1911602.2261839-.2839203.0180874-.0916252-.0283365-.1708069-.1373367-.2341499-.1090088-.0633488-.2318659-.0938892-.3646698-.0916271-.1347733.0033913-.3224592.0418549-.5689497.1187706zm-2.6141539-1.1696358c-.1293793.0882282-.1982412.1775932-.2084942.2646942-.010262.0870953.0381565.1606216.1432695.2217064.105104.0610809.218204.0904942.3431954.0904942.1230259-.0011311.3009386-.0361977.5337119-.105196z" fill="#f9a83d"/></g></g></g></g><g opacity=".25"><g><path d="m7.9268045 28.5512543v5.8457184c.9621878.0567818 1.9496183-.0473289 2.8329382-.3091583v-5.2336998c-.8801622-.2618466-1.8675928-.3628007-2.8329382-.3028603z" fill="#fff"/></g><g><path d="m6.1443763 28.8572731v5.2368393c.3659396.1104279.7476687.1892929 1.1388516.2397614v-5.7163639c-.3911829.0504684-.772912.1324939-1.1388516.2397632z" fill="#fff"/></g></g></g></g><g><g><g><g><g><g><g><g><g><g><g><g><g><g><g enable-background="new"><g><g><g><path d="m12.1717396 45.3096924.0050745 1.2648315c.0021191.747551.4936228 1.4939079 1.4749813 2.064209 1.976449 1.1485863 5.1876802 1.1486015 7.1770582.0000343.9975605-.5759392 1.4961338-1.3326149 1.4939899-2.0886726l-.0050716-1.2648239c.00214.7560539-.5374622 1.4491463-1.5350208 2.0250893-1.989378 1.1485672-5.1546831 1.1152763-7.1311321-.0333099-.9813586-.570305-1.4777604-1.2198029-1.4798794-1.9673577z" fill="#ffd06c"/></g></g></g><g><g><g><path d="m13.6482096 47.3746605c.38801.227108.8233242.4069138 1.2901754.5425529.3659067.1104164.7476015.1892776 1.1387501.2397423.2113419.0315361.4258614.0504799.6435184.0630913.962101.056778 1.9494419-.0473251 2.8326836-.3091278.4573975-.1356583.8863964-.3154449 1.2712288-.5362587 1.9841576-1.1450653 1.9936104-3.0061951.015789-4.1544151-.38801-.2239532-.8233242-.4069176-1.2870178-.5425568-.8800831-.2618256-1.8674259-.3627663-2.8326836-.3028336-.2145195.0126305-.4290199.0347137-.6435184.0662498-.3911486.0504646-.7728434.1324806-1.1387501.2397423-.4573975.1387939-.8863974.3154449-1.2680922.5362587-1.9904518 1.1482011-1.9999055 3.0093308-.0220832 4.1575547z" fill="#f9a83d"/></g></g><g><g><path d="m17.2310181 47.6915321c1.2256336 0 2.3736057-.2731514 3.2325058-.7690163.7864761-.454155 1.2200871-1.033123 1.2210102-1.6303749.0008221-.5934525-.4271374-1.169342-1.2049847-1.6214409-1.7621136-1.024025-4.6755762-1.0264854-6.4492941-.0024643-.7892504.4556961-1.2244005 1.0361023-1.2252226 1.6344833-.0008221.5932503.4266243 1.1687241 1.2038555 1.6204147.8526326.495453 1.9970093.7683984 3.2221299.7683984z" fill="#ffd06c"/></g></g></g></g></g></g></g></g></g></g></g></g></g></g><g><g><g><g><path d="m17.494915 46.2764549-.0639458.4366379c-.6387329-.0260162-1.1979504-.1504402-1.6717987-.3744087l-.3425837.1990891-.3017244-.174202.3367491-.1956978c-.305748-.1945572-.4709291-.3981628-.4916525-.6108246-.0246315-.2126617.1012468-.3993073.3737555-.5576706.274457-.1594963.5689449-.2307625.8814745-.2171898.3144989.0147018.6938515.102932 1.1419468.2624245l.0137177.0079193.8817654-.5124245c-.2779827-.1199036-.5947781-.1968193-.9484501-.231884l.1264935-.4275856c.5158653.0565605.9598446.1775894 1.3319378.363102l.2394199-.1391373.3017235.174202-.2335835.1357422c1.1218472.7174454.0630322 1.7958412-1.890049 1.0983772l-.9109592.5293922c.3249339.1357346.733528.2137795 1.2257632.2341385zm-1.5411072-.4004249.8447723-.4909286c-1.027523-.3206368-1.3267345.148426-.8447723.4909286m2.6141548-1.1696358-.8116836.4716988c.9471836.2807579 1.2690639-.1598015.8116836-.4716988" fill="#f9a83d"/></g></g></g></g></g></g><g><g><g><g><g><g><g><g><g><g><g><g><g enable-background="new"><g><g><g><path d="m12.1717396 43.5627174.0050745 1.2648315c.0021191.747551.4936228 1.4939079 1.4749813 2.064209 1.976449 1.1485863 5.1876802 1.1486015 7.1770582.0000343.9975605-.575943 1.4961338-1.3326149 1.4939899-2.0886726l-.0050716-1.2648277c.00214.7560577-.5374622 1.4491501-1.5350208 2.0250931-1.989378 1.1485672-5.1546831 1.1152725-7.1311321-.0333138-.9813586-.570301-1.4777604-1.219799-1.4798794-1.9673538z" fill="#ffd06c"/></g></g></g><g><g><g><path d="m13.6482096 45.6276817c1.4622602.855896 3.8454256 1.1467857 5.9051275.5362587.4573975-.1356544.8863964-.3154411 1.2712288-.5362587 1.9841576-1.1450615 1.9936104-3.0061913.015789-4.1544151-.38801-.2239532-.8233242-.4069138-1.2870178-.5425529-.8800831-.2618256-1.8674259-.3627701-2.8326836-.3028336-.2145195.0126305-.4290199.0347137-.6435184.0662498-.3911486.0504646-.7728434.1324806-1.1387501.2397423-.4573975.1387939-.8863974.3154411-1.2680922.5362587-1.9904518 1.148201-1.9999055 3.0093308-.0220832 4.1575508z" fill="#f9a83d"/></g></g><g><g><path d="m20.4635239 45.1755409c.7864761-.454155 1.2200871-1.033123 1.2210102-1.6303749.0008221-.5934563-.4271374-1.169342-1.2049847-1.6214409-.8527355-.4955559-1.9978313-.7685013-3.224287-.7685013-1.2241955 0-2.3694983.2721252-3.2250071.7660332-.7892504.4556961-1.2244005 1.0361061-1.2252226 1.6344872-.0008221.5932503.4266243 1.1687241 1.2038555 1.6204147 1.7653094 1.0257912 4.6773472 1.0254517 6.4546357-.000618z" fill="#ffd06c"/></g></g></g></g></g></g></g></g></g></g></g></g></g></g><g><g><g><g><path d="m17.494915 44.52948-.0639458.4366379c-.6387329-.0260162-1.1979504-.1504402-1.6717987-.3744087l-.3425837.1990891-.3017244-.174202.3367491-.1956978c-.305748-.1945572-.4709291-.3981667-.4916525-.6108246-.0246315-.2126617.1012468-.3993073.3737555-.5576706.274457-.1595001.5689449-.2307625.8814745-.2171898.3144989.0147018.6938515.102932 1.1419468.2624245l.0137177.0079193.8817654-.5124283c-.2779827-.1199036-.5947781-.1968193-.9484501-.2318802l.1264935-.4275856c.5158653.0565605.9598446.1775894 1.3319378.3630981l.2394199-.1391335.3017235.1741982-.2335835.135746c.2900696.1855049.4415474.383461.4603062.5927277.042223.4289551-.6951561 1.0967369-2.3503551.5056496l-.9109592.5293922c.3249338.1357345.7335279.2137794 1.2257631.2341385zm-1.5411072-.400425.8447723-.4909286c-1.027523-.3206368-1.3267345.148426-.8447723.4909286m2.6141548-1.1696396-.8116837.4716988c.9471837.2807617 1.269064-.1597977.8116837-.4716988" fill="#f9a83d"/></g></g></g></g></g></g><g><g><g><g><g><g><g><g><g><g><g><g><g enable-background="new"><g><g><g><path d="m12.1717396 41.8157425.0050745 1.2648277c.0021191.7475548.4936228 1.4939079 1.4749813 2.0642128 1.976449 1.1485863 5.1876802 1.1486015 7.1770582.0000343.9975605-.575943 1.4961338-1.3326187 1.4939899-2.0886726l-.0050716-1.2648277c.00214.7560539-.5374622 1.4491501-1.5350208 2.0250931-1.989378 1.1485672-5.1546831 1.1152725-7.1311321-.0333138-.9813586-.570301-1.4777604-1.219799-1.4798794-1.9673538z" fill="#ffd06c"/></g></g></g><g><g><g><path d="m13.6482096 43.8807068c1.4622602.8558922 3.8454256 1.1467857 5.9051275.5362587.4573975-.1356583.8863964-.3154449 1.2712288-.5362587 1.9841576-1.1450653 1.9936104-3.0061913.015789-4.1544151-.38801-.2239532-.8233242-.4069138-1.2870178-.5425529-.8800831-.2618256-1.8674259-.3627701-2.8326836-.3028336-.2145195.0126305-.4290199.0347137-.6435184.0662498-.3911486.0504608-.7728434.1324806-1.1387501.2397385-.4573975.1387978-.8863974.3154449-1.2680922.5362625-1.9904518 1.148201-1.9999055 3.0093307-.0220832 4.1575508z" fill="#f9a83d"/></g></g><g><g><path d="m20.4635239 43.428566c.7864761-.454155 1.2200871-1.033123 1.2210102-1.6303787.0008221-.5934525-.4271374-1.1693382-1.2049847-1.6214371-.8527355-.4955559-1.9978313-.7685013-3.224287-.7685013-1.2241955 0-2.3694983.2721252-3.2250071.7660332-.7892504.4556961-1.2244005 1.0361023-1.2252226 1.6344872-.0008221.5932465.4266243 1.1687241 1.2038555 1.6204147 1.7653094 1.0257911 4.6773472 1.0254516 6.4546357-.000618z" fill="#ffd06c"/></g></g></g></g></g></g></g></g></g></g></g></g></g></g><g><g><g><g><path d="m17.494915 42.782505-.0639458.4366341c-.6387329-.0260124-1.1979504-.1504364-1.6717987-.3744049l-.3425837.1990852-.3017244-.1741982.3367491-.1956978c-.305748-.1945572-.4709291-.3981667-.4916525-.6108284-.0246315-.2126579.1012468-.3993034.3737555-.5576706.274457-.1594963.5689449-.2307587.8814745-.217186.3144989.014698.6938515.102932 1.1419468.2624245l.0137177.0079193.8817654-.5124283c-.2779827-.1199036-.5947781-.1968193-.9484501-.2318802l.1264935-.4275856c.5158653.0565567.9598446.1775894 1.3319378.3630981l.2394199-.1391335.3017235.1741982-.2335835.135746c.2900696.1855049.4415474.3834572.4603062.5927277.02071.2103996-.1071415.3936462-.3777103.5508842-.2705612.1572342-.5572319.2284966-.8580647.2126617-.3047333-.0158348-.6742954-.1006699-1.1145802-.2579002l-.9109592.5293961c.3249339.1357347.733528.2137796 1.2257632.2341386zm-1.5411072-.4004249.8447723-.4909286c-.2464886-.0769196-.4341755-.1153793-.5689487-.1187706-.1328049-.0022659-.255661.0282745-.3646698.0916252-.1090002.063343-.1554241.1425247-.1373367.2341499.0161486.092762.090888.1877746.2261829.2839241m2.6141548-1.1696396-.8116837.4716988c.2327747.0689964.4106865.1040649.5337124.1051979.1249924 0 .2380924-.0294151.343195-.0904961.105114-.0610847.153532-.1346092.1432705-.2217064-.0102539-.087101-.0791149-.1764641-.2084942-.2646942" fill="#f9a83d"/></g></g></g></g></g></g><g><g><g><g><g><g><g><g><g><g><g><g><g enable-background="new"><g><g><g><path d="m12.1717396 40.0687675.0050745 1.2648277c.0021191.747551.4936228 1.4939079 1.4749813 2.0642128 1.976449 1.1485863 5.1876802 1.1486015 7.1770582.0000343.9975605-.575943 1.4961338-1.3326187 1.4939899-2.0886726l-.0050716-1.2648277c.00214.7560539-.5374622 1.4491501-1.5350208 2.0250893-1.989378 1.148571-5.1546831 1.1152763-7.1311321-.0333099-.9813586-.5703049-1.4777604-1.2198029-1.4798794-1.9673539z" fill="#ffd06c"/></g></g></g><g><g><g><path d="m13.6482096 42.1337318c.38801.2271118.8233242.4069176 1.2901754.5425529 1.319025.3980331 3.0752697.4500885 4.6149521-.0062943.4573975-.1356583.8863964-.3154449 1.2712288-.5362587 1.9841576-1.1450653 1.9936104-3.0061951.015789-4.1544151-.38801-.2239532-.8233242-.4069176-1.2870178-.5425529-.8800831-.2618256-1.8674259-.3627701-2.8326836-.3028336-.2145195.0126266-.4290199.0347137-.6435184.0662498-.3911486.0504608-.7728434.1324806-1.1387501.2397385-.4573975.1387978-.8863974.3154449-1.2680922.5362587-1.9904518 1.1482049-1.9999055 3.0093347-.0220832 4.1575547z" fill="#f9a83d"/></g></g><g><g><path d="m17.2310181 42.4506035c1.2256336 0 2.3736057-.2731514 3.2325058-.7690125.7864761-.454155 1.2200871-1.033123 1.2210102-1.6303787.0008221-.5934525-.4271374-1.1693382-1.2049847-1.6214409-.8527355-.4955521-1.9978313-.7684975-3.224287-.7684975-1.2241955 0-2.3694983.2721214-3.2250071.7660332-.7892504.4556961-1.2244005 1.0361023-1.2252226 1.6344872-.0008221.5932465.4266243 1.1687241 1.2038555 1.6204109.8526326.4954529 1.9970093.7683983 3.2221299.7683983z" fill="#ffd06c"/></g></g></g></g></g></g></g></g></g></g></g></g></g></g><g><g><g><g><path d="m17.494915 41.0355263-.0639458.4366379c-.6387329-.0260124-1.1979504-.1504364-1.6717987-.3744087l-.3425837.1990891-.3017244-.1741982.3367491-.1956978c-.305748-.1945572-.4709291-.3981667-.4916525-.6108284-.0246315-.2126617.1012468-.3993034.3737555-.5576706.274457-.1594963.5689449-.2307587.8814745-.217186.3144989.014698.6938515.1029282 1.1419468.2624245l.0137177.0079193.8817654-.5124283c-.2779827-.1199036-.5947781-.1968193-.9484501-.2318802l.1264935-.4275856c.5158653.0565567.9598446.1775856 1.3319378.3630981l.2394199-.1391373.3017235.174202-.2335835.135746c.2900696.1855049.4415474.3834572.4603062.5927277.02071.2103958-.1071415.3936462-.3777103.5508842-.2705612.1572342-.5572319.2284966-.8580647.2126579-.3047333-.015831-.6742954-.100666-1.1145802-.2578964l-.9109592.5293922c.3249339.1357385.733528.2137795 1.2257632.2341386zm-1.5411072-.400425.8447723-.4909286c-.2464886-.0769157-.4341755-.1153793-.5689487-.1187668-.1328049-.0022659-.255661.0282745-.3646698.0916252-.1090002.063343-.1554241.1425247-.1373367.2341499.0161486.092762.090888.1877747.2261829.2839203m2.6141548-1.1696358-.8116837.4716988c.2327747.0689964.4106865.1040649.5337124.1051941.1249924 0 .2380924-.0294113.343195-.0904922.105114-.0610847.153532-.134613.1432705-.2217064-.0102539-.087101-.0791149-.1764679-.2084942-.2646943" fill="#f9a83d"/></g></g></g></g></g></g><g><g><g><g><g><g><g><g><g><g><g><g enable-background="new"><g><g><g><path d="m12.1717396 38.3217926.0050745 1.2648277c.0021191.747551.4936228 1.4939079 1.4749813 2.0642128 1.976449 1.1485863 5.1876802 1.1486015 7.1770582.0000305.9975605-.5759392 1.4961338-1.3326149 1.4939899-2.0886688l-.0050716-1.2648277c.00214.7560539-.5374622 1.4491501-1.5350208 2.0250893-1.989378 1.1485672-5.1546831 1.1152763-7.1311321-.0333099-.9813586-.5703049-1.4777604-1.2198029-1.4798794-1.9673539z" fill="#ffd06c"/></g></g></g><g><g><g><path d="m13.6482096 40.3867569c.38801.227108.8233242.4069138 1.2901754.5425529.3659067.1104164.7476015.1892776 1.1387501.2397423.2113419.0315361.4258614.0504799.6435184.0630913.962101.056778 1.9494419-.0473251 2.8326836-.3091278.4573975-.1356583.8863964-.3154449 1.2712288-.5362587 1.9841576-1.1450653 1.9936104-3.0061951.015789-4.1544151-.38801-.2239532-.8233242-.4069176-1.2870178-.5425568-.8800831-.2618217-1.8674259-.3627663-2.8326836-.3028336-.2145195.0126305-.4290199.0347137-.6435184.0662498-.3911486.0504646-.7728434.1324844-1.1387501.2397423-.4573975.1387978-.8863974.3154449-1.2680922.5362587-1.9904518 1.1482049-1.9999055 3.0093308-.0220832 4.1575547z" fill="#f9a83d"/></g></g><g><g><path d="m17.2310181 40.7036285c1.2256336 0 2.3736057-.2731514 3.2325058-.7690125.7864761-.454155 1.2200871-1.033123 1.2210102-1.6303787.0008221-.5934525-.4271374-1.1693382-1.2049847-1.6214409-.8527355-.4955521-1.9978313-.7684975-3.224287-.7684975-1.2241955 0-2.3694983.2721214-3.2250071.7660332-.7892504.4556961-1.2244005 1.0361023-1.2252226 1.6344872-.0008221.5932465.4266243 1.1687202 1.2038555 1.6204109.8526326.4954529 1.9970093.7683983 3.2221299.7683983z" fill="#ffd06c"/></g></g></g></g></g></g></g></g></g></g></g></g></g></g><g><g><g><g><path d="m18.220417 39.0544128-.9109612-.5293922c-.4402828.1572304-.8098469.2420654-1.1145782.2578964-.3008337.0158386-.5875044-.0554276-.8580656-.2126579-.2705698-.157238-.3984213-.3404884-.3777103-.5508842.0187578-.2092705.1702356-.4072227.4603062-.5927315l-.2335844-.1357422.3017244-.174202.239419.1391373c.3720932-.1855125.8160725-.3065414 1.3319397-.363102l.1264934.4275894c-.3536739.0350609-.6704693.1119766-.948452.2318802l.8817654.5124283.0137177-.0079193c.4480953-.1594963.8274498-.2477264 1.1419468-.2624283.3125305-.0135727.6070175.0576935.8814754.2171898.2725086.1583633.398386.3450089.3737545.5576706-.0207233.2126617-.1859035.4162712-.4916515.6108284l.3367481.195694-.3017235.174202-.3425846-.1990891c-.4738483.2239685-1.0330658.3483963-1.6717987.3744087l-.0639458-.4366379c.4922371-.020359.9008312-.0984001 1.2257652-.2341385zm.315342-.1662864c.1352959-.0961456.2100353-.1911621.2261829-.2839203.0180874-.0916252-.0283356-.1708069-.1373367-.2341499-.1090088-.0633507-.2318649-.0938911-.3646698-.091629-.1347733.0033913-.3224583.0418549-.5689487.1187706zm-2.6141539-1.1696358c-.1293802.0882263-.1982412.1775932-.2084951.2646942-.0102615.0870934.0381575.1606216.1432695.2217064.1051044.0610809.2182035.0904922.3431959.0904922.1230259-.0011292.3009396-.0361977.5337124-.1051941z" fill="#f9a83d"/></g></g></g></g></g></g><g opacity=".25"><g><path d="m16.7195282 35.3869553v5.8457184c.9621887.0567818 1.9496193-.0473289 2.8329391-.3091583v-5.2336998c-.8801631-.2618485-1.8675937-.3628007-2.8329391-.3028603z" fill="#fff"/></g><g><path d="m14.9371004 35.6929741v5.2368355c.3659401.1104279.7476683.1892967 1.1388521.2397652v-5.7163658c-.3911838.0504684-.772912.1324958-1.1388521.2397651z" fill="#fff"/></g></g></g></g></g></svg>