<svg height="512" viewBox="0 0 60 60" width="512" xmlns="http://www.w3.org/2000/svg"><g id="a"><path d="m35 7v4c0 2.76-2.24 5-5 5s-5-2.24-5-5v-4c0-1.1.9-2 2-2h6c1.1 0 2 .9 2 2z" fill="#88abab"/><path d="m50 14v42c0 1.66-1.34 3-3 3h-34c-1.66 0-3-1.34-3-3v-42c0-1.66 1.34-3 3-3h12c0 2.76 2.24 5 5 5s5-2.24 5-5h12c1.66 0 3 1.34 3 3z" fill="#d93625"/><path d="m25 7v4c-14.59 0-18.38-6.34-18.77-7.06-.51-.98-.14-2.19.83-2.71.97-.51 2.16-.15 2.69.8.1.16 3.2 4.97 15.25 4.97z" fill="#526666"/><path d="m53.77 3.94c-.39.72-4.18 7.06-18.77 7.06v-4c12.05 0 15.15-4.81 15.25-4.97.53-.95 1.72-1.31 2.69-.8.97.52 1.34 1.73.83 2.71z" fill="#526666"/><path d="m40.68 40c-.24-1.03-.58-1.72-.97-2.3-1.14-1.72-3.1-2.7-5.15-2.7h-9.12c-2.05 0-4.01.98-5.15 2.7-.39.58-.73 1.27-.96 2.3z" fill="#f0c000"/><path d="m36 26c-4 0-4-2-4-2 0 4-8 2-8 2 0-3.31 2.69-6 6-6 1.66 0 3.16.67 4.24 1.76 1.09 1.08 1.76 2.58 1.76 4.24z" fill="#c96946"/><path d="m38 28.5c0 1.24-.9 2.26-2.08 2.46-.46 2.86-2.94 5.04-5.92 5.04s-5.46-2.18-5.92-5.04c-1.18-.2-2.08-1.22-2.08-2.46 0-.69.28-1.32.73-1.77.34-.34.78-.58 1.27-.68v-.05s8 2 8-2c0 0 0 2 4 2v.05c.49.1.93.34 1.27.68.45.45.73 1.08.73 1.77z" fill="#fdd198"/></g><g id="b" fill="#232323"><path d="m29.432 12c.19.486.944.495 1.137 0 .182-.507.732-1.302.431-1.863-.589-1.305-2.545-.461-2 .863l.431 1z"/><path d="m24 44.087c-.998.295-1.996.526-3-.023-.877-.513-1.967.547-1.443 1.443.28.517.926.71 1.443.43.337-.185.674-.276 1.01-.311-.08 1.088.239 2.471.334 3.478.102 1.299.08 2.598-.281 3.897-.33 1.619 2.203 1.616 1.873 0-.361-1.299-.383-2.598-.281-3.897.087-.917.357-2.155.342-3.19h.002c.57.182 1.285.125 1.543-.519.372-1.027-.635-1.654-1.543-1.307z"/><path d="m36 44.108c-.502-.022-.948.375-.892.892.295 2.671.488 5.337-.044 8-.224 1.516 2.098 1.509 1.873 0-.22-1.099-.311-2.199-.328-3.3l1.391.3c.704.167 1.386-.507 1.216-1.216-.119-.552-.663-.903-1.216-.784l-1.373.296c.031-.78.089-1.56.166-2.34.736.057 1.472.091 2.208-.02.4-.06.733-.375.796-.796.089-1.767-2.702-1.011-3.796-1.032z"/><path d="m42.108 45c.295 2.671.488 5.337-.044 8-.224 1.516 2.098 1.509 1.873 0-.22-1.099-.311-2.199-.328-3.3l1.391.3c.704.167 1.386-.507 1.216-1.216-.119-.552-.663-.903-1.216-.784l-1.373.296c.031-.78.089-1.56.166-2.34.736.057 1.472.091 2.208-.02.4-.06.733-.375.796-.796.089-1.767-2.702-1.011-3.796-1.032-.502-.022-.948.375-.892.892z"/><path d="m54.654 3.014c.05-1.219-.859-2.407-2.084-2.668-1.141-.281-2.403.276-2.988 1.293-3.462 3.677-9.062 4.085-13.974 4.387-.351-.873-1.067-1.554-2.099-1.724-.975-.102-2.564.06-3.509.042l-2.249.026c-.776-.04-1.909.052-2.524.724-.303.277-.495.6-.626.948-3.41-.177-6.836-.462-9.95-1.661-1.615-.624-3.219-1.511-4.233-2.742-.585-1.017-1.847-1.574-2.988-1.293-1.224.26-2.134 1.449-2.084 2.668.21 2.111 2.13 3.423 3.651 4.612 1.516 1.028 3.157 1.787 4.859 2.383h-.165c-3.019-.268-4.976 1.974-4.687 4.871.033 10.379.114 27.431.191 37.699.011.947-.003 2.916.049 3.859.172 1.588 1.449 2.964 3.019 3.252.757.141 1.899.034 2.658.063l5.026-.021c5.01-.013 15.095-.072 20.106-.083 1.315.003 5.678-.035 6.911-.028 1.796.044 3.442-1.417 3.612-3.203.066-.913-.001-2.95.03-3.838l.009-5.027c.019-7.849.057-24.693.13-32.673.302-2.812-1.551-4.904-4.436-4.686l-.66-.008c1.882-.615 3.69-1.433 5.354-2.561 1.52-1.19 3.442-2.501 3.651-4.612zm-28.603 2.966c.491-.449.996-.349 1.699-.35l2.249.026 2.249.06c.887-.029 1.685.073 1.896.98.062.201-.007.692.007.911-.029.736-.065 2.662-.087 3.374-.036 2.161-1.899 4.026-4.065 4.084-2.221.121-4.298-1.831-4.317-4.084l-.033-1.125c-.029-.75-.021-1.499-.032-2.249-.021-.561-.047-1.241.434-1.626zm-18.306-1.054c-.446-.549-1.094-1.219-1.088-1.918.009-.622.489-1.169 1.073-1.262.5-.092 1.032.137 1.293.573 1.186 1.812 3.037 2.899 4.932 3.746 3.33 1.408 6.9 1.917 10.403 1.877.01.653.056 1.312-.008 1.913-.009.069-.01.136-.017.205-1.137-.011-2.273-.01-3.41-.018-2.204-.142-4.388-.506-6.489-1.145-2.494-.818-4.917-2.021-6.688-3.972zm39.193 6.872c.798-.032 1.551.365 1.975 1.044.342.534.341 1.065.34 1.694-1.658-.196-3.316-.227-4.975-.27-1.721.013-3.442.01-5.165.196-.117.013-.214.104-.229.225-.018.142.083.272.225.29 3.378.352 6.764.384 10.147.105.002.339.015 2.313.015 2.313s.002.387.002.402c-1.31-.184-2.729-.192-4.167-.24-1.772-.059-3.673-.138-4.86.215-.223.066-.201.218-.035.341.172.128.527.224.934.247 2.854.164 5.782.205 8.131-.009 0 .236.009 1.843.012 2.6-.007-.001-.011-.005-.018-.006-.932-.16-2.09-.178-3.289-.204-1.824-.039-3.82.104-4.555.234-.302.19-.194.338.16.458.356.12.971.183 1.643.204 2.281.073 4.703.032 6.062-.116.004.866.007 1.467.013 2.653-.042-.011-.072-.024-.119-.034-.541-.113-1.414-.158-2.352-.161-1.876-.007-4.009.152-4.251.254-.394.278-.186.46.355.574.541.113 1.414.158 2.352.161 1.6.006 3.376-.108 4.017-.206.005 1.026.005 1.107.011 2.209-.464-.112-1.22-.157-2.032-.158-1.438-.003-3.07.097-3.379.218-.368.145-.434.318-.255.443.045.071.146.142.279.172.571.127 1.367.167 2.203.162 1.229-.007 2.569-.106 3.187-.215.005 1.091.005 1.15.01 2.183-.392-.09-.968-.13-1.593-.129-1.001 0-2.118.074-2.507.182-.417.116-.618.267-.541.405.003.108.095.219.235.252.601.14 1.319.177 2.053.163.865-.017 1.782-.103 2.355-.223.005.977.007 1.35.01 2.143-.308-.063-.718-.091-1.154-.089-.564.003-1.167.057-1.635.147s-.802.216-.827.367c-.039.144.046.293.19.332.636.136 1.272.191 1.904.164.512-.022 1.02-.112 1.525-.24.007 1.418.02 4.251.02 4.251.009 4.599.023 13.079.031 17.593.214 1.674-.618 3.292-2.433 3.286-.354.017-1.536-.032-1.885-.008l-5.027-.021c-7.241-.036-17.92-.065-25.133-.104-.394.013-1.513-.027-1.885-.008-1.12.029-2.13-.872-2.235-1.981-.049-.648.031-2.986.005-3.679.034-10.307.201-27.278.191-37.699-.126-1.319.245-2.57 1.625-2.852.203-.067.869-.016 1.069-.038 3.561.005 7.132-.014 10.693-.051.454 2.733 2.544 4.894 5.616 4.997 3.186.038 5.398-2.168 5.872-5.01 2.441-.028 9.181-.107 9.181-.107.387.005 1.522-.03 1.885-.022zm-9.492-1.706c-.559-.006-1.264-.015-1.519-.018-.007-.073-.008-.145-.017-.219 0 0-.036-1.295-.054-1.918 5.274-.036 11.331-1.055 14.917-5.301.647-1.392 2.44-1.123 2.569.372-.257 1.548-1.859 2.674-3.032 3.626-3.764 2.525-8.348 3.391-12.865 3.459z"/><path d="m16 46.002c.861-.019 1.134 1.22 2.089.773 1.628-1.081-.803-2.945-2.089-2.777-1.053.015-2.051.644-2.519 1.546-1.044 1.815.473 4.257 2.519 4.111 1.023-.102 1.781 1.179 1.189 2.03-.463.836-1.876.757-2.111-.155-.449-1.419-2.515-.461-1.717.8 1.084 1.835 3.942 1.854 4.911-.019.986-1.681-.319-3.959-2.272-3.968-.471-.043-.886-.336-1.057-.735-.36-.759.26-1.678 1.057-1.608z"/><path d="m27.633 45.92c-.152.34-.233.71-.238 1.081-.01 2.004-.095 4-.331 5.999-.121 1.39 1.995 1.384 1.873 0-.092-.775-.144-1.55-.194-2.324.419-.087.839-.084 1.258-.02.33.053.664.179.999.264-.011.693-.002 1.387.065 2.08.042.44.39.803.847.847.517.049.977-.33 1.026-.847.168-1.89-.003-3.82-.089-5.713.103-3.015-3.922-4.103-5.215-1.367zm2.367 3.424c-.444.068-.889.07-1.333-.036-.031-.768-.058-1.537-.062-2.307-.028-.744.667-1.406 1.395-1.346.641.048 1.156.566 1.173 1.176 0 .312-.076 1.271-.084 1.598-.008.212-.018.425-.028.637-.356.084-.711.221-1.062.278z"/><path d="m36.966 25.345c-.147-1.586-.853-3.156-2.014-4.254-2.588-2.684-7.285-2.622-9.778.122-1.117 1.161-1.78 2.733-1.866 4.315-1.891.766-2.634 3.447-1.187 5.01.384.443.899.763 1.458.932.275 1.159.77 2.135 1.44 2.901-2.903.021-5.595 2.053-6.497 4.8-.51-.033-1.024-.064-1.523-.107-1.344-.073-1.328 1.949 0 1.873 3.13-.279 6.597-.316 9.75-.331 5.026-.019 11.25.581 16.25.331.462-.031.841-.399.873-.873.035-.517-.356-.965-.873-.999-.533-.036-1.066-.056-1.599-.065-.228-.612-.528-1.214-.915-1.742-1.229-1.803-3.219-2.699-5.303-2.864.642-.723 1.123-1.64 1.416-2.719 1.334-.433 2.336-1.747 2.337-3.174.041-1.326-.79-2.584-1.97-3.155zm-2.099-.425c-.525-.064-1.018-.143-1.433-.345-1.095-.579-2.192-.042-2.913.714-1.646.959-3.881.675-5.735.152.789-5.788 8.926-5.985 10.082-.521zm4.495 14.089c-.954.02-1.908.054-2.861.08-5.068.23-10.696.414-15.954.19.83-2.537 3.218-3.76 5.924-3.706 2.183 1.345 5.064 1.35 7.257.014l.809.036c2.146.06 4.041 1.449 4.825 3.386zm-3.584-8.89c-.356.051-.651.33-.7.706-.436 3.982-5.558 5.961-8.565 3.276-.981-.807-1.639-1.988-1.821-3.239-.037-.256-.239-.471-.508-.512-1.969-.34-2.028-3.179-.125-3.588 2.607.24 5.587.921 7.897-.636.266-.122.462-.059.58.046.986.612 2.061.827 3.062.782.067.027.13.061.204.072.693.109 1.252.743 1.263 1.475.045.737-.518 1.473-1.286 1.619z"/></g></svg>