<svg id="Capa_1" enable-background="new 0 0 512 512" height="512" viewBox="0 0 512 512" width="512" xmlns="http://www.w3.org/2000/svg"><g><g><g><g><g><g><g><circle cx="256" cy="256" fill="#00c8c8" r="256"/></g></g></g></g></g></g><path d="m319.572 85.954-104.636.889-50.572 101.938 153.026 153.026-216.669 73.203 88.079 88.079c21.416 5.81 43.946 8.911 67.2 8.911 134.102 0 244.121-103.112 255.099-234.377z" fill="#00a0aa"/><g><g><g><g><g><ellipse cx="256" cy="164.649" fill="#ffbeaa" rx="61.388" ry="61.388" transform="matrix(.13 -.992 .992 .13 59.484 397.085)"/></g></g></g></g><g><g><g><g><path d="m317.388 164.649c0-33.904-27.484-61.388-61.388-61.388v122.777c33.903-.001 61.388-27.485 61.388-61.389z" fill="#faa68e"/></g></g></g></g><g><path d="m256 388.996c41.309 0 79.96-11.38 112.99-31.176l-25.98-80.727-2.493-7.847c-8.253-25.975-32.372-43.618-59.627-43.618h-.014-49.751c-27.216 0-51.31 17.595-59.595 43.519l-2.539 7.945-25.98 80.727c33.028 19.797 71.68 31.177 112.989 31.177z" fill="#606aea"/></g><g><path d="m343.01 277.093-2.493-7.847c-8.253-25.975-32.372-43.618-59.627-43.618h-.014-24.876v163.368c41.309 0 79.96-11.38 112.99-31.176z" fill="#4855b7"/></g></g><g><path d="m100.721 328.616h310.557v86.393h-310.557z" fill="#fff"/></g><g><path d="m256 328.616h155.279v86.394h-155.279z" fill="#e9edf5"/></g><g><g fill="#555a66"><path d="m137.986 390.542v-14.624h-15.114v14.624h-9.386v-36.395h9.386v13.586h15.114v-13.586h9.386v36.395z"/><path d="m153.924 390.542v-36.395h26.683v8.185h-17.297v5.675h16.915v8.185h-16.915v6.166h17.297v8.185h-26.683z"/><path d="m186.066 390.542v-36.395h9.386v28.21h14.624v8.185z"/><path d="m214.936 390.542v-36.395h18.225c8.184 0 12.659 5.511 12.659 12.113 0 6.548-4.475 12.059-12.659 12.059h-8.84v12.223zm21.334-24.282c0-2.51-1.855-3.929-4.365-3.929h-7.585v7.803h7.585c2.51 0 4.365-1.419 4.365-3.874z"/></g><path d="m263.994 390.542v-36.395h15.279c11.458 0 19.697 6.875 19.697 18.17s-8.239 18.225-19.644 18.225zm25.373-18.225c0-5.621-3.383-9.986-10.04-9.986h-5.947v20.026h5.893c6.384 0 10.094-4.638 10.094-10.04z" fill="#333940"/><path d="m303.668 390.542v-36.395h26.683v8.185h-17.297v5.675h16.915v8.185h-16.915v6.166h17.297v8.185h-26.683z" fill="#333940"/><path d="m333.191 385.413 4.966-7.039c2.619 2.619 6.657 4.802 11.622 4.802 3.22 0 5.185-1.255 5.185-3.001 0-4.966-20.626-.982-20.626-15.006 0-6.111 5.184-11.568 14.515-11.568 5.838 0 10.913 1.746 14.787 5.075l-5.13 6.711c-3.055-2.51-7.038-3.765-10.64-3.765-2.728 0-3.929 1.092-3.929 2.619 0 4.638 20.571 1.255 20.571 14.788 0 7.312-5.402 12.168-15.169 12.168-7.366-.001-12.495-2.292-16.152-5.784z" fill="#333940"/><path d="m390.27 390.542-9.549-13.696-2.455 3.056v10.64h-9.385v-36.395h9.385v14.951l11.186-14.951h11.568l-14.133 17.024 14.897 19.371z" fill="#333940"/></g><g><path d="m347.637 212.89h-85.362v-30h55.362v-30.996c0-33.987-27.65-61.637-61.637-61.637s-61.637 27.65-61.637 61.637v36.887h-30v-36.887c0-50.529 41.108-91.637 91.637-91.637s91.637 41.108 91.637 91.637z" fill="#555a66"/></g><g><path d="m256 60.257v30c33.986 0 61.637 27.65 61.637 61.637v30.996h-55.362v30h85.362v-60.996c0-50.529-41.109-91.637-91.637-91.637z" fill="#333940"/></g></g></svg>