<svg clip-rule="evenodd" fill-rule="evenodd" height="512" image-rendering="optimizeQuality" shape-rendering="geometricPrecision" text-rendering="geometricPrecision" viewBox="0 0 1707 1707" width="512" xmlns="http://www.w3.org/2000/svg"><g id="Layer_x0020_1"><g id="_383321864"><path d="m1593 1355h-1049c-13 0-23-11-23-23v-1309c0-13 10-23 23-23h1049c13 0 23 10 23 23v1309c0 12-10 23-23 23z" fill="#ef5350"/><path d="m188 1531c-12 0-22-10-22-23 0-642 0-781 0-1275 0-128 104-233 233-233h145c12 0 22 10 22 23v1309c0 13-10 23-22 23h-180c-84 0-153 68-153 153 0 13-10 23-23 23z" fill="#c24441"/><path d="m1593 1707h-1229c-109 0-198-89-198-199s89-199 198-199h1229c12 0 23 10 23 23s-11 23-23 23c-91 0-165 68-165 153 0 84 74 153 165 153 13 0 23 10 23 23s-10 23-23 23z" fill="#af3d3b"/><path d="m1447 1657c-42-37-69-89-69-149s27-112 69-149h-1083c-82 0-148 67-148 149s66 149 148 149z" fill="#f5efca"/><path d="m1379 1531c0-8-1-15-1-23s1-15 1-23h-851c-13 0-23 10-23 23s10 23 23 23z" fill="#f6d7b6"/><g><path d="" fill="none"/></g><g fill="#ffc107"><path d="m276 370c23 0 41-19 41-42s-18-42-41-42h-144c-23 0-41 19-41 42s18 42 41 42z"/><path d="m276 545c23 0 41-19 41-42s-18-42-41-42h-144c-23 0-41 19-41 42s18 42 41 42z"/><path d="m276 720c23 0 41-19 41-42s-18-42-41-42h-144c-23 0-41 19-41 42s18 42 41 42z"/><path d="m276 894c23 0 41-18 41-41s-18-42-41-42h-144c-23 0-41 19-41 42s18 41 41 41z"/><path d="m276 1069c23 0 41-18 41-41s-18-42-41-42h-144c-23 0-41 19-41 42s18 41 41 41z"/><path d="m276 1244c23 0 41-18 41-41s-18-42-41-42h-144c-23 0-41 19-41 42s18 41 41 41z"/></g><path d="m1454 1187h-728c-12 0-22-10-22-23 0-12 10-23 22-23h728c12 0 22 11 22 23 0 13-10 23-22 23z" fill="#c24441"/><path d="m1454 1038h-728c-12 0-22-10-22-23s10-23 22-23h728c12 0 22 10 22 23s-10 23-22 23z" fill="#c24441"/><path d="m1454 889h-728c-12 0-22-10-22-23s10-23 22-23h728c12 0 22 10 22 23s-10 23-22 23z" fill="#c24441"/><path d="m1090 766c-189 0-343-154-343-343 0-190 154-344 343-344s343 154 343 344c0 189-154 343-343 343z" fill="#c24441"/><path d="m1090 708c-158 0-286-128-286-285 0-158 128-286 286-286s286 128 286 286c0 157-128 285-286 285z" fill="#ffc107"/><path d="m1050 530c-6 0-12-3-16-7l-89-89c-9-9-9-23 0-32s23-9 32 0l73 73 153-153c9-9 23-9 32 0s9 23 0 32l-169 169c-4 4-10 7-16 7z" fill="#fff"/><path d="m684 350c0 11-9 20-20 20s-20-9-20-20v-190c0-26 10-50 27-67h1c17-17 40-27 66-27h110c11 0 20 9 20 20s-9 20-20 20h-110c-15 0-28 6-38 16-10 9-16 23-16 38zm648-244c-11 0-20-9-20-20s9-20 20-20h110c26 0 49 10 66 27 18 17 28 41 28 67v190c0 11-9 20-20 20s-20-9-20-20v-190c0-15-6-29-16-38-10-10-23-16-38-16z" fill="#af3d3b"/></g></g></svg>