<svg height="512pt" viewBox="0 -84 512 512" width="512pt" xmlns="http://www.w3.org/2000/svg"><path d="m414.394531 0h-385.566406c-15.921875 0-28.828125 12.90625-28.828125 28.828125v222.882813c0 15.921874 12.90625 28.828124 28.828125 28.828124h385.566406c15.921875 0 28.828125-12.90625 28.828125-28.828124v-222.882813c0-15.921875-12.90625-28.828125-28.828125-28.828125zm-234.839843 239.714844h-148.933594c-2.558594 0-4.652344-2.09375-4.652344-4.652344 0-2.554688 2.09375-4.652344 4.652344-4.652344h148.933594c2.5625 0 4.652343 2.089844 4.652343 4.652344-.003906 2.554688-2.09375 4.652344-4.652343 4.652344zm0-25.824219h-148.933594c-2.558594 0-4.652344-2.09375-4.652344-4.652344 0-2.554687 2.09375-4.652343 4.652344-4.652343h148.933594c2.5625 0 4.652343 2.09375 4.652343 4.652343-.003906 2.558594-2.09375 4.652344-4.652343 4.652344zm94.128906-39.417969h-247.714844v-45.09375h247.714844zm112.023437 59.089844c-6.234375 0-11.863281-2.359375-16.242187-6.132812-4.382813 3.773437-10.007813 6.132812-16.242188 6.132812-13.824218 0-25.03125-11.207031-25.03125-25.03125s11.207032-25.03125 25.03125-25.03125c6.234375 0 11.859375 2.359375 16.242188 6.132812 4.378906-3.773437 10.007812-6.132812 16.242187-6.132812 13.820313 0 25.027344 11.207031 25.027344 25.03125s-11.207031 25.03125-25.027344 25.03125zm0-65.394531c-6.234375 0-11.863281-2.359375-16.242187-6.132813-4.382813 3.773438-10.007813 6.132813-16.242188 6.132813-13.824218 0-25.03125-11.207031-25.03125-25.03125s11.207032-25.03125 25.03125-25.03125c6.234375 0 11.859375 2.363281 16.242188 6.132812 4.378906-3.769531 10.007812-6.132812 16.242187-6.132812 13.820313 0 25.027344 11.207031 25.027344 25.03125s-11.207031 25.03125-25.027344 25.03125zm0 0" fill="#96ceb4"/><path d="m0 42.152344h443.222656v60.941406h-443.222656zm0 0" fill="#99734a"/><path d="m369.464844 124.242188c-4.382813-3.769532-10.007813-6.128907-16.242188-6.128907-13.824218 0-25.03125 11.203125-25.03125 25.027344s11.207032 25.03125 25.03125 25.03125c6.234375 0 11.859375-2.363281 16.242188-6.128906-5.339844-4.59375-8.789063-11.308594-8.789063-18.902344s3.449219-14.3125 8.789063-18.898437zm0 0" fill="#96ceb4"/><path d="m385.707031 118.113281c-6.234375 0-11.863281 2.359375-16.242187 6.128907 5.335937 4.589843 8.78125 11.308593 8.78125 18.898437 0 7.59375-3.449219 14.308594-8.78125 18.902344 4.378906 3.765625 10.007812 6.128906 16.242187 6.128906 13.820313 0 25.027344-11.207031 25.027344-25.03125s-11.207031-25.027344-25.027344-25.027344zm0 0" fill="#96ceb4"/><path d="m369.464844 124.242188c-5.339844 4.589843-8.789063 11.308593-8.789063 18.898437 0 7.59375 3.449219 14.308594 8.789063 18.902344 5.335937-4.59375 8.78125-11.308594 8.78125-18.902344s-3.449219-14.3125-8.78125-18.898437zm0 0" fill="#96ceb4"/><path d="m385.707031 183.5c-6.234375 0-11.863281 2.359375-16.242187 6.132812 5.335937 4.589844 8.78125 11.308594 8.78125 18.898438s-3.449219 14.308594-8.78125 18.898438c4.378906 3.773437 10.007812 6.132812 16.242187 6.132812 13.820313 0 25.027344-11.207031 25.027344-25.03125s-11.207031-25.03125-25.027344-25.03125zm0 0" fill="#96ceb4"/><path d="m369.464844 189.632812c-4.382813-3.769531-10.007813-6.132812-16.242188-6.132812-13.824218 0-25.03125 11.207031-25.03125 25.03125s11.207032 25.03125 25.03125 25.03125c6.234375 0 11.859375-2.359375 16.242188-6.132812-5.339844-4.589844-8.789063-11.308594-8.789063-18.898438s3.449219-14.308594 8.789063-18.898438zm0 0" fill="#96ceb4"/><path d="m369.464844 189.632812c-5.339844 4.589844-8.789063 11.308594-8.789063 18.898438s3.449219 14.308594 8.789063 18.898438c5.335937-4.589844 8.78125-11.308594 8.78125-18.898438s-3.449219-14.308594-8.78125-18.898438zm0 0" fill="#96ceb4"/><path d="m25.96875 129.382812h247.714844v45.089844h-247.714844zm0 0" fill="#ffeead"/><path d="m179.554688 204.589844h-148.933594c-2.558594 0-4.652344 2.09375-4.652344 4.652344 0 2.554687 2.09375 4.652343 4.652344 4.652343h148.933594c2.5625 0 4.652343-2.089843 4.652343-4.652343-.003906-2.558594-2.09375-4.652344-4.652343-4.652344zm0 0" fill="#99734a"/><path d="m179.554688 230.410156h-148.933594c-2.558594 0-4.652344 2.089844-4.652344 4.652344 0 2.554688 2.09375 4.652344 4.652344 4.652344h148.933594c2.5625 0 4.652343-2.09375 4.652343-4.652344-.003906-2.554688-2.09375-4.652344-4.652343-4.652344zm0 0" fill="#99734a"/><path d="m79.496094 103.09375v26.285156h194.183594v45.09375h-194.183594v30.117188h100.058594c2.5625 0 4.652343 2.09375 4.652343 4.648437 0 2.558594-2.089843 4.652344-4.652343 4.652344h-100.058594v16.519531h100.058594c2.5625 0 4.652343 2.089844 4.652343 4.648438s-2.089843 4.652344-4.652343 4.652344h-100.058594v40.824218h334.894531c15.921875 0 28.828125-12.90625 28.828125-28.828125v-148.613281zm306.210937 130.46875c-6.234375 0-11.863281-2.359375-16.242187-6.132812-4.382813 3.773437-10.007813 6.132812-16.242188 6.132812-13.824218 0-25.03125-11.207031-25.03125-25.03125s11.207032-25.03125 25.03125-25.03125c6.234375 0 11.859375 2.359375 16.242188 6.132812 4.378906-3.769531 10.007812-6.132812 16.242187-6.132812 13.820313 0 25.027344 11.207031 25.027344 25.03125s-11.207031 25.03125-25.027344 25.03125zm0-65.390625c-6.234375 0-11.863281-2.363281-16.242187-6.128906-4.382813 3.765625-10.007813 6.128906-16.242188 6.128906-13.824218 0-25.03125-11.207031-25.03125-25.03125s11.207032-25.027344 25.03125-25.027344c6.234375 0 11.859375 2.359375 16.242188 6.128907 4.378906-3.769532 10.007812-6.128907 16.242187-6.128907 13.820313 0 25.027344 11.203125 25.027344 25.027344 0 13.820313-11.207031 25.03125-25.027344 25.03125zm0 0" fill="#71a58a"/><path d="m171.667969 66.003906h-63.324219c-5.976562 0-11.523438 1.816406-16.125 4.929688-2.800781 1.890625-5.191406 4.308594-7.171875 7.042968-1.8125 2.496094-3.167969 5.300782-4.105469 8.316407-.398437 1.269531-.75 2.550781-.96875 3.890625-.28125 1.519531-.46875 3.0625-.46875 4.664062v8.25h363.71875v-37.089844h-271.554687zm0 0" fill="#825e3b"/><path d="m369.464844 124.242188c-4.382813-3.769532-10.007813-6.128907-16.242188-6.128907-13.824218 0-25.03125 11.203125-25.03125 25.027344s11.207032 25.03125 25.03125 25.03125c6.234375 0 11.859375-2.363281 16.242188-6.128906-5.339844-4.59375-8.789063-11.308594-8.789063-18.902344s3.449219-14.3125 8.789063-18.898437zm0 0" fill="#96ceb4"/><path d="m385.707031 118.113281c-6.234375 0-11.863281 2.359375-16.242187 6.128907 5.335937 4.589843 8.78125 11.308593 8.78125 18.898437 0 7.59375-3.449219 14.308594-8.78125 18.902344 4.378906 3.765625 10.007812 6.128906 16.242187 6.128906 13.820313 0 25.027344-11.207031 25.027344-25.03125s-11.207031-25.027344-25.027344-25.027344zm0 0" fill="#96ceb4"/><path d="m369.464844 124.242188c-5.339844 4.589843-8.789063 11.308593-8.789063 18.898437 0 7.59375 3.449219 14.308594 8.789063 18.902344 5.335937-4.59375 8.78125-11.308594 8.78125-18.902344s-3.449219-14.3125-8.78125-18.898437zm0 0" fill="#96ceb4"/><path d="m385.707031 183.5c-6.234375 0-11.863281 2.359375-16.242187 6.132812 5.335937 4.589844 8.78125 11.308594 8.78125 18.898438s-3.449219 14.308594-8.78125 18.898438c4.378906 3.773437 10.007812 6.132812 16.242187 6.132812 13.820313 0 25.027344-11.207031 25.027344-25.03125s-11.207031-25.03125-25.027344-25.03125zm0 0" fill="#96ceb4"/><path d="m369.464844 189.632812c-4.382813-3.769531-10.007813-6.132812-16.242188-6.132812-13.824218 0-25.03125 11.207031-25.03125 25.03125s11.207032 25.03125 25.03125 25.03125c6.234375 0 11.859375-2.359375 16.242188-6.132812-5.339844-4.589844-8.789063-11.308594-8.789063-18.898438s3.449219-14.308594 8.789063-18.898438zm0 0" fill="#96ceb4"/><path d="m369.464844 189.632812c-5.339844 4.589844-8.789063 11.308594-8.789063 18.898438s3.449219 14.308594 8.789063 18.898438c5.335937-4.589844 8.78125-11.308594 8.78125-18.898438s-3.449219-14.308594-8.78125-18.898438zm0 0" fill="#96ceb4"/><path d="m79.496094 129.378906h194.183594v45.089844h-194.183594zm0 0" fill="#c9b77d"/><path d="m179.554688 204.589844h-100.058594v9.300781h100.058594c2.5625 0 4.652343-2.09375 4.652343-4.652344-.003906-2.554687-2.09375-4.648437-4.652343-4.648437zm0 0" fill="#825e3b"/><path d="m179.554688 230.414062h-100.058594v9.300782h100.058594c2.5625 0 4.652343-2.09375 4.652343-4.652344-.003906-2.554688-2.09375-4.648438-4.652343-4.648438zm0 0" fill="#825e3b"/><path d="m485.800781 88.75h-350.625c-14.46875 0-26.199219 11.730469-26.199219 26.199219v202.445312c0 14.46875 11.730469 26.203125 26.199219 26.203125h350.625c14.46875 0 26.199219-11.734375 26.199219-26.203125v-202.4375c0-14.476562-11.730469-26.207031-26.199219-26.207031zm0 0" fill="#ff6f69"/><path d="m510.175781 323.449219s-263.164062-42.183594-317.476562-234.695313h-57.523438c-14.46875 0-26.199219 11.730469-26.199219 26.203125v202.441407c0 14.472656 11.730469 26.203124 26.199219 26.203124h350.625c12.03125 0 23.238281-8.757812 25.523438-20.28125zm0 0" fill="#71a58a"/><path d="m110.28125 107.175781c-.777344 2.472657-1.304688 5.050781-1.304688 7.773438v202.445312c0 14.46875 11.730469 26.203125 26.199219 26.203125h350.625c9.027344 0 16.925781-4.597656 21.609375-11.554687-50.867187-8.441407-309.484375-58.933594-397.128906-224.867188zm0 0" fill="#96ceb4"/><g fill="#ffeead"><path d="m207.070312 198.1875c-1.1875 3.707031-2.191406 6.574219-3.007812 8.601562-.667969 1.742188-1.226562 2.867188-1.671875 3.378907-.445313.503906-1.058594 1.179687-1.839844 2.015625-.777343.832031-1.632812 1.355468-2.558593 1.574218-.929688.21875-1.890626.328126-2.894532.328126-1 0-1.914062-.144532-2.726562-.433594-1.859375-.652344-5.535156-3.375-11.03125-8.167969l.113281-1.089844 3.339844-25.691406c13.585937-6.316406 20.386719-14.628906 20.386719-24.933594 0-4.285156-1.324219-7.601562-3.953126-9.960937-2.636718-2.359375-6.144531-3.539063-10.527343-3.539063-11.066407 0-17.375 6.058594-18.933594 18.1875l-2.226563 17.742188c-5.125 1.527343-10.472656 2.90625-16.042968 4.136719v8.167968c6.835937-1.597656 11.882812-2.902344 15.152344-3.921875l-1.558594 13.828125c-1.480469-.144531-2.636719-.21875-3.453125-.21875-4.230469 0-7.6875 1.253906-10.363281 3.757813-2.675782 2.503906-4.011719 5.714843-4.011719 9.632812s1.285156 6.933594 3.84375 9.03125c2.558593 2.109375 5.441406 3.15625 8.632812 3.15625 7.199219 0 12.511719-2.683593 15.929688-8.054687 6.53125 5.375 11.917969 8.054687 16.148437 8.054687 8.984375 0 15.257813-6.382812 18.824219-19.15625-.597656-1.453125-2.453125-3.59375-5.570313-6.425781zm-20.050781-37.34375c.816407-7.1875 2.785157-10.773438 5.902344-10.773438 2.601563 0 3.898437 1.523438 3.898437 4.566407 0 5.664062-3.640624 10.601562-10.914062 14.808593zm-25.503906 53.242188c-2.523437 0-3.789063-1.089844-3.789063-3.265626 0-1.089843.429688-2.03125 1.28125-2.832031.851563-.796875 1.894532-1.199219 3.117188-1.199219 1.226562 0 2.542969.292969 3.953125.871094-.59375 4.285156-2.113281 6.425782-4.5625 6.425782zm0 0"/><path d="m262.558594 178.824219c-4.792969 3.265625-12.035156 6.527343-17.160156 6.527343-.332032 0-.777344 0-1.222657-.21875 0-11.421874-4.679687-17.410156-14.261719-17.410156-22.949218 0-30.527343 26.121094-30.527343 38.640625 0 12.402344 7.464843 17.199219 17.824219 17.199219 13.707031 0 24.847656-12.632812 26.628906-32.769531 8.132812-1.300781 15.484375-4.566407 19.71875-9.027344zm-30.972656 7.726562c0 2.175781.667968 4.027344 3.007812 4.566407-1.78125 12.847656-7.464844 22.640624-12.925781 22.640624-4.234375 0-5.679688-1.628906-5.679688-8.816406 0-10.667968 6.910157-30.585937 14.820313-30.585937 2.894531 0 4.011718 1.742187 4.230468 6.3125-2.007812.878906-3.453124 2.835937-3.453124 5.882812zm0 0"/><path d="m303.988281 203.640625c-3.121093 9.472656-7.242187 13.167969-14.035156 15.566406l11.03125-50.503906h-16.046875l-7.796875 35.589844c-1.671875 5.113281-4.570313 8.925781-8.691406 8.925781-2.5625 0-3.339844-2.289062-3.339844-4.789062 0-.871094.109375-1.847657.332031-2.722657l8.019532-37.007812h-16.046876l-7.570312 34.9375c-.558594 2.609375-.890625 5.011719-.890625 7.070312 0 9.144531 5.234375 13.0625 11.921875 13.0625 3.789062 0 8.691406-.976562 13.371094-6.09375l-1.339844 5.882813c-8.359375 2.5-18.15625 7.070312-18.15625 16.214844 0 7.074218 5.679688 10.558593 12.476562 10.558593 7.351563 0 16.710938-2.9375 20.054688-18.507812l1.667969-7.835938c6.910156-1.847656 15.378906-5.988281 19.722656-20.351562h-4.683594zm-32.867187 28.519531c-1.449219 6.417969-4.125 9.6875-6.460938 9.6875-2.453125 0-3.789062-2.070312-3.789062-3.589844 0-4.355468 5.234375-7.183593 10.917968-9.253906zm0 0"/><path d="m362.570312 203.640625c-1.664062 5.441406-4.679687 10.226563-9.023437 10.226563-3.121094 0-4.566406-1.628907-4.566406-4.675782 0-.980468.113281-2.070312.449219-3.484375l8.015624-37.007812h-16.042968l-1.226563 5.769531v-.761719c0-3.15625-2.675781-5.558593-9.027343-5.558593-19.386719 0-28.632813 23.40625-28.632813 38.097656 0 12.953125 7.238281 17.523437 14.820313 17.523437 7.910156 0 13.144531-5.007812 16.597656-10.011719.667968 6.535157 4.679687 10.011719 10.921875 10.011719 6.019531 0 16.046875-2.390625 22.394531-20.132812h-4.679688zm-28.738281 0c-1.339843 6.308594-6.015625 9.578125-9.246093 9.578125-2.007813 0-5.574219-.109375-5.574219-8.496094 0-10.226562 6.125-29.824218 15.601562-29.824218 3.566407 0 4.566407 2.835937 4.566407 4.136718zm0 0"/><path d="m392.308594 203.640625c-1.671875 5.441406-5.675782 9.578125-10.027344 9.578125-3.117188 0-4.566406-.980469-4.566406-4.027344 0-.980468.113281-2.070312.449218-3.484375l12.8125-58.777343-16.496093 2.171874-11.917969 54.539063c-.5625 2.609375-.886719 5.011719-.886719 7.070313 0 9.144531 5.230469 13.0625 11.917969 13.0625 6.019531 0 17.050781-2.390626 23.402344-20.132813zm0 0"/><path d="m422.042969 203.640625c-1.664063 5.441406-5.675781 9.578125-10.027344 9.578125-3.113281 0-4.566406-.980469-4.566406-4.027344 0-.980468.117187-2.070312.449219-3.484375l7.132812-32.660156h6.679688l.894531-4.347656h-6.6875l3.789062-17.199219-16.488281 2.175781-3.347656 15.023438h-3.671875l-.894531 4.347656h3.679687l-6.683594 30.589844c-.5625 2.609375-.886719 5.011719-.886719 7.070312 0 9.144531 5.230469 13.0625 11.917969 13.0625 6.015625 0 17.046875-2.390625 23.398438-20.132812h-4.6875zm0 0"/><path d="m457.132812 168.703125-7.574218 34.9375c-1.675782 5.441406-4.566406 9.578125-8.914063 9.578125-2.558593 0-3.339843-2.289062-3.339843-4.789062 0-.871094.113281-1.847657.335937-2.722657l8.015625-37.007812h-16.042969l-7.574219 34.9375c-.5625 2.609375-.886718 5.011719-.886718 7.070312 0 9.144531 5.230468 13.0625 11.917968 13.0625 3.789063 0 8.804688-.976562 13.59375-6.308593l-1.113281 4.792968c-10.585937 3.046875-19.273437 6.203125-19.273437 16.320313 0 7.074219 6.355468 11.761719 13.148437 11.761719 7.351563 0 16.929688-2.9375 20.277344-18.507813l13.59375-63.125zm-13.699218 63.457031c-1.449219 6.417969-4.347656 8.484375-6.574219 8.484375-2.453125 0-4.460937-2.070312-4.460937-3.589843 0-5.875 5.347656-9.03125 12.371093-11.320313zm0 0"/></g><path d="m475.089844 126.019531c1.710937-1.671875.765625-4.578125-1.597656-4.921875l-12.46875-1.8125c-.941407-.136718-1.75-.722656-2.171876-1.574218l-5.582031-11.300782c-1.058593-2.140625-4.113281-2.140625-5.171875 0l-5.578125 11.300782c-.417969.851562-1.234375 1.4375-2.171875 1.574218l-12.472656 1.8125c-2.363281.34375-3.308594 3.25-1.597656 4.921875l9.023437 8.796875c.683594.664063.988281 1.617188.828125 2.550782l-2.125 12.421874c-.40625 2.355469 2.070313 4.152344 4.183594 3.039063l11.152344-5.863281c.839844-.4375 1.84375-.4375 2.683594 0l11.152343 5.863281c2.117188 1.113281 4.59375-.683594 4.1875-3.039063l-2.128906-12.421874c-.160156-.933594.152344-1.890626.828125-2.550782zm0 0" fill="#ffcc5c"/><path d="m289.257812 278.65625h-135.292968c-2.324219 0-4.226563 1.902344-4.226563 4.226562 0 2.324219 1.902344 4.222657 4.226563 4.222657h135.292968c2.324219 0 4.226563-1.898438 4.226563-4.222657 0-2.324218-1.902344-4.226562-4.226563-4.226562zm0 0" fill="#99734a"/><path d="m289.257812 302.117188h-135.292968c-2.324219 0-4.226563 1.898437-4.226563 4.222656 0 2.324218 1.902344 4.226562 4.226563 4.226562h135.292968c2.324219 0 4.226563-1.902344 4.226563-4.226562 0-2.324219-1.902344-4.222656-4.226563-4.222656zm0 0" fill="#99734a"/></svg>