<svg id="Layer_1" enable-background="new 0 0 256 256" height="512" viewBox="0 0 256 256" width="512" xmlns="http://www.w3.org/2000/svg"><g><g><g><g><path d="m195.703 243.095h-135.406c-5.522 0-9.999-4.477-9.999-9.999v-188.11c0-5.522 4.477-9.999 9.999-9.999h135.405c5.522 0 9.999 4.477 9.999 9.999v188.109c.001 5.523-4.476 10-9.998 10z" fill="#995222"/></g><g><path d="m199.818 35.87c.568 1.255.884 2.649.884 4.116v188.109c0 5.522-4.477 9.999-9.999 9.999h-135.406c-1.467 0-2.86-.316-4.116-.884 1.569 3.469 5.06 5.884 9.116 5.884h135.405c5.522 0 9.999-4.477 9.999-9.999v-188.109c.001-4.055-2.413-7.547-5.883-9.116z" fill="#8c3f0a"/></g><g><path d="m189.106 229.154h-122.212c-1.841 0-3.333-1.492-3.333-3.333v-173.527c0-1.841 1.492-3.333 3.333-3.333h122.212c1.841 0 3.333 1.492 3.333 3.333v173.527c0 1.841-1.492 3.333-3.333 3.333z" fill="#f1f2f2"/></g><g><path d="m189.106 48.96h-6.667v166.86c0 1.841-1.492 3.333-3.333 3.333h-115.545v6.667c0 1.841 1.492 3.333 3.333 3.333h122.212c1.841 0 3.333-1.492 3.333-3.333v-173.526c0-1.841-1.492-3.334-3.333-3.334z" fill="#e6e7e8"/></g><g><path d="m189.106 48.961h-1.667v171.86c0 1.841-1.492 3.333-3.333 3.333h-120.545v1.667c0 1.841 1.492 3.333 3.333 3.333h122.212c1.841 0 3.333-1.492 3.333-3.333v-173.527c0-1.841-1.492-3.333-3.333-3.333z" fill="#d1d3d4"/></g><g><path d="m69.56 167.4c-1.1 0-2-.9-2-2s.9-2 2-2c1.101 0 2 .9 2 2s-.9 2-2 2zm0-8c-1.1 0-2-.9-2-2v-102.44c0-.53.21-1.04.59-1.41.37-.38.881-.59 1.41-.59h14.26c1.101 0 1.99.9 1.99 2s-.89 2-1.99 2h-12.26v100.43.01c0 1.1-.9 2-2 2z" fill="#fff"/></g><g><path d="m166.473 48.612-4.994-17.915c-.803-2.882-3.429-4.876-6.421-4.876h-20.808c0 3.451-2.798 6.249-6.249 6.249s-6.249-2.798-6.249-6.249h-20.808c-2.992 0-5.618 1.994-6.421 4.876l-4.994 17.915c-1.184 4.249 2.011 8.456 6.422 8.456h64.102c4.41 0 7.604-4.207 6.42-8.456z" fill="#ffa91a"/></g><g><path d="m166.473 48.612-4.994-17.915c-.803-2.882-3.429-4.876-6.421-4.876h-2.151l3.566 12.791c1.185 4.249-2.01 8.456-6.421 8.456h-60.094l-.43 1.544c-1.184 4.249 2.011 8.456 6.422 8.456h64.102c4.411 0 7.605-4.207 6.421-8.456z" fill="#f79219"/></g><g><g><path d="m121.855 26.965c-.069-.371-.105-.753-.105-1.145h-2.5c.755.567 1.641.967 2.605 1.145z" fill="#f79219"/></g></g><g><path d="m128 12.905c-7.133 0-12.915 5.782-12.915 12.916 0 7.133 5.782 12.915 12.915 12.915s12.916-5.782 12.916-12.915-5.783-12.916-12.916-12.916zm0 19.165c-3.451 0-6.249-2.798-6.249-6.249s2.798-6.249 6.249-6.249c3.452 0 6.249 2.798 6.249 6.249s-2.797 6.249-6.249 6.249z" fill="#ffa91a"/></g><g><g><path d="m136.078 15.743c1.775 2.212 2.838 5.021 2.838 8.078 0 7.133-5.782 12.915-12.916 12.915-3.057 0-5.866-1.062-8.078-2.837 2.367 2.949 6.002 4.837 10.078 4.837 7.133 0 12.916-5.782 12.916-12.915 0-4.076-1.889-7.711-4.838-10.078z" fill="#f79219"/></g></g><g><g><g><g><path d="m158.929 173.196h-41.795c-2.275 0-4.119-1.844-4.119-4.119 0-2.275 1.844-4.119 4.119-4.119h41.795c2.275 0 4.119 1.844 4.119 4.119.001 2.275-1.844 4.119-4.119 4.119z" fill="#d1d3d4"/></g></g><g><path d="m171.897 158.919h-54.763c-2.275 0-4.119-1.844-4.119-4.119 0-2.275 1.844-4.119 4.119-4.119h54.763c2.275 0 4.119 1.844 4.119 4.119.001 2.275-1.844 4.119-4.119 4.119z" fill="#ffa91a"/></g><g><g><path d="m158.929 210.599h-41.795c-2.275 0-4.119-1.844-4.119-4.119 0-2.275 1.844-4.119 4.119-4.119h41.795c2.275 0 4.119 1.844 4.119 4.119.001 2.275-1.844 4.119-4.119 4.119z" fill="#d1d3d4"/></g></g><g><path d="m171.897 196.323h-54.763c-2.275 0-4.119-1.844-4.119-4.119 0-2.275 1.844-4.119 4.119-4.119h54.763c2.275 0 4.119 1.844 4.119 4.119.001 2.274-1.844 4.119-4.119 4.119z" fill="#ffa91a"/></g></g><g><g><path d="m98.869 173.196h-15.256c-2.005 0-3.63-1.625-3.63-3.63v-15.256c0-2.005 1.625-3.63 3.63-3.63h15.256c2.005 0 3.63 1.625 3.63 3.63v15.256c0 2.005-1.625 3.63-3.63 3.63z" fill="#ffa91a"/></g><g><g><g><g><g><path d="m89.855 167.608c-.574 0-1.125-.228-1.531-.634l-4.234-4.233c-.846-.845-.846-2.216 0-3.062s2.216-.846 3.062 0l2.703 2.701 5.476-5.476c.846-.846 2.216-.846 3.062 0 .846.845.846 2.216 0 3.062l-7.007 7.008c-.406.405-.956.634-1.531.634z" fill="#f1f2f2"/></g></g></g></g></g></g><g><g><path d="m98.869 210.599h-15.256c-2.005 0-3.63-1.625-3.63-3.63v-15.256c0-2.005 1.625-3.63 3.63-3.63h15.256c2.005 0 3.63 1.625 3.63 3.63v15.256c0 2.005-1.625 3.63-3.63 3.63z" fill="#ffa91a"/></g><g><g><g><g><g><path d="m89.855 205.011c-.574 0-1.125-.228-1.531-.634l-4.234-4.233c-.846-.845-.846-2.216 0-3.062s2.216-.846 3.062 0l2.703 2.701 5.476-5.476c.846-.846 2.216-.846 3.062 0 .846.845.846 2.216 0 3.062l-7.007 7.008c-.406.406-.956.634-1.531.634z" fill="#f1f2f2"/></g></g></g></g></g></g></g></g></g><g><g><circle cx="128" cy="103.339" fill="#ffa91a" r="33.405"/></g><g><path d="m146.082 75.257c3.364 5.213 5.323 11.417 5.323 18.082 0 18.449-14.956 33.405-33.405 33.405-6.665 0-12.869-1.96-18.082-5.323 5.947 9.216 16.298 15.323 28.082 15.323 18.449 0 33.405-14.956 33.405-33.405 0-11.784-6.107-22.135-15.323-28.082z" fill="#f79219"/></g><g><g><path d="m124.651 117.397c-1.38 0-2.759-.526-3.811-1.578l-10.614-10.614c-2.105-2.105-2.105-5.517 0-7.623 2.105-2.104 5.517-2.104 7.623 0l6.803 6.804 13.501-13.501c2.105-2.104 5.517-2.104 7.623 0 2.105 2.105 2.105 5.517 0 7.623l-17.312 17.312c-1.054 1.05-2.433 1.577-3.813 1.577z" fill="#fff"/></g></g></g></g></svg>