<svg id="Layer_1" enable-background="new 0 0 50 50" height="512" viewBox="0 0 50 50" width="512" xmlns="http://www.w3.org/2000/svg"><g><g><g><g enable-background="new"><g><path d="m48.93841 33.98994v1.4762c0 .172-.1178.3533-.3442.4798l-16.2662 9.4558c-.462.2716-1.2227.2716-1.6937 0l-29.2811-16.9096c-.2355-.1358-.3532-.3171-.3532-.498v-1.4762c0 .1809.1177.3622.3532.498l29.2902 16.9092c.4709.2627 1.2226.272 1.6846 0l16.2662-9.4554c.2355-.1265.3442-.3078.3442-.4798z" fill="#cb4844"/></g><g><path d="m48.58431 33.49534c.46841.2704.4767.7077.0113.9781l-16.264 9.4516c-.4653.2705-1.2204.2671-1.6887-.0033l-29.2886-16.9098c-.4684-.2704-.4709-.7044-.0055-.9748l16.264-9.4516c.4653-.2704 1.2146-.2704 1.683 0z" fill="#ee5550"/></g></g></g><g><g><path d="m14.68701 27.85994-.1954.1136-.7547.0232c.133.0768.1968.1671.1915.2572-.0052.0901-.0625.1636-.1775.2304-.1493.0868-.3102.1267-.5006.1168-.1845-.0133-.3576-.0602-.5195-.1536-.1561-.0902-.2605-.2104-.3135-.3605l.2995-.0535c.0411.1169.1221.2171.2551.2939.0868.0501.1792.0768.2715.0834.098.0101.1846-.0068.2591-.05.0748-.0435.0974-.0969.0857-.1571-.0234-.0601-.0873-.1234-.1972-.1868l-.1789-.0769.1895-.1101.7317-.03-.532-.3072.2241-.1302z" fill="#fff"/></g><g><path d="m13.07941 26.89174c.1214.0701.1911.1569.2088.2538.0121.1001-.0451.187-.1829.267-.0748.0435-.1668.0702-.2762.0868-.1035.02-.265.0268-.4782.0301l-.6973.0033.6708.3873-.2357.1369-1.0061-.5809.2125-.1235h.8876c.2018-.0034.346-.0068.4496-.0134.0978-.01.1786-.0301.2359-.0634.0633-.0368.086-.0768.0859-.1303-.0061-.0501-.0468-.0934-.1162-.1335-.1156-.0668-.277-.0935-.4845-.0667l-.0816-.1804c.1611-.02.3053-.0234.4321-.0032.1269.0133.2541.06.3755.1301z" fill="#fff"/></g><g><path d="m12.21791 26.43444-1.4649.8513-.2371-.1369 1.2408-.7211-.2949-.1702.2241-.1303z" fill="#fff"/></g><g><path d="m10.72141 25.77664c.1214.0702.1622.1537.1222.2438-.0398.0901-.1488.1803-.3152.277-.1609.0935-.3162.157-.4775.1837-.1553.0233-.2996 0-.421-.0702-.1214-.07-.1623-.1536-.1225-.2436.0456-.0935.1489-.187.3098-.2805.1664-.0967.3218-.1536.4829-.1801.1555-.0235.2999-.0001.4213.0699z" fill="#ee5550"/></g><g><path d="m17.63031 29.55934-.2241.1302-.6187-.3572-.3619.2103c.0925.0132.179.0433.26.0901.1387.0801.2142.1702.2321.2737.0177.1103-.0451.2004-.1829.2805-.1437.0835-.3107.1203-.5067.1136-.2017-.0034-.3747-.0502-.5251-.137-.1966-.1135-.2838-.2437-.2731-.3906l.311-.0267.006.0501c.0002.02.0236.0533.0524.1036.0351.0466.0929.0933.1623.1334s.1502.0668.2482.0768c.104.0066.1902-.01.2706-.0568.0804-.0467.109-.1035.097-.1635-.0234-.0601-.0755-.1169-.168-.1703s-.2081-.0934-.3349-.1136l.0106-.1267.701-.4074z" fill="#fff"/></g><g><path d="m17.50251 30.42404c.0224.0014.0439.004.0652.0073l-.0647.046-.1439.0635-.167-.0101-.031.0074c.0175-.0206.0406-.0398.0708-.0573.0748-.0435.167-.0636.2706-.0568z" fill="#cb4844"/></g><g><path d="m38.58561 30.29034c.0124.1201-.0737.2304-.2517.3338-.1783.1036-.368.1536-.5814.1503-.2072-.0001-.4209-.0635-.6464-.1937l-.3758-.217 1.1373-.6609.3932.227c.2023.1168.3184.2369.3248.3605zm-.8511.3272c.1384.0066.2706-.0301.3969-.1034.26431-.1536.2463-.3106-.0544-.4842l-.1966-.1136-.7758.4509.214.1235c.1387.0801.2777.1267.4159.1268" fill="#fff"/></g><g><path d="m40.44091 31.18844-.1724.1002-.3469-.2003-.965.5607-.1966-.1135.965-.5608-.347-.2003.1724-.1001z" fill="#fff"/></g><g><path d="m10.01841 28.87824-.1954.1136-.6708-.3873-.3332.1936.6014.3473-.1895.1101-.6014-.3472-.3332.1936.6939.4006-.1954.1136-.9079-.5242 1.2468-.7245z" fill="#fff"/></g><g><path d="m7.76241 28.49444-.1242.454-.266-.1536.1188-.4174-.2834-.1636-.4194.2438-.2082-.1202 1.2468-.7245.4683.2704c.1909.1102.3009.207.313.2937.0176.0836-.0453.1671-.1831.2471-.2069.1203-.4258.147-.6626.0703zm-.0993-.2372c.1215.0702.2196.107.3061.1103.075.0033.1614-.0202.2419-.0669.0804-.0468.1146-.0934.097-.1368-.0118-.04-.0753-.0969-.1909-.1636l-.2719-.157-.4481.2605z" fill="#fff"/></g><g><path d="m15.80671 32.22014-.1954.1136-.6708-.3873-.3332.1936.6014.3472-.1895.1102-.6014-.3472-.3332.1936.6881.3973-.1954.1135-.9021-.5208 1.2468-.7245z" fill="#fff"/></g><g><path d="m14.57501 31.50904-1.2467.7245-.214-.1235.9768-.5677-1.3072.2506-.1214-.0701.4341-.7547-.9769.5677-.2139-.1236.2556-.1485.211-.1226.7801-.4534.3296.1903-.3997.6745 1.163-.2338z" fill="#fff"/></g><g enable-background="new"><g><path d="m20.31851 20.23954c-.0123-.0063-.0249-.0126-.0378-.0186l-2.4862-1.4353.2528-.1469c.1951-.1134.5121-.1168.7145.0001l2.1626 1.2486z" fill="#fee182"/></g><g><path d="m19.77811 20.08394c-.4711-.0615-1.017.0205-1.4317.2386l-1.6035-.9258.9195-.5343z" fill="#fee182"/></g><g><path d="m18.34641 20.32254c-.0219.0115-.0435.0233-.0646.0356-.0234.0136-.0454.0273-.0669.0412l-1.6039-.926.1319-.0766z" fill="#485f69"/></g><g><path d="m15.69161 20.00764 2.116 1.2217c.0417.1058.1208.2048.2377.2904l-2.4859-1.4353z" fill="#485f69"/></g><g><path d="m20.24731 20.35474c.4684.2704.4074.748-.1324 1.0617-.5457.3172-1.37.354-1.8384.0836-.4626-.2671-.4016-.7446.1441-1.0618.5399-.3137 1.3641-.3506 1.8267-.0835z" fill="#fee182"/></g><g><path d="m20.31481 21.45894c-.0198.0128-.04.0253-.0612.0376-.0234.0136-.047.0264-.0709.0389-.4178.2181-.9624.2997-1.4335.2376-.1834-.0243-.3556-.0703-.505-.1385-.0111-.0053-.0219-.0109-.0331-.0162-.0247-.0122-.049-.0248-.0724-.0383-.0214-.0123-.0416-.025-.0609-.0383-.0111-.0072-.022-.0145-.0325-.022-.1169-.0856-.196-.1846-.2377-.2904-.1072-.2717.0321-.5874.4073-.83.0215-.0139.0435-.0276.0669-.0412.0211-.0123.0427-.0241.0646-.0356.4147-.2181.9606-.3001 1.4317-.2386.1829.0239.3543.0695.5026.137.0129.006.0255.0123.0378.0186.0227.0113.0451.0228.0665.0351.0234.0135.0452.0276.0663.0419.0092.0064.0187.0126.0277.0189.1184.0865.1986.1862.2412.2924.1095.2737-.0302.5903-.4054.8311zm-2.0384.0411c.4684.2704 1.2927.2336 1.8385-.0836.5398-.3137.6007-.7913.1323-1.0617-.4626-.267-1.2868-.2302-1.8266.0835-.5458.3172-.6067.7947-.1442 1.0618" fill="#485f69"/></g><g><path d="m20.47901 20.33544 2.4909 1.4382-.1321.0768-2.1176-1.2226c-.0426-.1062-.1228-.2059-.2412-.2924z" fill="#485f69"/></g><g><path d="m18.04531 21.51974c.0105.0075.0214.0148.0325.022l-.6059.3521c-1.5759-1.0342-2.7651-1.3139-2.1652-1.6625l.2527-.1469z" fill="#fee182"/></g><g><path d="m18.21131 21.61834-.6063.3523-.133-.0768.606-.3521c.0191.0132.0394.026.0608.0384.0233.0134.0476.026.0725.0382z" fill="#485f69"/></g><g><path d="m20.31481 21.45894c.3752-.2408.5149-.5574.4054-.8311l2.1176 1.2226-.9195.5343z" fill="#fee182"/></g><g><path d="m20.31481 21.45894 1.6035.9258-.1319.0767-1.6037-.926c.0239-.0125.0475-.0253.0709-.0389.0212-.0123.0414-.0248.0612-.0376z" fill="#485f69"/></g><g><path d="m18.74921 21.77304c.4711.0621 1.0157-.0195 1.4335-.2376l1.6037.926-.1233.0717-.7961.4626z" fill="#fee182"/></g><g><path d="m18.74921 21.77304 2.1178 1.2227-.1322.0768-2.4906-1.438c.1494.0682.3216.1142.505.1385z" fill="#485f69"/></g><g><path d="m19.59411 23.11914c-.0037.0079-.0078.0168-.0112.0266l-.0343.0937c-.1216-.0341-.179-.0941-.2661-.1804l-.0868-.05c-.0751-.0434-.0751-.0568-.0929-.1202-.007-.0257-.0194-.0501-.0352-.0737z" fill="#ee5550"/></g><g><path d="m17.25121 30.80464c-.081-.0468-.1217-.1035-.1278-.167-.0001-.0358.0122-.0691.0377-.0995l.031-.0074.167.0101.1439-.0635.0647-.046c.0779.0121.1495.0369.2177.0762.0809.0467.1276.1.1278.1601-.0113.0603-.0454.1135-.1202.157-.0748.0434-.161.0601-.2648.0601-.1037-.0068-.1961-.0334-.277-.0801z" fill="#ee5550"/></g><g><path d="m18.23601 30.66764c.0004.1003-.068.1937-.2117.2771-.1437.0836-.3108.1203-.495.1202-.1845-.0066-.3518-.0501-.4963-.1336-.2371-.1368-.2899-.2936-.17-.4639.0685-.1001.1776-.1903.3328-.2805.1493-.0867.2873-.1536.4196-.1903.1323-.0366.2535-.0602.3686-.0601.2246-.0032.4153.04.5772.1335.012.0069.0229.0143.0345.0214.1355.0862.2224.189.2497.3092l-.3053.0368-.0583-.1203-.1044-.1001c-.0226-.013-.0454-.0243-.0688-.0346-.1131-.0506-.2328-.0694-.3525-.0555-.1496.0132-.2991.0667-.4543.1501.0633-.0028.1351.0039.2182.0184.0156.0024.0311.0052.0471.0083.0978.0168.1905.0501.2657.0935.133.0768.1967.167.2032.2704zm-.7078.2171c.1038 0 .19-.0167.2648-.0601.0748-.0435.1089-.0967.1202-.157-.0002-.0601-.0469-.1134-.1278-.1601-.0682-.0393-.1398-.0641-.2177-.0762-.0213-.0033-.0428-.0059-.0652-.0073-.1036-.0068-.1958.0133-.2706.0568-.0302.0175-.0533.0367-.0708.0573-.0255.0304-.0378.0637-.0377.0995.0061.0635.0468.1202.1278.167.0809.0467.1733.0733.277.0801" fill="#fff"/></g><g><path d="m18.55481 29.94644c.0599.0462.0718.1.0409.145-.1964-.1149-.3871-.1581-.6117-.1549-.1151-.0001-.2363.0235-.3686.0601-.1323.0367-.2703.1036-.4196.1903-.1552.0902-.2643.1804-.3328.2805-.0277-.0203-.0587-.0407-.0917-.0598-.0861-.0496-.1857-.0906-.278-.1005-.1904-.0233-.3338.0868-.5008.1235-.2073.0468-.4493.0468-.6682.0667-.2023.017-.3752.0886-.4096-.0433.0043-.0228.0053-.0438-.0225-.0599-.3613.2084-.6105.294-.8767.0131l-.1323.0702c-.205.0349-.1001-.0927-.2539-.0802l-.1554.0569c-.1725.0733-.2125.1301-.42.1435-.0231 0-.0347-.0067-.0462-.0133-.0232-.0134-.0405-.0234-.0747-.0035-.0633.0368.029.0836.0006.1202-.1033.1203-.4208-.01-.5819.1036-.193.1373-.1187.2355.0206.3365l-.211.1226c-.0677-.017-.132-.0426-.1855-.0735-.0444-.0257-.0806-.0549-.1065-.0853l.523-.79c.0299-.0008.0613-.0043.1009-.0211l.1437-.0969c.1148-.0735.2529-.1002.3907-.1535.1266-.0534.1549-.1302.27-.1836l.1841-.0601c.3901-.0176-.102.0665 1.0468-.3873l.1553-.0434c.1325-.0702.2759-.1535.3675-.2404.0577-.0469-.0002-.0803-.0352-.1268l-.0353-.1269c-.0119-.0668-.0872-.1436-.0125-.2004.1526-.1184.0623-.0421.2229-.3238l.0858-.1035-.0583-.1001.1609-.0934.1152-.0335.0284-.0768c.0284-.0367.1378-.1003.1957-.0669l.1272.0869.115-.0535.1094-.0167.0749.0101.132-.0967c.069-.0401.1899-.097.1834-.1603l-.0461-.0469c-.1106-.0141-.1584.0737-.2308-.0534l-.0756-.0833-.0177-.1103-.047-.1134.0111-.0869-.0236-.0868-.012-.1001c-.0639-.1001-.0196-.2738-.1951-.3751-.1421-.0821-.0571.026-.3614-.2192l-.0238-.0935-.0119-.0935-.0406-.0434.0397-.0901.1206-.0567c.0406-.0502-.0494-.0539-.1097-.0836-.1298-.0742.0726-.1332.0275-.217-.0406-.0567-.0693-.0266-.0063-.0834.0602-.1017.2291-.2798.1704-.4473-.1378.0667-.0965.2437-.3153.2636-.059-.3127.1101-.3347.1762-.4374.0124-.0378-.0161-.0643-.0695-.0332-.1343-.0772-.0785-.1234-.0069-.2037.1805-.2108-.0315-.3635.3539-.5875.5253-.3053.3386-.3327.5111-.3707l.1214.0635c.1207-.0635-.07-.1603-.0704-.2338-.0003-.039-.0145.1398.0208-.3805l.109-.0768-.1329-.0702.0804-.0467-.1502-.0466c.0517-.0569.1896-.1304.2124-.1905.0225-.0734-.1449-.0967-.1393-.1736-.0259-.3073-.439-.4991-.7297-.6076-.4558-.1637-1.1557-.0556-1.2569-.0533-.0743-.0054-.1223-.0346-.1925-.0317.1024-.0208.1651-.0643.2782-.0785.1211-.0167.2422.0067.3284-.0635.0608-.0418.0839-.1115.0183-.1494l-.1289-.0543c-.0464-.04-.0117-.0334-.0119-.0668-.0177-.0701-.1625-.1601-.0706-.2403.2701-.2411.417.0691.6226.02l.1031-.1001c-.1001-.043-.1562-.0179-.3641-.1635-.0809-.0602-.1047-.1938.0913-.1669l.231.0734.081.0467-.0228.0534c.0343.1.1202-.0326.132-.1236-.0005-.08-.1855-.1601-.0533-.2236.0442.0544.1138.078.1837.086l1.94 1.12c.0135.0118.0283.0228.0446.0322.0148.0086.0311.0158.049.0218l.0807.0467 1.3852.7997c.0158.0236.0282.048.0352.0737.0321.1144.0529.0865.1797.1702.0871.0863.1445.1463.2661.1804l.0343-.0937c.1318.0351.515.2969.8992.0737.1001-.0582 1.2811-.7446 1.181-.6863.0545.0109.1115.0196.17.0284 1.6393.2486 4.6075 1.8874 2.6872 1.272-.1442-.0501-.3058-.0299-.4615-.0533-.5663-.0854-.1682-.1347-.83-.0066-.1266.0265-.2591.0031-.3799.0532-.1674.0674-.1367.1528-.5134-.0298-.1199-.0692-.2527-.1396-.3643-.2104-.0787-.056-.1381-.1227-.2368-.1035l-.0803.0533c-.1908.0193-.2483-.11-.4202.1102-.082.1003-.3751.1694-.1539.2971.2062.1089-.1185.1978.0102.2721.1224.0706.3561-.0216.4055-.1184.0685-.1301-.1627-.3429.159-.4408.1195-.0331.3437.0124.3809.1069-.1208.0368-.2015.0368-.2873.1201l-.0399.0969.1324-.0033.1378-.1203.1788.0301.1387.0869.035.0667.0633-.0501.1389.0868.0064.0967.1156.0802c.0542.2585-.0241.259.0939.3272.0586.0334.0856.053.0811.0869l.0009.1067.0407.1036c-.0513.0567-.2935.0634-.1546.1501l.1502.0669c.0405.0501-.0054.05-.0342.1001l.0239.1135c.0465.0467.0923.0468.0119.0936-.106-.0072-.1147-.0598-.2022-.1103l-.121.0435c-.0809-.0777-.0019-.1903-.1121-.254-.1369.0503-.0614.1405-.0723.2205l-.1033.0935-.0518.01-.1034.0401-.1514-.2203c-.0748.0033.1395.1936.013.2404-.0926-.0506-.1532-.1145-.1681-.157l-.0003-.0869-.0464-.0466c-.0777-.1.1075-.1436-.2611-.3039-.0261-.0151-.0982-.026-.1319-.0454-.0183-.0106-.0252-.0236-.0071-.0413l.1558-.0101c.1001.0555.3833.2125.2831.157l.0977-.0768.2076.0133.0915-.1068-.0178-.1237-.0466-.0734c-.0697-.0532-.1271-.0734-.1334-.1435-.012-.06.0053-.0767-.0699-.1201-.3273-.189-.3809.1433-.4889.1702l-.1096-.0033-.1038-.0402-.1094.077c-.0167.0633.0817.1334.0647.1969-.0873-.0504-.0775-.0929-.1853-.1268l-.1095-.0369-.0466-.0667c-.0413-.0238-.1501-.0068-.1642-.015l.1003-.0818c-.0866-.0301-.1785.0234-.2592.01-.1213-.0166-.1679-.09-.3175-.0768l-.1786.0569-.2245.0032c-.075-.01-.1154-.02-.1902.0101-.1199.0511-.0356.0461.0352.1135.0579.0601-.0284.0768-.0744.1236-.035.0548.2283.0737.2433.2003.0178.0634-.0049.1167.0471.1803l.1389.1001c.1504.1297.0151.1136-.1138.2404-.0459.0534-.1146.1134-.0741.1703l.133.0566c.1266-.0266.1606-.1536.2755-.2002l.1498-.0067c.139.0802.2121.0896.2932-.1503.0281-.0968.1434-.1101.2527-.1603l.2757-.1535.11.0902c.1.0605.3373.2039.2373.1435l.0063.0968.0234.1002.035.0802-.1779.1167.2544.1469c.1154.0201.236-.1035.3283-.0701l-.0285.0768-.0457.0735-.0621.2437-.0397.0901.0235.1002-.0456.06.0348.0869c.0467.0533.1044.0935-.0047.1301-.1639.0128-.1226.055-.2999-.02-.1516-.0544-.2958-.0267-.423-.1001-.0322-.0186-.0619-.0401-.0966-.0602-.1551-.0898-.3714-.1299-.5656-.1268.0976.021.1907.0072.259.0466l.1051.1437c-.0689.0534-.121-.0034-.1847-.0199-.0977.0367.0003.0467-.0108.08l-.0636.0302.0295.0968.0981.0234.0869.0433.1499.02c-.132.0968-.2416.0667-.3573-.0001l-.1445-.0567-.1847-.0333.138-.0803-.2133-.03-.1388-.0534c-.1804-.0563-.1647.0351-.2647.1003l-.0694-.04-.0975.0433c-.1002.0095-.1525-.0746-.2372-.1235l-.1551.0567-.0523-.0501-.0746.0367c-.038.0221-.0645.0271-.0753.0209-.012-.007-.0043-.0279.0289-.0542l.0226-.0533-.0687.0198-.1322.1103-.1551.0835-.2188.0066c-.1329-.0099-.3695-.0802-.4845-.0267l-.1317.1168-.0631.0968-.0804.0602c-.0997.033-.1156.0332-.1255.0274-.0311-.0179-.0016-.094-.0017-.1142l.0285-.0702.0917-.0667.0229-.0669c-.0067-.0594-.0542-.0696-.1101-.0967l-.0638-.0701-.0925-.0401-.0578-.0334-.1271-.0333-.0691-.0001-.0752-.0568-.0408-.0499c-.1-.0578-.3024-.1747-.2024-.1169l-.0865-.0033-.0747.0099c-.1105.0112-.1126-.0942-.3281.0768l-.1439.0233-.1265.0534-.1035.0803.0004.0801c.035.0534-.0515.0501-.0916.08l.0814.0935-.0461.0201.0519.0234.0693.0133.052.0368.075.0167.0233.0267.1155.0266.0575-.0267.0691-.0067.0629-.0366.1849.0601.0811.0534-.0287.0434-.1093.0033-.0918.0734-.1212-.0033c-.2258.0755-.2675.0111.1226.2839l.0061.0299-.0918.0734-.0748.0435-.1724.0734.0235.1002.0468.0935.098.0233.0576.0135.0407.0433.0176.0434.035.0667c.0305-.0178.0512-.0148.07-.0039l.2469.014c.0678-.0047.1127.0083.1485.0289.0403.0233.0691.0563.1058.0846.0432.0261.0872.0352.1271.0467.0455.0072.088.0161.1233.0365.014.0081.0268.0181.0385.0302l.0524.0902c.1013.0585.258.1366.3412.2371l.0469.147c.0125.2029-.1133.103.0651.2502.0504.0351.2128.2792.1747.3406l-.0517.0435.0003.0467-.1034.0667c-.121.0302-.1962-.0132-.2994.0535.1221.0844.2792-.0674.3405.0634l-.1034.0534c.1973.0341.2457-.0296.272.2238.0003.0463.0194.0718.05.0895.0486.0281.1267.0362.2046.0773.0783.0438.0868.065.0871.1102-.017.0768-.0111.0734.0585.1334zm-2.3268.3541c.196.0066.3631-.0301.5067-.1136.1379-.0801.2006-.1702.1829-.2805-.0179-.1034-.0934-.1936-.2321-.2737-.081-.0467-.1675-.0768-.26-.0901l.3619-.2103.6188.3572.2241-.1302-.8443-.4875-.701.4074-.0106.1268c.1268.0201.2424.0601.3349.1135.0926.0534.1446.1102.1681.1703.0119.06-.0167.1168-.097.1635-.0804.0468-.1668.0634-.2706.0568-.0981-.01-.1789-.0368-.2483-.0768-.0693-.04-.1272-.0868-.1623-.1334-.0288-.0503-.0521-.0836-.0523-.1036l-.0062-.05-.3109.0265c-.0107.147.0766.2772.2732.3906.1503.0869.3234.1337.525.1371" fill="#cb4844"/></g><g><path d="m18.21111 21.61834c.0112.0053.022.0109.0331.0162l2.4906 1.438c-.1008.0347-.5082.4117-.9672.1468-.1-.0578-.8-.4619-.7-.4042l-1.3355-.7711-.0497-.0286-.0775-.0448z" fill="#fee182"/></g><g><path d="m27.59621 25.51624.0409.0767.0061.0634c.0303.0534.1835.0733.1967.1537-.3093-.0547-.8013-.3982-.9471-.354.0582.0372-.1849-.1053.5667.3272l-.0748.0301c-.0618.0304-.0685.0655-.0164.0956.4617.2666-.0577-.1976 1.0858.4619-.0345.0602-.2825-.0234-.3518-.0367-.1039-.0267-.2134-.0167-.3116-.0333l-.1905-.05-.1321.0566-.0866.0034c-.3804.0387-.1606.1465-.1713.247-.011.1136-.2589.0968-.368.1468-.121.0569-.1612.0669-.3054.0234-.2216-.0853-.1687.078-.2701.1369l-.1723.1002-.121.0435c-.609-.1601-.3591-.1437-.7156-.1737-.1501-.0199-.2314-.1402-.3984-.1235l-.1957.0401-.2193-.0468c-.1162-.0671-.0144-.0403-.3116-.0734l-.1214-.0568c-.0983-.0166-.1497.0602-.2418.0735l-.1671-.0033c-.117.0452-.1646.2443-.4029.1068l-.0869-.0567-.0173-.0569c-.013-.0059.0463.02-.1211-.0555-.0628-.0363-.0574-.0617-.0473-.128l-.0008-.167.0107-.1469c.0513-.07.1721-.1335.2525-.1936l.0857-.0968c.0977-.0902.2877-.1069.3852-.1903-.2024-.1575.5227-.3452.4053-.7178-.0287-.0816-.0702-.1306-.1682-.1636-.1-.0362-.33-.1316-.4303-.1895-.0147-.0085-.0274-.0177-.0376-.0276l-.0063-.07-.0638-.0567-.11-.117c.0399-.0834.2308.0535.3172.0301-.0521-.0301-.272-.1769-.1338-.217l.098.01.0749-.0033c.0475.0021.0789.0109.1088.0281.0261.0151.103.0725.2033.1455l.1039-.0068.0752.0434c.0751.0301.2249.0234.2821-.0299-.0505-.0291-.2716-.1034-.2487-.1569.1296-.0754.213-.0045.3232.0801.0812.0607.1582.1171.2602.1234.144.0034.1031-.0733.0512-.1101-.058-.04-.1158-.0734-.0121-.1135.8894.4075.3811.3673.6005.494.0041.0023.0085.0046.0131.0068.0984.05.1555-.0301.2307 0 .1.0656.169.1555.2949.1702.1033-.04-.0641-.09.0338-.1335.5326.0769 1.0989.5081 1.6704.838z" fill="#cb4844"/></g><g><path d="m26.88711 27.62134c.0512.0296.0646.0604.0241.1017l-.0398.0767-.0632.0769-.1498-.0201c-.0749.0034-.0865-.0033-.1502-.0333-.0928-.0431-.1894-.0623-.2658-.1065-.0186-.0107-.0362-.0227-.0519-.0371l-.1042-.0533-.0521-.0702.0804-.0468-.0059-.0568c.0458-.0266.1384.0669.1613 0l-.1908-.0968.0343-.0199c.0476-.0369.1249-.0088.1782.022.0243.014.0439.0285.0528.038l.0754.0768.075.0234.1272.0735c.0752.0434.1671.0033.2425.0399.0081.004.0156.008.0225.0119z" fill="#cb4844"/></g><g><path d="m7.49141 27.41934-.701.4073c-.1779.1035-.362.1568-.5639.1536-.1959-.0001-.3748-.0434-.531-.1336-.1561-.0901-.2316-.1936-.2323-.3071-.0004-.1136.0853-.2237.2632-.3272l.701-.4073.214.1235-.6895.4007c-.1147.0666-.1777.1367-.1891.2103-.0051.07.0355.1335.1338.1903.0983.0567.2138.0834.3346.0802.1213-.0102.2421-.0469.3568-.1136l.6895-.4007z" fill="#fff"/></g><g><path d="m8.30811 28.16384c.0176.0434-.0166.09-.097.1368-.0805.0467-.1669.0702-.2419.0669-.0865-.0033-.1846-.0401-.3061-.1103l-.2659-.1535.4481-.2605.2719.157c.1156.0667.1791.1236.1909.1636z" fill="#ee5550"/></g><g><path d="m34.96461 27.99344c.1792.1035.2666.2269.2501.3705l-.2536.0067-.047-.1536c-.0291-.0366-.0754-.0767-.139-.1134-.1215-.0701-.2486-.1035-.404-.1069-.15.0001-.288.0334-.403.1002-.1147.0667-.1779.1436-.1715.2336-.0052.0902.0471.1669.157.2304.0694.04.1326.0636.2077.0802l.2595.0234-.0048.1435c-.2592.0099-.4671-.0368-.6405-.1369-.1735-.1002-.2663-.2137-.2673-.3471-.0004-.1271.07951-.2405.2519-.3407.1664-.0967.3679-.1468.59261-.1434.23069-.0001.43839.0534.61189.1535z" fill="#fff"/></g><g><path d="m37.60172 29.54924-.17801.1034-.613-.3539-.3045.177.5494.3171-.1668.0969-.5493-.3171-.3045.1769.6303.3639-.1836.1067-.8269-.4774 1.1373-.6609z" fill="#fff"/></g><g><path d="m17.95611 30.12694c.1197-.0139.2394.0049.3525.0555-.1446-.0001-.3039-.0181-.3922.048-.1026.0042-.156.0286-.1964.065-.0831-.0145-.1549-.0212-.2182-.0184.1552-.0834.3047-.1369.4543-.1501z" fill="#cb4844"/></g><g><path d="m11.46981 29.71624-1.2467.7245-.2313-.1335.1966-.9383-.9079.5276-.2139-.1235 1.2467-.7245.2139.1235-.202.9615.9306-.5408z" fill="#fff"/></g><g><path d="m37.73451 30.61754c-.1382-.0001-.2772-.0467-.4159-.1268l-.214-.1235.7758-.4509.1966.1136c.3007.1736.3187.3306.0544.4842-.1263.0733-.2585.11-.3969.1034z" fill="#ee5550"/></g><g><path d="m11.95811 30.46404c-.074.0543-.0847.1034-.0827.1566l-.1057.1606-.4569-.2637.7427-.1703-.0602.0913c-.0131.0083-.0257.0169-.0372.0255z" fill="#ee5550"/></g><g><path d="m39.34221 30.55414-1.1373.6609-.1966-.1135 1.1373-.6609z" fill="#fff"/></g><g><path d="m20.26141 31.07834-.2241.1302-1.8653.3606-.2718-.157 1.848-.3705-.5205-.3005-.201.1169-.2255-.1302.4251-.2471z" fill="#fff"/></g><g><path d="m20.66451 32.07664c.0528.1301.0014.2471-.1594.3405-.1262.0734-.2874.1067-.4661.0967-.1903-.0099-.3692-.0601-.5311-.1536-.1677-.0968-.2491-.1969-.2669-.3071-.0179-.1035.0392-.197.1654-.2703.1608-.0935.3568-.127.5874-.0935-.0236-.1136.022-.2003.137-.2672.109-.0633.2528-.0933.4204-.0768.167.0101.3228.0535.4674.137.1388.0801.22.1736.238.2703.0233.0936-.028.1771-.137.2404-.115.0669-.2647.0935-.4551.0836zm-.673.2437c.1039.0133.1961-.0067.2709-.0502.0745-.0433.1088-.0967.0854-.1569-.0176-.0567-.0697-.1135-.1449-.1569-.081-.0467-.1734-.0734-.2772-.0868-.098-.0099-.196.0067-.2705.05-.0749.0436-.1033.1004-.0801.1604.0235.0601.0758.1101.151.1535.0694.0401.1559.0702.2654.0869m.5837-.7946c-.0923-.0068-.1729.0066-.2362.0434-.0632.0368-.0858.0833-.0743.137.0118.0533.0469.1.1221.1434.0694.04.1558.0635.248.0702.0926.0065.1729-.0067.2361-.0435.0633-.0367.0862-.0835.0743-.1369-.0062-.0566-.0523-.1035-.1217-.1436-.0752-.0434-.1505-.0666-.2483-.07" fill="#fff"/></g><g><path d="m20.26471 31.70614c-.0115-.0537.0111-.1002.0743-.137.0633-.0368.1439-.0502.2362-.0434.0978.0034.1731.0266.2483.07.0694.0401.1155.087.1217.1436.0119.0534-.011.1002-.0743.1369-.0632.0368-.1435.05-.2361.0435-.0922-.0067-.1786-.0302-.248-.0702-.0752-.0434-.1103-.0901-.1221-.1434z" fill="#ee5550"/></g><g><path d="m20.34781 32.11324c.0234.0602-.0109.1136-.0854.1569-.0748.0435-.167.0635-.2709.0502-.1095-.0167-.196-.0468-.2654-.0869-.0752-.0434-.1275-.0934-.151-.1535-.0232-.06.0052-.1168.0801-.1604.0745-.0433.1725-.0599.2705-.05.1038.0134.1962.0401.2772.0868.0752.0434.1273.1002.1449.1569z" fill="#ee5550"/></g><g><path d="m41.66651 31.86284c.1793.1035.2609.2236.2502.3705l-.2536.0067-.047-.1536c-.0292-.0366-.0754-.0767-.1448-.1168-.1157-.0668-.2428-.1001-.3983-.1035-.1557-.0033-.288.0334-.403.1002-.1147.0667-.1779.1436-.1714.2336-.0052.0901.0471.1669.157.2303.0636.0368.1326.0636.2077.0803l.2594.0234-.00481.1435c-.25919.0099-.467-.0368-.6405-.1369-.1734-.1002-.2663-.2137-.2672-.3472-.0005-.127.07951-.2404.2518-.3406.1665-.0967.368-.1468.5927-.1434.23071-.0001.43261.05.61181.1535z" fill="#fff"/></g><g><path d="m42.52411 32.65734-.2632.3941-.4163-.2404z" fill="#ee5550"/></g><g><path d="m42.85791 32.58394-.6343.9514-.2081-.1202.1427-.2169-.5725-.3306-.374.0835-.2024-.1169 1.6405-.3704zm-1.0133.2271.4163.2404.2632-.3941z" fill="#fff"/></g><g><path d="m23.43841 33.71024c.1072-.0333.1906-.1023.2606-.1481.0897-.0566.1156-.1193.1604-.1818.05.0397.0754.0846.0757.1317.0061.0635-.0397.1169-.1145.1603-.0748.0435-.1552.0635-.2589.0567-.0429-.0027-.0838-.009-.1233-.0188z" fill="#ee5550"/></g><g><path d="m24.20101 33.68584c-.0687.1001-.1832.1935-.3325.2803s-.2932.1503-.4197.1903c-.1382.0401-.2591.0635-.3742.0634-.2249.0034-.4152-.0401-.5771-.1335-.0995-.0575-.1731-.1245-.223-.1998-.0282-.0431-.0488-.0889-.0615-.1374l.3111-.0334.0256.0574.0268.0595.11.1036c.133.0768.2717.1034.4213.0901.15-.0134.2995-.0668.4488-.1536-.075.0033-.1554-.0035-.2594-.0234-.0983-.0166-.1906-.0501-.2715-.0968-.0435-.0251-.0806-.0522-.1106-.0812-.0582-.0556-.0903-.1178-.0869-.1859-.0004-.1002.0681-.1936.2118-.2771s.3046-.1235.4892-.1169c.3687.0001.894.2569.6718.5944zm-.6393.0432c.1037.0068.1841-.0132.2589-.0567.0748-.0434.1206-.0968.1145-.1603-.0003-.0471-.0257-.092-.0757-.1317-.0136-.0111-.0288-.0217-.0463-.0318-.0809-.0468-.1734-.0734-.2772-.0734-.1036-.0068-.1901.0166-.2648.0601-.0746.0433-.1147.0935-.1202.1502.0003.0601.0412.1101.1279.1602.0509.0294.1039.0505.1596.0646.0395.0098.0804.0161.1233.0188" fill="#fff"/></g><g><path d="m23.85941 33.38034c-.0448.0625-.0707.1252-.1604.1818-.07.0458-.1534.1148-.2606.1481-.0557-.0141-.1087-.0352-.1596-.0646-.0867-.0501-.1276-.1001-.1279-.1602.0055-.0567.0456-.1069.1202-.1502.0747-.0435.1612-.0669.2648-.0601.1038 0 .1963.0266.2772.0734.0175.0101.0327.0207.0463.0318z" fill="#cb4844"/></g><g><path d="m22.54971 33.77314c.0188-.0177.0369-.0351.055-.0506.0917-.0734.1034-.0869.2592-.0569l.0512.0057c.03.029.0671.0561.1106.0812.0809.0467.1732.0802.2715.0968.104.0199.1844.0267.2594.0234-.1493.0868-.2988.1402-.4488.1536-.1496.0133-.2883-.0133-.4213-.0901l-.11-.1036z" fill="#ee5550"/></g><g><path d="m43.46411 33.77234-.1186.4107-.2429-.1402.1132-.3806-.2544-.1469-.385.2237-.1966-.1136 1.1373-.6609.4279.247c.1735.1002.272.1903.2899.267.0175.077-.0454.1537-.1716.227-.1899.1103-.3855.1302-.5992.0668zm-.0933-.2203c.1098.0634.2021.0969.2769.1003.0751.0033.1442-.0168.219-.0603.0745-.0433.10889-.0833.097-.1234-.0173-.0367-.07541-.0901-.17941-.1502l-.2429-.1402-.4077.2369z" fill="#fff"/></g><g><path d="m25.09261 34.35334c-.0973.1102-.3505.197-.5288.2471-.162.0445-.3367.0855-.5073.1239-.053-.0549-.0632-.1135-.0349-.1773.0451-.0923.1409-.188.2984-.2804.0861.0204.1688.0588.2593.0568.1925-.0061.315-.0871.475.0053.0125.0072.0253.0153.0383.0246z" fill="#cb4844"/></g><g><path d="m23.68711 34.53384c-.0256.0888-.0001.1736.0767.2539-.0506.0081-.0975.0073-.146-.0207-.0034-.0019-.0066-.0041-.0102-.0062-.0924-.0602-.0471-.1803.0103-.2338.0227-.0208.0555-.038.093-.0528-.0099.0199-.018.0397-.0238.0596z" fill="#cb4844"/></g><g><path d="m25.69231 34.41354c-.0395.1368-.1771.2704-.4068.4039-.23.1337-.4599.2137-.6963.2372-.2419.0199-.461-.0269-.6577-.1404-.0708-.0409-.1268-.0829-.1677-.1265-.0768-.0803-.1023-.1651-.0767-.2539.0058-.0199.0139-.0397.0238-.0596.0568-.117.1808-.2335.3776-.3479.2297-.1335.4656-.2103.7017-.2336.236-.0233.4556.0233.6579.1401.1967.1136.2777.2406.2442.3807zm-1.1329.4441c.1612-.0268.3224-.0869.4832-.1804.1664-.0967.2696-.1902.3094-.2803.0458-.0869.005-.1704-.1165-.2405-.1271-.0734-.2656-.0934-.4213-.07-.161.0266-.3222.0801-.4886.1768-.0019.0011-.0037.0023-.0056.0034-.1575.0924-.2533.1881-.2984.2804-.0283.0638-.0181.1224.0349.1773.0219.0227.0503.0449.0875.0664.1215.0701.2658.0935.4154.0669" fill="#fff"/></g><g><path d="m26.73211 34.81414-1.4649.8514-.2371-.1369 1.2408-.7211-.3007-.1736.2241-.1302z" fill="#fff"/></g><g><path d="m41.26891 35.99264c.0641.1169-.0628.0901-.1955.0467l-.1093.0568-.058-.0869-.081-.0601-.0238-.0733-.0808-.0535-.0809-.0601.0109-.0801c-.0752-.0434-.1957.0402-.2474.0634-.083-.0472-.1308-.1144-.099-.1702-.0688.0333-.0917.0667-.0913.1134l.023.0602-.0455.0333c-.0231.0402.006.0768-.1035.0601-.3313-.2099-.1553-.0769-.5833-.1836-.1041-.0333-.1385-.0066-.2363.0034-.0457.0049-.0699.0025-.0829-.005-.031-.0179.0037-.0657-.0332-.1151-.1787-.0101-.312-.1336-.4848-.1471-.1039-.0066-.1268.0269-.1842.0669l-.1607.0867c-.1216-.0633-.1844.0536-.2706.0702l-.2477.0032c-.1039-.0133-.1329-.0767-.2253-.0834-.1213-.0032-.2245.0635-.3457.0668.0979-.0366.213-.0835.2761-.1402.1066-.096-.0109-.2763.4309-.2571.1093.0034.2074-.0067.3169.0168l.1964.0667.173-.0134c.0862-.0033.2305.0201.3109-.0133.0522-.0276.0579-.045.0403-.0551-.0431-.0249-.3389.0192-.4138-.024l.0672-.0845c-.1956-.0489-.1274-.0445-.3236-.1469-.1557-.0434-.2936.0969-.4378.0601-.0973-.0491.0153-.0925-.0352-.1336l-.2079-.0533c-.1233-.0698-.1339-.2201-.2723-.2572-.0866-.0233-.2018-.0099-.2883-.04-.081-.0267-.1214-.0701-.2023-.0901-.1387-.04-.2709.0234-.4091.0368l-.1959-.0135c-.0578-.0066-.1272-.0467-.1847-.0066-.0514.0432.0583.0867.0584.1269.0057.0409-.0605.0521-.0052.084.0633.03.1569.0136.2174.0485l.0028.1512-.1554.0232c-.348.0113.0064.0078-.7312.1705-.3227.0621-.3195.135-.6455-.0268-.0867-.0367-.3059-.0701-.4269-.0602l-.2653.0336-.1211-.0234c-.1784.0367-.0796.187-.1658.2438-.0476.0327-.1384.0407-.1899.0109-.119-.0687.0426-.119.1431-.1579.1552-.0634-.0464-.0668-.0182-.1502.0364-.0981.2115-.0606.0167-.1236l-.1272-.0601.0746-.0902c-.0811-.0266-.1442.0168-.2305.0067-.0753-.0099-.2026-.1101-.2541-.0467l.0468.0935.0812.0667c.114.1375-.3822-.157-.253.1269.0836.1768-.3766.3233-.615.344-.6395.0499-.6758-.0302-1.3212-.2237-.1037-.0335-.2252-.1102-.3461-.0601-.1553.0635-.068.1802-.0791.267-.0224.1007-.328.3302-.5055.2278l-.2773-.0341.0974-.1102-.0985-.0767c-.0318-.0498.0209-.1941-.0466-.2331-.1021-.059-.3139.1163-.3858.2297-.0683.1068.1333.1369.1052.2203-.0228.0602-.161.0735-.1721.1469-.0186.0928-.07.1134-.1119.0892-.0333-.0193-.0611-.067-.0613-.1292-.0005-.0802.0454-.167.068-.2472.0994-.3781.5987-.3759.5729-.6076-.0542.0315-.1464.0556-.2009.0241-.0879-.0974.0622-.0775.1255-.1009.0978-.0367.0511-.1167.0738-.1769.0229-.0601.1316-.1836.0564-.2404l-.3232-.0935-.098-.01-.1618-.0266c-.1095-.0235-.1499-.0201-.2652.0001-.092.0132-.2244.0433-.3226-.0001l-.0811-.0735c-.1553.0501-.27.1904-.4427.2171-.0979.0099-.1266-.0001-.2362.0301l-.1611.0467c-.0984-.0398.0072-.1113.0167-.1504l-.0181-.1168.0916-.08c.3374-.4207.33-.2957.6142-.4976-.119-.1176-.1766.0377-.2767-.0201.0381-.1003.1462-.3034.1071-.4039-.0461-.1326-.6357-.2773-.6596-.4205-.0196-.1.0757-.1101-.093-.1537-.0924-.0243-.1598-.039-.1736-.1335-.0186-.1001.1084-.2236-.0822-.2738-.1803.0995-.3384.326-.1683.4242.0933.0539.3835.0528.3892.0561.0209.0121.0051.0394-.0218.1007-.0399.0767.0814.1135.0701.1803-.0148.109-.3757.0962-.5873.0935l-.1785.0099-.1386-.0601c-.1207-.0332-.1977.057-.3103-.008l-.1401-.1055-.1785.01-.1214-.0701-.1962-.0133c-.0811-.1002.068-.1936.1137-.3005l.074-.1435.0165-.1302.1148-.1403.0393-.1369.0743-.1369.0111-.0734-.0464-.0467c-.0335-.0688.0224-.1488.0594-.2216-.0441.0697-.1421.1222-.2325.1747-.0112.0936-.1144.1871-.1311.284-.0357.2784-.2496.1347-.1827.3271l.0008.1135-.092.0802-.0397.0901c-.0167.0567.0525.1035.0412.1569-.0168.0568-.1205.05-.1549.1034.4338.2504.6817.1904.7107.2904-.3399.0836-.6155.2506-1.0075.2037-.8112.0137-.8509-.1705-1.1922.0642-.1567-.0909-.3184-.1376-.5029-.1376-.1846-.0066-.3455.0334-.4892.1169s-.2122.1769-.2118.2771c-.0034.0681.0287.1303.0869.1859-.207-.0357-.2187-.0222-.3104.0512-.0181.0155-.0362.0329-.055.0506l-.0256-.0574-.3111.0334c.0127.0485.0333.0943.0615.1374-.0175-.003-.0354-.0072-.055-.0138-.528-.1833-.6326.4469-1.6899-.1636-.3002-.1733-.0235-.244.0502-.344l.0512-.1101c.097-.177.3958-.3171.4525-.4974.0282-.0834.0452-.1603.1718-.2204.0689-.04.2471-.0967.334-.0534.0467-.0186-.0645.047.4478-.3004.1378-.1003.1079-.2638.1477-.3874.0547-.1611.561-.1639.3454-.2884-.0764-.042-.1112-.0621-.1341-.0822-.0972-.0821.0179-.2226-.0944-.2874-.098-.0497-.2823-.0431-.3746-.0765l-.1042-.0801c-1.0466-.2699-.4666-.454-.5753-.838.0163-.11.1544-.1768.2751-.247.0689-.04-.0177-.0969-.0064-.1369.8331-.4976.4268.0802.95-.1769.1556-.0034.3161-.1168.4894-.0768.5361.1113.2968-.0458.6336-.0534l.2424.0133c.2934-.07-.1168-.2672-.0021-.3204l.104.0065c.1956-.1288.2665-.1737.3505-.2103.3459.2184.4312.377.555.3273l.0859-.1036c.0745-.0634.1265-.0735.1144-.1603-.006-.0634-.0467-.1335.0795-.1801.1427.0824.0267.1382.3121.1267.1383.0001.2313.1202.4271.0802.1611-.0334.2481.0367.3978.0501l.1786-.0033.156.0366c.1671.0034.2241-.1302.3737-.1569.1438-.03.271.0569.3571-.0534-.1429-.0866-.2111-.0796-.3127-.1383-.2863-.1652.3305-.2681.4312-.3057.3832.2258.3794.0709.5539.0935l.1443.0233c.1893-.0312.0098-.1187.4086-.1035.4005.0179.7381.1129.9869.2304.112.0133.0991-.0233.1994.0346.0271.0157.0476.0344.0661.0522.02.0155.0383.0297.06.0422.0159.0092.0335.0176.0557.0246.0672.027.1668.0302.2079.0868l.0064.1235c.0122.0934.1679.1303.2204.2136.1827.2257-.0204.357-.2577.2838-.12-.0365-.1562-.1118-.2635-.1738l-.0999.1305c.0004.2705.5941.1086.7484.1978.1001.0577.0893.1426.3542.1528.3696.0145.1872-.0066.4795.1902.1331.0768.2486.1035.4503.0934.1325-.0032.1093-.03.1902.0167.0579.0334.0773.0653.1197.0898.0212.0122.0481.0227.0885.0304l.161-.06c.3895.2248.1128.321.3538.3973.2616-.114-.1554-.1431.7423-.217.1603-.0063.1721.0593.0699.1335-.0802.0667-.2069.0734-.3104.1201-.1209.0502-.1089.1303-.1836.1938-.1489.1335-.3391.1233-.5472.0567.0283.0448.0717.0908.1326.126.039.0225.0853.0406.1395.0509.1789.0299.5072-.0134.5351-.1301.094-.3924.3025-.2529.4592-.3607.0998.0562-.1404.2002-.0792.2738.0748-.0167.1378-.1135.2301-.0935.009.0794.0988.0553.1653.0937.0672.0528-.0211.0987.0631.1473.2052-.0396-.2143-.4523.6029.0195.0556.0321.0805.0822.1362.1143.1869-.0408-.0095-.1344.1229-.1912.1328.0568.2943.0635.4327.117.0404.017.087.0429.1215.0701.052.03.104.0601.1736.08.1096.0301.1614 0 .2539.0534.0265.0194.0516.0374.0812.0545.0215.0124.0454.0244.0749.0356.156.0634.3401.0234.4845.1004.2276.1298-.0603.1579.2957.3104l.2083.1c.0519.0502-.0401.0903-.0051.1303-.264.1918-1.3126-.2862-1.234-.1069.1888.0001.3382.0651.7504.2271.0243.0526-.0629.0731-.0071.1053.1001.0578.2783.0545.4062.1518-.0572.0533-.1842.02-.0916.0934.0577.0402.133.0768.1852.1202l.1445.0835c.0924.0132.0401-.03.0978-.0367.098-.0128.1834.0678.26.1302.1276.1001.1798.1836.0247.267-.0611.0356-.1489.074-.0766.1158.1063.0545.1576-.0289.2386-.0023l.0522.0702c.1001.0577.3718.2146.2718.1568.1013.0368.3499.1269.2485.0901l.115-.0199c.1626.0163.545.3386.6479.434l-.0573.0467.0753.05-.0287.0502c.0246.0779.2118.0971.3402.1712.0918.053.1517.1175.2384.1893l-.0692.0402c-.1387.0267-.0413.1036.0697.1677.0683.0395.1419.074.1683.0892.068.0392.1209.0839.1966.1135.08.035.1998.0453.1214.1036-.1363-.0222-.0752.0687.0179.0834.1162.0206.0732-.1679.3547-.0053.1132.0653.2195.1627.2573.199.1275.1336.1977.3005.2677.4473.0139.0342.003.1449.0426.1677z" fill="#cb4844"/></g><g><path d="m27.58781 35.26814c.1272.0735.1911.1569.2088.2538.0121.1002-.0451.187-.1829.2671-.0748.0434-.161.0734-.2704.0901-.1093.0167-.2651.0268-.4782.0301l-.6973.0033.665.3839-.2357.1369-1.0061-.5809.2125-.1235.8934.0034c.2017-.0034.3459-.0068.4438-.0168.1036-.0066.1786-.0301.2359-.0634.0633-.0368.086-.0768.0916-.1269-.006-.0501-.0467-.0935-.1161-.1335-.1214-.0701-.2771-.0936-.4846-.0668l-.0816-.1803c.1612-.02.3054-.0234.4322-.0033.1269.0134.2483.0567.3697.1268z" fill="#fff"/></g><g><path d="m29.77371 36.57024-.1954.1136-.7489.0266c.133.0767.1909.1636.1857.2538-.0053.0901-.0567.1669-.1717.2338-.1493.0867-.3161.1233-.5065.1134-.1787-.01-.3575-.0602-.5137-.1503-.1619-.0935-.2663-.2137-.3192-.3638l.3053-.0501c.041.1168.1163.2137.2493.2905.0867.0501.1792.0767.2772.0868.0923.0066.1788-.0102.2533-.0535.0748-.0434.1033-.0935.0858-.157-.0234-.0601-.0816-.12-.1915-.1835l-.1846-.0802.1895-.1102.7317-.0299-.532-.3072.2241-.1302z" fill="#fff"/></g><g><path d="m31.30551 38.07714c-.0187-.0128-.0383-.0256-.0597-.0379-.0751-.0435-.1616-.0735-.2598-.0901l.1938-.1127c.0354.0446.0661.0763.129.1127.015.0076.0296.0153.043.023.0682.0394.1021.0781-.0136.1005-.0116.0015-.0226.0032-.0327.0045z" fill="#cb4844"/></g><g><path d="m30.85501 37.19454-1.4053.2004.3527.2037.2703-.1571.237.1369-.0536.0312-.2166.1258.1735.1002-.2238.1301-.1735-.1002-.3678.2137-.2371-.1368.3678-.2138-.1721-.0993-.4582-.2646.2182-.1268 1.4167-.2003z" fill="#fff"/></g><g><path d="m32.19081 37.96574-.2241.1303-.6187-.3573-.168.0977-.1939.1126c.0982.0167.1847.0468.2599.0902.0214.0123.0409.025.0596.038.1022.0712.1631.1516.1783.239.0051.0441-.0026.0859-.0222.1256-.0273.056-.0799.108-.1606.1549-.1437.0835-.3108.1203-.5068.1136-.2017-.0034-.3747-.0502-.525-.137-.2024-.1169-.2897-.247-.2732-.3906l.311-.0266.006.05c.0003.02.0236.0533.0524.1036.0351.0466.0872.09.1566.1301.0694.04.1501.0668.2481.0768.104.0066.1903-.01.2707-.0568.0804-.0467.1147-.1002.097-.1635-.0177-.0568-.0756-.1169-.1681-.1703s-.2023-.0901-.3349-.1136l.0107-.1267.1371-.0797.5638-.3277z" fill="#fff"/></g><g><path d="m31.74921 39.16494c-.0396-.037-.0593-.0765-.0596-.1175-.0015-.0141 0-.0277.0029-.0405.0237.0443.0486.089.0552.134.0014.0081.0016.0161.0015.024z" fill="#cb4844"/></g><g><path d="m32.34571 38.91394c.0868.0501.1334.1034.128.1602-.0056.0636-.0454.1135-.1202.157-.0748.0434-.1553.0634-.2649.0601-.0979-.0034-.1903-.0301-.2713-.0769-.0273-.0158-.0497-.0323-.0681-.0494.0001-.0079-.0001-.0159-.0015-.024-.0066-.045-.0315-.0897-.0552-.134.011-.0449.0477-.0826.1056-.1163.0748-.0435.167-.0636.2649-.0601.1039.0066.196.0334.2827.0834z" fill="#ee5550"/></g><g><path d="m32.79641 39.07414c.0004.1003-.068.1936-.2116.2771-.1437.0835-.3051.1237-.495.1202-.1647-.0031-.3198-.0406-.4563-.1118-.0115-.006-.023-.0119-.0343-.0185-.2371-.1369-.29-.2937-.1758-.4672.0686-.1001.1775-.1903.3328-.2805.0205-.012.0409-.0233.0612-.0344.1274-.0694.2494-.1214.3584-.1559.1322-.0367.2593-.0569.3687-.0601.2245-.0032.4153.04.5772.1335.156.0901.2545.2004.2899.3339l-.3111.0334-.0524-.1169-.1103-.1034c-.133-.0768-.2713-.1036-.4213-.0902-.1495.0133-.2992.0667-.4485.1535.075-.0033.1613.0068.2595.0234.0979.0168.1906.0501.2715.0968.133.0768.19671.1671.1974.2671zm-.7078.2171c.1096.0033.1901-.0167.2649-.0601.0748-.0435.1146-.0934.1202-.157.0054-.0568-.0412-.1101-.128-.1602-.0867-.05-.1788-.0768-.2827-.0834-.0979-.0035-.1901.0166-.2649.0601-.0579.0337-.0946.0714-.1056.1163-.0029.0128-.0044.0264-.0029.0405.0003.041.02.0805.0596.1175.0184.0171.0408.0336.0681.0494.081.0468.1734.0735.2713.0769" fill="#fff"/></g><g><path d="m31.63351 39.35964c-.0725.0602-.1693.1134-.2641.162-.1204.0633-.276.0933-.4316.0967-.1153.0067-.2016.0234-.2937.0568-.1091.0367-.2245.0701-.3341.0267l-.1272-.0601-.1557-.0033.0342-.0668-.1265.0468c-.064.0093-.1082-.0015-.1414-.0207-.0386-.0223-.062-.0559-.0837-.0829-.0641-.0768-.0932-.1134-.0418-.1902.0345-.0669.1724-.1135.1201-.1903l-.0407-.0434.1034-.0869c-.0683-.0026-.1652.0155-.2144-.0129-.0131-.0076-.023-.0184-.0279-.0338-.0177-.0701.0801-.1069.0161-.1836l-.1791-.0835c-.0268-.0112-.0512-.0238-.0743-.0372-.0463-.0266-.0876-.0562-.1338-.0829-.0868-.0501-.1617-.0869-.2829-.1103-.1283-.0246-.2513-.0237-.3468-.0789-.0078-.0044-.0154-.0092-.0228-.0145l-.162-.1001-.2076-.0133c-.0281-.0079-.0509-.0171-.0686-.0273-.0803-.0464-.0574-.1127.0274-.1565.0924.0468.1842-.0601.2415-.0934.0804-.0602.1146-.1068.143-.1836.04-.0835.0741-.1302.1949-.1937l.2072-.0869-.1673-.0099.1899-.0568.185.1068c.0833.0448.1595.0718.2383.0775l.1721.0994-.3678.2137.2371.1369.3678-.2137.1735.1001.2237-.13-.1735-.1001.2166-.1259.1867.0858c.0261.0338.0617.0857.1156.1168.0416.0241.0941.0356.1619.0167.0226-.0058.0428-.014.0624-.0229l-.1371.0796-.0107.1268c.1325.0235.2424.0601.335.1136.0925.0534.1503.1136.1679.1703.0178.0633-.0165.1168-.0968.1635-.0805.0468-.1668.0634-.2707.0568-.0981-.01-.1788-.0368-.2482-.0768-.0694-.0401-.1214-.0835-.1566-.1301-.0288-.0503-.0521-.0836-.0524-.1036l-.006-.05-.311.0266c-.0164.1436.0709.2737.2732.3906.1504.0868.3233.1336.5251.137.1959.0067.363-.0301.5067-.1136.0807-.0469.1333-.0989.1607-.155.2104.0298.3706-.2092.5458-.269.0728.0417-.0633.1851-.0911.2338-.0274.0563-.0613.1043-.099.1525-.0203.0111-.0407.0224-.0612.0344-.1553.0902-.2642.1804-.3328.2805-.1142.1735-.0613.3303.1758.4672.0113.0066.0228.0125.0343.0185z" fill="#cb4844"/></g><g><path d="m48.64411 33.49524c.4684.2705.4767.7078.0114.9783l-16.264 9.4516c-.4654.2704-1.2204.267-1.6888-.0034l-29.2885-16.9098c-.4684-.2704-.471-.7044-.0056-.9748l16.264-9.4516c.4653-.2705 1.2146-.2704 1.683 0zm-31.8728-3.0876c.033.0191.064.0395.0917.0598-.1199.1703-.0671.3271.17.4639.1445.0835.3118.127.4963.1336.1842.0001.3513-.0366.495-.1202.1437-.0834.2121-.1768.2117-.2771-.0065-.1034-.0702-.1936-.2032-.2704-.0752-.0434-.1679-.0767-.2657-.0935-.0067-.0447.0467-.0691.1493-.0733.0883-.0661.2476-.0481.3922-.048.0234.0103.0462.0216.0688.0346l.1044.1001.0583.1203.3053-.0368c-.0273-.1202-.1142-.223-.2497-.3092.0309-.045.019-.0988-.0409-.145-.0696-.06-.0755-.0566-.0585-.1334-.0003-.0452-.0088-.0664-.0567-.0941-.1083-.0572-.1864-.0653-.235-.0934-.099-.0572-.0072-.1653-.0855-.2498-.0678-.0724-.123-.0439-.2365-.0635l.1034-.0534c-.0513-.1095-.2622-.0113-.3176-.0434.0803-.0867.1555-.0433.2765-.0735l.1034-.0667-.0003-.0467.0517-.0435c.0455-.0733-.0411-.1302-.076-.197-.0236-.0533-.041-.1034-.0987-.1436-.1694-.1398-.0565-.1098-.0651-.2502l-.0469-.147c-.0832-.1004-.2292-.1724-.3412-.2371l-.0524-.0902c-.0117-.0121-.0245-.0221-.0385-.0302-.0353-.0204-.0778-.0293-.1233-.0365-.0399-.0115-.0839-.0206-.1138-.0379-.05-.0371-.0788-.0701-.1191-.0934-.0358-.0206-.0807-.0336-.1485-.0289l-.1553.0367c-.1104-.0616-.1311-.0646-.1616-.0468l-.0177-.0567-.0349-.0534-.0407-.0433-.0576-.0135-.098-.0233-.0468-.0935-.0235-.1002.1724-.0734.0748-.0435.0918-.0734-.0292-.0635c-.3643-.2044-.3016-.1862-.0995-.2503l.1212.0033.0918-.0734.1093-.0033.0287-.0434-.0811-.0534-.1849-.0601-.0629.0366-.0691.0067-.0575.0267-.1155-.0266-.0983-.0434-.052-.0368-.0693-.0133-.0519-.0234.0461-.0201-.0814-.0935c.0401-.0299.1266-.0266.0916-.08l-.0004-.0801.1035-.0803.1265-.0534.1439-.0233c.2121-.1683.2277-.0666.3281-.0768l.0747-.0099.0865.0033c.1001.0578.3025.1747.2024.1169l.0408.0499.0752.0568.0691.0001.1271.0333.0578.0334.0925.0401.029.05c.1002.0537.1375.0513.1449.1168l-.0229.0669-.0917.0667-.0285.0702c.0001.0202-.0294.0963.0017.1142l.2059-.0876.0631-.0968.1317-.1168c.115-.0535.3516.0168.4845.0267l.2188-.0066.1551-.0835.1322-.1103.0687-.0198-.0226.0533c-.0332.0263-.0409.0472-.0289.0542.0108.0062.0373.0012.0753-.0209l.0746-.0367.0523.0501.1551-.0567c.0847.0489.1371.133.2372.1235l.0975-.0433.0694.04.092-.087c.1018-.0857.2072.0067.3115.0401l.2133.03-.138.0803.1847.0333.1445.0567c.1157.0668.2253.0969.3573.0001l-.1499-.02-.0869-.0433-.0981-.0234-.0295-.0968.0636-.0302c.0111-.0333-.0869-.0433.0108-.08.0637.0165.1158.0733.1847.0199l-.0815-.1268c-.0919-.0563-.185-.0425-.2826-.0635.1942-.0031.4105.037.5502.1176.2842.1659 1.074.3273.8396.0594l-.0348-.0869.0456-.06-.0235-.1002.0397-.0901.0621-.2437.0457-.0735.0285-.0768c-.0923-.0334-.2129.0902-.3283.0701l-.2544-.1469.1779-.1167-.035-.0802-.0234-.1002-.0063-.0968-.1217-.0767-.1156-.0668-.11-.0902-.2757.1535c-.1093.0502-.2246.0635-.2527.1603-.0226.0668-.0108.1335-.1085.1836-.08.0387-.1058.0122-.1847-.0333l-.1498.0067c-.1149.0466-.1489.1736-.2755.2002l-.133-.0566c-.0713-.1003.1001-.1778.2003-.2639.1257-.0822.02-.1152-.1513-.2469-.0857-.1049.0262-.1929-.1504-.2949-.1087-.048-.1729-.0342-.14-.0857.0758-.0771.1649-.0779.0164-.1637-.1814-.1047.3321-.0817.4375-.0867l.1786-.0569c.1496-.0132.1962.0602.3175.0768.0807.0134.1726-.0401.2592-.01l-.1035.0602c.0267.0485.1132.0054.1674.0366l.0466.0667.1095.0369c.1078.0339.098.0764.1853.1268.017-.0635-.0814-.1336-.0647-.1969l.1094-.077.1038.0402.1096.0033c.1041-.0259.1785-.3494.4889-.1702.0752.0434.0579.0601.0699.1201.0063.0701.0637.0903.1334.1435l.0466.0734.0178.1237-.0915.1068-.2076-.0133-.0977.0768c-.1001-.0555-.3832-.2125-.2831-.157l-.1558.0101c-.0181.0177-.0112.0307.0071.0413.0337.0194.1058.0303.1319.0454.3692.1605.1834.2039.2611.3039l.0464.0466.0003.0869c.0149.0425.0755.1064.1358.1412.1588-.031-.0555-.2213.0193-.2246l.1514.2203.1034-.0401.1551-.1035c.0109-.08-.0646-.1702.0449-.2338.1376.077.0586.1896.1395.2673l.121-.0435c.0875.0505.0962.1031.2022.1103.0804-.0468.0346-.0469-.0119-.0936l-.0239-.1135c.0288-.0501.0747-.05.0342-.1001l-.1502-.0669c-.1389-.0867.1033-.0934.1546-.1501l-.0407-.1036-.0009-.1067c.0045-.0339-.0225-.0535-.0537-.0715-.1566-.0893-.0644-.0709-.1213-.3426l-.1156-.0802-.0064-.0967-.1389-.0868-.0633.0501-.035-.0667-.1387-.0869-.1788-.0301-.1378.1203-.1324.0033.0399-.0969c.0858-.0833.1665-.0833.2873-.1201-.0645-.1641-.54-.1712-.5585.0701-.0052.0901.0644.1769.0186.2638-.0494.0968-.2831.189-.4055.1184-.0809-.0468.05-.1348.0595-.1853.0093-.0854-.0823-.0682-.1333-.1369-.0755-.1035.1547-.1703.2175-.247.179-.2293.2002-.0879.4202-.1102l.0803-.0533c.0657-.0128-.0051-.0361.6011.3139.3754.182.3529.0944.5134.0298.1208-.0501.2533-.0267.3799-.0532.1208-.0234.2419-.0669.3686-.0736.3049-.0118 2.1947.4858 1.3665.0835-.1414-.0645-1.6421-.9962-3.1308-1.222-.0585-.0088-.1155-.0175-.17-.0284l.1233-.0717.1319-.0767.9195-.5343.1321-.0768.2528-.1469c.1951-.1134.1998-.297-.0025-.4138l-2.1627-1.2487-.1331-.0768-2.1626-1.2486c-.2024-.1169-.5194-.1135-.7145-.0001l-2.7406 1.5926c-.461.2679.1614.4648.2614.5634-.0699-.008-.1395-.0316-.1837-.086-.1322.0635.0528.1436.0533.2236-.0118.091-.0977.2236-.132.1236l.0228-.0534-.081-.0467-.231-.0734c-.196-.0269-.1722.1067-.0913.1669.2061.1443.2617.1195.3641.1635l-.1031.1001c-.1937.0463-.3682-.2471-.6226-.02-.0919.0802.0529.1702.0706.2403.0002.0334-.0345.0268.0119.0668l.1211.0502c.0734.042.0503.1117-.0105.1535-.0862.0702-.2073.0468-.3284.0635-.1131.0142-.1758.0577-.2782.0785.0702-.0029.1182.0263.1925.0317l.1902-.0235c.1267-.02.236-.0233.3686-.0132.2308.0199.4844.0132.6981.09.3144.1174.7043.3063.7297.6076-.0056.0769.1618.1002.1393.1736-.0228.0601-.1607.1336-.2124.1905l.1502.0466-.0804.0467.1329.0702-.109.0768c-.0259.4272-.0211.338-.0208.3805.0004.0735.1911.1703.0704.2338l-.1214-.0635c-.1739.0383.0249.0592-.5111.3707-.3891.2261-.1754.3791-.3539.5875-.0716.0803-.1274.1265-.0084.1953.2665-.0463-.1588.1215-.0914.479.2188-.0199.1775-.1969.3153-.2636.0592.169-.1109.3468-.1704.4473-.063.0568-.0343.0267.0063.0834.0451.0838-.1573.1428-.0412.2099.1.05.1639.0406.1234.0907l-.1206.0567-.0397.0901.0406.0434.0119.0935.0238.0935c.0218.0176.1593.127.1836.1411.0632.0364.1361.054.1778.0781.1756.1013.1312.275.1951.3751l.012.1001.0236.0868-.0111.0869.047.1134.0177.1103.0756.0833c.0736.1293.1202.0393.2308.0534l.0461.0469c.0065.0633-.1144.1202-.1834.1603l-.132.0967-.0749-.0101-.1094.0167-.115.0535-.1272-.0869c-.0579-.0334-.1673.0302-.1957.0669l-.0284.0768-.1152.0335-.1609.0934.0583.1001c-.3057.4298-.1125.2751-.3087.4273-.0747.0568.0006.1336.0125.2004l.0353.1269c.183.2429-.2902.3209-1.0454.6343-.2823.1093-.1108.1465-.489.1636l-.1841.0601c-.1151.0534-.1434.1302-.27.1836-.1378.0533-.2759.08-.3907.1535l-.1437.0969c-.0396.0168-.071.0203-.1009.0211l.0315-.0479-.2255-.1302-1.8018.4041.2255.1301.4086-.09.6303.3639-.1542.2369.2256.1303.137-.2072c.0259.0304.0621.0596.1065.0853.0535.0309.1178.0565.1855.0735l-.2556.1485.214.1236.9768-.5677-.4341.7547.1214.0701 1.3073-.2506-.9768.5677.2139.1235 1.2467-.7245-.3296-.1903-1.163.2338.3997-.6745-.3296-.1903-.7801.4534c-.1393-.101-.2136-.1992-.0206-.3365.1611-.1136.4786.0167.5819-.1036.0284-.0366-.0639-.0834-.0006-.1202.0342-.0199.0515-.0099.0747.0035.2537-.0001.2937-.0569.4662-.1302l.1554-.0569c.1514-.0123.0971.1069.2539.0802l.1323-.0702c.2603.2746.5875.2033.8413-.0267.0632.0297.0622.0507.0579.0735.0339.1302.2359.0579.4096.0433.2189-.0199.4609-.0199.6682-.0667.167-.0367.3104-.1468.5008-.1235.0923.0099.1919.0509.278.1005m24.3021 5.6317c.1327.0434.2596.0702.1955-.0467l-.1218-.1837c-.0845-.0187-.0736-.1294-.0875-.1636-.1339-.2808-.213-.4662-.525-.6463-.2988-.1725-.2222.0288-.3547.0053-.0931-.0147-.15419-.1056-.0179-.0834.0784-.0583-.0414-.0686-.1214-.1036-.0757-.0296-.1286-.0743-.1966-.1135-.0264-.0152-.1-.0497-.1683-.0892-.111-.0641-.2084-.141-.0697-.1677l.0692-.0402c-.4509-.3732-.5368-.2283-.5786-.3605l.0287-.0502-.0753-.05.0573-.0467c-.2638-.2462-.5326-.4224-.6479-.434l-.115.0199c-.1013-.0367-.3499-.1268-.2485-.0901-.1001-.0577-.3718-.2146-.2718-.1568l-.0522-.0702c-.081-.0266-.1323.0568-.2304.0067-.0805-.0462.0073-.0846.0684-.1202.1551-.0834.1029-.1669-.0247-.267-.0318-.0259-.0763-.0671-.1272-.0965-.0412-.0237-.0864-.0398-.1328-.0337-.0577.0067-.0054.0499-.0978.0367-.5501-.3306-.339-.2031-.2381-.2971-.1122-.0853-.2169-.0846-.3521-.1303-.1605-.0495-.008-.0424-.047-.1268-.2648-.104-.5263-.227-.7504-.2271-.0766-.1748.9692.2993 1.234.1069-.035-.04.057-.0801.0051-.1303l-.2083-.1c-.3453-.1479-.1012-.1989-.2798-.302-.1603-.0854-.3444-.0454-.5004-.1088-.0295-.0112-.0534-.0232-.0749-.0356-.0296-.0171-.0547-.0351-.0812-.0545-.0925-.0534-.1443-.0233-.2539-.0534-.1108-.0317-.1473-.0698-.23-.1176-.152-.0878-.3385-.0813-.4978-.1495-.1324.0568.064.1504-.0969.2037-.0817-.0446-.1066-.0947-.1622-.1268-.8175-.472-.406-.0627-.5763-.0068-.1554-.0861.0572-.1103-.1567-.1835-.0486-.0069-.0927-.0212-.0983-.0702-.0923-.02-.1553.0768-.2301.0935-.0612-.0736.179-.2176.0922-.2677-.1888.0926-.3825-.0199-.4722.3546-.0279.1167-.3562.16-.5351.1301-.0542-.0103-.1005-.0284-.1395-.0509-.0609-.0352-.1043-.0812-.1326-.126.5845.1872.5498-.1754.7308-.2505.1001-.0452.4995-.1539.3549-.2374-.067-.0387-.3152.0246-.4542.0071-.3296-.0378-.2052.1078-.4025.1937-.2431-.077.0463-.1663-.3538-.3973l-.161.06c-.0404-.0077-.0673-.0182-.0885-.0304-.0424-.0245-.0618-.0564-.1197-.0898-.0809-.0467-.0577-.0199-.1902-.0167-.442.022-.4962-.1622-.6462-.2488-.1907-.0735-.3115.0094-.5086-.0849-.0761-.044-.0858-.0977-.1791-.1237-.1009-.0303-.6982.0612-.6985-.1768l.0741-.1436c.1439.0789.1667.1496.2893.1869.0978.0302.2707.0101.3165-.0566.1248-.1946-.2649-.3312-.2792-.4408l-.0064-.1235c-.0438-.0602-.1878-.0676-.2636-.1114-.1899-.1096-.0045-.0907-.3255-.129l-.1271-.0467c-.3867-.1672-.2729-.0394-.5198-.1535-.1-.0488-.4996-.0461-.5475-.0302-.0748.0234-.1208.0903-.2011.1035l-.1443-.0233c-.173-.0224-.1772.1251-.528-.0774-.187.044-.4521.0372-.5092.1642-.0721.1365.1953.164.3398.2474-.0611.1266-.1883.0397-.3321.0697-.1496.0267-.2066.1603-.3737.1569l-.156-.0366-.1786.0033c-.1497-.0134-.2367-.0835-.3978-.0501-.1958.04-.2888-.0801-.4271-.0802-.0866.0035-.0457.0535-.1556.0034-.0963-.052-.064-.0767-.1565-.1301-.1968.0727.036.1449-.1939.3404l-.0859.1036c-.1238.0497-.2058-.1069-.555-.3273-.084.0366-.1575.0832-.3505.2103l-.104-.0065c-.1147.0532.2955.2504.0021.3204l-.2424-.0133c-.3686.0083-.0949.1652-.6336.0534-.1733-.04-.3338.0734-.4894.0768-.0746.0367-.0976.0902-.1957.0802l-.2023-.1035c-.1728-.0583-.3301.0676-.552.2002-.0113.04.0753.0969.0064.1369-.1207.0702-.2588.137-.2751.247.1118.3791-.4732.5676.5753.838l.1042.0801c.0923.0334.2766.0268.3693.0735.1176.0678.0025.2083.0997.2904.1.0876.2891.1197.0933.207-.144.0635-.2649.0467-.3046.1636-.0398.1236-.0099.2871-.1477.3874-.069.0468-.1609.08-.2185.1269-.0745.0567-.12.13-.2293.1735-.0869-.0433-.2651.0134-.334.0534-.1266.0601-.1436.137-.1718.2204-.0567.1803-.3555.3204-.4525.4974l-.0512.1101c-.0345.0469-.115.0803-.155.1304-.1191.1504.5134.6487 1.4144.4173l.1666-.0767c.1097-.0303.1271.0065.2137.0366.0196.0066.0375.0108.055.0138.0499.0753.1235.1423.223.1998.1619.0934.3522.1369.5771.1335.1151.0001.236-.0233.3742-.0634.1265-.04.2704-.1035.4197-.1903s.2638-.1802.3325-.2803c.1131-.1719.0569-.3242-.1689-.4568.344-.2365.4078-.0509 1.1922-.0642.392.0469.6676-.1201 1.0075-.2037-.0306-.1055-.3031-.0551-.7107-.2904.0344-.0534.1381-.0466.1549-.1034.0113-.0534-.0579-.1002-.0412-.1569l.0397-.0901.092-.0802-.0008-.1135c-.0627-.1802.1489-.0631.1827-.3271.0167-.0969.1199-.1904.1311-.284.0904-.0525.1884-.105.2325-.1747-.037.0728-.0929.1528-.0594.2216l.0464.0467-.0111.0734-.0743.1369-.0393.1369-.1148.1403-.0165.1302-.074.1435c-.0457.1069-.1948.2003-.1137.3005l.1962.0133.1214.0701.1785-.01.1044.0801c.1483.0904.2253.0002.346.0334l.1386.0601c.1001-.0039.4342-.0172.3341-.0132.7532-.0182.297-.1463.3616-.2705.0995-.2268-.1153-.0113-.3674-.1568-.1701-.0982-.012-.3247.1683-.4242.2916.0768-.1369.304.2558.4073.2492.0644-.1291.0651.3363.3338.1228.0709.3815.1402.4163.2404.0389.1-.0691.3038-.1071.4039.1.0578.1586-.0966.2767.0201-.2916.2072-.2751.0747-.6142.4976l-.0916.08.0181.1168c-.0095.0391-.1151.1106-.0658.1391l.2102-.0354c.1096-.0302.1383-.0202.2362-.0301.1727-.0267.2874-.167.4427-.2171l.0811.0735c.0982.0434.2306.0133.3226.0001.1153-.0202.1557-.0236.2652-.0001l.1618.0266.098.01.3232.0935c.0752.0568-.0335.1803-.0564.2404-.0227.0602.024.1402-.0738.1769-.0633.0234-.2134.0035-.1494.0802.0784.0522.1706.0281.2248-.0034.0243.2184-.48.2541-.5729.6076-.0226.0802-.0685.167-.068.2472.0002.0622.028.1099.0613.1292.0419.0242.0933.0036.1119-.0892.0111-.0734.1493-.0867.1721-.1469.0281-.0834-.1735-.1135-.1052-.2203.0707-.1116.2841-.2884.3858-.2297.0675.039.0148.1833.0466.2331l.0985.0767-.0974.1102.1727-.0266c.1294.075.1569.0877.2023.09.1731-.0001.3907-.1802.4078-.2571.0111-.0868-.0762-.2035.0791-.267.1209-.0501.2424.0266.3461.0601.2318.0695.5189.1756.716.2137.501.0914 1.3374-.0861 1.2202-.334-.1247-.274.3657.0091.253-.1269l-.0812-.0667-.0468-.0935c.0515-.0634.1788.0368.2541.0467.0863.0101.1494-.0333.2305-.0067l-.0746.0902.1272.0601c.1948.0631.0197.0255-.0167.1236-.0282.0834.1734.0868.0182.1502-.1005.0389-.2621.0892-.1431.1579.0515.0298.1423.0218.1899-.0109.0862-.0568-.0126-.2071.1658-.2438l.1211.0234.2653-.0336c.396-.0326.5022.1508.7097.157.0567.0037.7126-.1261.823-.1902.0747-.0501.1612-.0467.2709-.0503l.1554-.0232.0163-.1368c-.0796-.0493-.1732-.0329-.2248-.0569-.067-.0379-.0008-.0491-.0065-.09-.0001-.0402-.1098-.0837-.0584-.1269.0575-.0401.1269 0 .1847.0066l.1959.0135c.1382-.0134.2704-.0768.4091-.0368.0809.02.1213.0634.2023.0901.2087.0726.2758-.0587.4447.177.1251.186.1373.0894.3238.1735.0505.0411-.0621.0845-.0018.1193.1812.0511.3191-.0892.4748-.0458.2093.1092.1209.0963.3236.1469l-.0917.0667c.1001.0617.4135.0274.4383.0418.0176.0101.0119.0275-.0403.0551-.0804.0334-.2247.01-.3109.0133l-.173.0134-.1964-.0667c-.1006-.0216-.5426-.0515-.6395.05-.1264.1139.0605.1638-.3844.3305.1212-.0033.2244-.07.3457-.0668.0924.0067.1214.0701.2253.0834l.2477-.0032c.0862-.0166.149-.1335.2706-.0702l.1607-.0867c.0574-.04.0803-.0735.1842-.0669.1728.0135.3061.137.4848.1471.0696.0932-.0444.1374.1161.1201.2098-.0215.6458.0579.675.0747l.1446.1055c.1095.0167.0804-.0199.1035-.0601l.0455-.0333-.023-.0602c-.0004-.0467.0225-.0801.0913-.1134-.0318.0558.016.123.0831.1618.0676-.0148.1881-.0984.2633-.055l-.0109.0801.0809.0601.0808.0535.0238.0733.081.0601.058.0869zm-16.2141-9.3279c.1053-.0105-.1032-.0228 1.114.2972l.121-.0436.1723-.1001c.1-.0581.056-.2192.2702-.1369.1441.0436.1843.0336.3053-.0233.1091-.0501.357-.0333.368-.1469.0053-.05-.0815-.1001-.0528-.1569.0513-.1002.2106-.0838.3107-.0935l.1321-.0567.1906.0501c.0981.0166.2076.0066.3115.0333.0693.0133.3174.0969.3519.0367-.6209-.4621-1.3525-.4184-1.0696-.5575l.0749-.0301c-.7513-.4324-.5085-.2901-.5667-.3272.1547-.0469.5983.2923.9471.354-.0132-.08-.1662-.1002-.1967-.1537l-.0061-.0634-.0409-.0767c-.5693-.3287-1.1349-.7607-1.6703-.8381-.0979.0436.0694.0936-.0339.1336-.1242-.0144-.1946-.1044-.2949-.1702-.0752-.0301-.1323.05-.2307 0-.0045-.0023-.009-.0045-.0131-.0068-.0904-.0522-.0247-.1497-.0804-.2135-.1171-.1142-.3555-.2051-.5201-.2805-.1037.0401-.0459.0735.0121.1134.0519.0369.0929.1136-.0512.1102-.1021-.0064-.1789-.0628-.2602-.1234-.038-.0293-.0737-.0581-.1101-.0792-.0635-.0366-.1293-.0497-.2131-.001-.0229.0535.1981.1278.2487.157-.0571.0533-.2069.0599-.2821.0299l-.0752-.0434-.1039.0069c-.1002-.0731-.1772-.1305-.2033-.1456-.0299-.0172-.0613-.026-.1088-.0281l-.0749.0033-.098-.01c-.1382.04.0817.1869.1338.217-.0864.0234-.2773-.1136-.3171-.0301l.1099.117.0638.0567.0062.07c.0103.0099.023.019.0378.0275.1006.0581.3302.1534.4302.1897.0984.0329.1395.0823.1682.1634.041.1303-.033.2738-.1595.3807-.0799.0733-.3788.2337-.2458.3372-.0975.0835-.2875.1001-.3851.1903l-.0857.0968c-.0805.0601-.2012.1236-.2526.1936-.0127.4031-.0428.3956.0374.4419.0067.0039.0144.0079.0229.0121l.0982.0434.0173.0569.0869.0567c.2336.1348.294-.0648.4029-.1068l.1672.0033c.092-.0133.1435-.0901.2416-.0735l.1215.0567c.2966.0331.1954.0063.3116.0735l.2192.0468zm7.2305 12.76c.1899.0035.3513-.0367.495-.1202.1436-.0835.212-.1768.2116-.2771-.00069-.1-.0644-.1903-.1974-.2671-.0809-.0467-.1736-.08-.2715-.0968-.0982-.0166-.1845-.0267-.2595-.0234.1493-.0868.299-.1402.4485-.1535.15-.0134.2883.0134.4213.0902l.1103.1034.0524.1169.3111-.0334c-.0354-.1335-.1339-.2438-.2899-.3339-.1619-.0935-.3527-.1367-.5772-.1335-.1094.0032-.2365.0234-.3687.0601-.109.0345-.231.0865-.3584.1559.0377-.0482.0716-.0962.099-.1525.0278-.0487.1639-.1921.0971-.2307-.1812.0567-.3414.2957-.5518.2659.0195-.0396.0272-.0814.0221-.1254-.0152-.0876-.0761-.1678-.1783-.2392.0101-.0013.0211-.003.0327-.0045.1157-.0224.0818-.0611.0136-.1005-.0134-.0077-.028-.0154-.043-.023-.0629-.0364-.0936-.0681-.129-.1127l.1681-.0976.6187.3571.224-.1302-.8442-.4874-.5638.3277c-.0196.0089-.0398.0171-.0624.0229-.0678.0189-.1203.0074-.1619-.0167-.0539-.0311-.0895-.083-.1156-.1168l-.1867-.0858.0537-.0312-.2371-.1369-.2703.1571-.3528-.2037 1.4054-.2004-.2717-.1568-1.4168.2002-.2181.1268.4582.2645c-.0788-.0057-.155-.0327-.2383-.0775l-.185-.1068-.1899.0568.1673.0099-.2072.0869c-.1208.0635-.1549.1102-.1949.1937-.0284.0768-.0626.1234-.143.1836-.0573.0333-.1491.1402-.2415.0934-.0848.0438-.1077.1101-.0274.1565.0177.0102.0405.0194.0686.0273l.2076.0133.162.1001c.0074.0053.015.0101.0228.0145.0955.0552.2185.0543.3468.0789.1212.0234.1961.0602.2829.1103.0462.0267.0875.0563.1338.0829.0231.0134.0475.026.0743.0372l.1791.0835c.064.0767-.0338.1135-.0161.1836.0049.0154.0148.0262.0279.0338.0492.0284.1461.0103.2144.0129l-.1034.0869.0407.0434c.0523.0768-.0856.1234-.1201.1903-.0514.0768-.0223.1134.0418.1902.0217.027.0451.0606.0837.0829.0332.0192.0774.03.1414.0207l.1265-.0468-.0342.0668.1557.0033.1272.0601c.1096.0434.225.01.3341-.0267.0921-.0334.1784-.0501.2937-.0568.1556-.0034.3112-.0334.4316-.0967.0948-.0486.1916-.1018.2641-.162.1365.0712.2916.1087.4563.1118m-7.5006-4.4168c.2364-.0235.4663-.1035.6963-.2372.2297-.1335.3673-.2671.4068-.4039.0335-.1401-.0475-.2671-.2442-.3807-.2023-.1168-.4219-.1634-.6579-.1401-.2361.0233-.472.1001-.7017.2336-.1968.1144-.3208.2309-.3776.3479-.0375.0148-.0703.032-.093.0528-.0574.0535-.1027.1736-.0103.2338.0036.0021.0068.0043.0102.0062.0485.028.0954.0288.146.0207.0409.0436.0969.0856.1677.1265.1967.1135.4158.1603.6577.1404m-15.4163-8.9006c-.0394.1368.0421.2636.2445.3804.2024.1169.4215.1637.6576.1404.2364-.0235.472-.1002.702-.2338.2297-.1335.3617-.2704.4011-.4072.0393-.1368-.0417-.2638-.2441-.3807-.2024-.1168-.422-.1634-.6581-.1402-.236.0233-.4719.1002-.7016.2337-.23.1336-.3616.2704-.4014.4074m10.8661 6.3598c.1787.01.3399-.0233.4661-.0967.1608-.0934.2122-.2104.1594-.3405.1904.0099.3401-.0167.4551-.0836.109-.0633.1603-.1468.137-.2404-.018-.0967-.0992-.1902-.238-.2703-.1446-.0835-.3004-.1269-.4674-.137-.1676-.0165-.3114.0135-.4204.0768-.115.0669-.1606.1536-.137.2672-.2306-.0335-.4266 0-.5874.0935-.1262.0733-.1833.1668-.1654.2703.0178.1102.0992.2103.2669.3071.1619.0935.3408.1437.5311.1536m-7.7147-4.5938-.6708-.3873.6973-.0033c.2131-.0033.3747-.01.4782-.03.1095-.0167.2014-.0434.2762-.0869.1378-.08.195-.1669.1828-.267-.0176-.0969-.0873-.1837-.2087-.2538s-.2485-.1168-.3755-.1301c-.1267-.0201-.2709-.0168-.4321.0032l.0815.1803c.2075-.0267.369 0 .4847.0668.0694.0401.1101.0834.116.1335.0002.0535-.0225.0935-.0858.1303-.0573.0333-.1381.0535-.2359.0634-.1036.0066-.2478.01-.4496.0134h-.8876l-.2125.1235 1.0062.5809zm14.2728 8.5133.2356-.1369-.6649-.3839.6972-.0033c.2131-.0033.3689-.0134.4782-.0301.1094-.0167.1956-.0467.2704-.0901.1378-.0801.1951-.1669.1828-.2671-.0176-.0969-.0815-.1803-.2087-.2538-.1215-.0701-.2428-.1134-.3697-.1268-.1268-.0201-.271-.0167-.4321.0033l.0816.1803c.2075-.0267.3631-.0033.4845.0667.0694.0401.1101.0835.1161.1335-.0056.0502-.0283.0902-.0916.127-.0573.0333-.1324.0568-.236.0634-.0978.01-.242.0134-.4437.0168l-.8934-.0034-.2125.1235zm-6.5599-5.2248.2241-.1302-1.0351-.5976-.4251.2471.2255.1302.2011-.1169.5203.3005-1.8479.3705.2718.1569zm8.2996 6.1029c.1904.0099.3572-.0266.5065-.1134.115-.0669.1665-.1437.1716-.2338.0053-.0902-.0526-.1771-.1856-.2539l.7489-.0265.1954-.1135-.8616-.4975-.2241.1302.532.3072-.7317.03-.1895.1101.1847.0802c.1098.0635.168.1234.1915.1835.0173.0635-.011.1136-.0859.1571-.0744.0432-.1611.06-.2533.0534-.098-.0101-.1905-.0367-.2772-.0868-.133-.0767-.2083-.1737-.2492-.2905l-.3054.0501c.053.1501.1574.2703.3193.3638.1561.0901.335.1403.5136.1503m-15.0866-8.7102c.1904.0099.3513-.0301.5006-.1169.115-.0668.1723-.1403.1775-.2304.0053-.0901-.0584-.1804-.1914-.2572l.7547-.0232.1954-.1135-.8617-.4975-.2241.1302.532.3072-.7317.03-.1895.1101.1789.0769c.1099.0634.1739.1268.1973.1868.0116.0602-.0109.1136-.0858.1571-.0744.0432-.1611.0601-.2591.05-.0922-.0067-.1847-.0333-.2715-.0834-.133-.0768-.214-.177-.255-.2939l-.2996.0535c.053.1501.1574.2703.3136.3605.1619.0934.3349.1402.5194.1537m-3.0272 1.8395 1.2467-.7245-.2139-.1235-.9307.5409.2021-.9616-.214-.1235-1.2467.7245.214.1235.9078-.5276-.1965.9383zm32.4268 2.0231-1.6405.3704.2024.1169.374-.0835.5725.3306-.1427.2169.2081.1202.6343-.9514zm-35.8594-4.6371.701-.4074-.214-.1236-.6895.4007c-.1146.0666-.2355.1034-.3568.1136-.1208.0032-.2364-.0234-.3347-.0802-.0982-.0567-.1388-.1203-.1337-.1902.0114-.0737.0745-.1438.1892-.2104l.6894-.4007-.214-.1236-.701.4074c-.178.1035-.2636.2136-.2633.3272.0008.1135.0763.217.2324.3071.1561.0902.3351.1335.531.1336.202.0032.386-.0501.564-.1535m.5818.9681.266.1536.1242-.454c.2368.0767.4557.05.6626-.0703.1378-.08.2007-.1635.1831-.2471-.0121-.0867-.1221-.1835-.313-.2937l-.4683-.2704-1.2468.7245.2082.1202.4194-.2438.2834.1636zm-2.4754-1.5291c.1499.0067.2763-.02.3857-.0835.1092-.0635.1607-.1269.1486-.2002-.006-.0703-.0584-.1537-.1569-.2437-.0986-.0902-.1566-.1569-.1681-.1971l.0569-.1001.1728-.0334c.0635.0099.1327.0301.1905.0634.0636.0367.1158.0801.1563.1303.0409.0499.0638.0968.07.1335l.2708-.0234c-.0061-.0635-.0413-.1235-.0933-.187-.0523-.0566-.1157-.1135-.1967-.1603-.1273-.0734-.2659-.1134-.4102-.1234-.1497-.0135-.2765.0133-.3915.0801-.1148.0667-.1664.137-.1486.2136l.0525.1169c.0291.0368.0754.0902.1508.1536.0695.0668.1161.1201.1218.157l-.0568.1-.1729.0335c-.0691-.0067-.1441-.0302-.2135-.0702-.133-.0768-.2087-.1869-.2268-.3238l-.2939.0167c.0183.1636.1228.3038.3194.4173.1389.0802.2775.1201.4331.1302m36.1579 4.4435c-.2248-.0033-.4263.0468-.5928.1436-.1723.1001-.2523.2135-.2517.3405.0008.1335.0937.247.2671.3472.1735.1001.3814.1468.6405.1369l.00491-.1435-.2594-.0234c-.0752-.0167-.1442-.0435-.2078-.0802-.1099-.0635-.1622-.1403-.1571-.2304-.0064-.09.0569-.167.1715-.2336.1151-.0669.2473-.1035.403-.1003.1556.0035.2826.0369.3982.1036.0694.0401.1158.0802.1449.1168l.047.1536.2536-.0067c.0107-.147-.0709-.267-.2501-.3705-.17931-.1035-.38131-.1536-.61181-.1536m-6.702-3.8694c-.2248-.0033-.4263.0468-.5928.1435-.1723.1002-.2522.2136-.2518.3406.001.1335.0938.2471.2673.3472.1735.1002.3813.1468.6405.1369l.00481-.1435-.2594-.0234c-.0752-.0166-.1385-.0402-.2078-.0802-.1099-.0635-.1622-.1403-.157-.2304-.0064-.09.0568-.1669.1715-.2336.115-.0668.253-.1002.403-.1002.1555.0034.2825.0368.404.1069.0636.0367.1099.0767.139.1134l.0471.1536.2535-.0067c.0166-.1436-.0708-.267-.2501-.3705-.17341-.1001-.38121-.1536-.61181-.1536m10.2464 6.8875c.2133.0033.4031-.0467.5814-.1503.178-.1034.264-.2137.2458-.3372-.0063-.1236-.1166-.2403-.319-.3572l-.3932-.227-1.1373.6609.3758.217c.2198.1269.4392.1936.6465.1938m-6.7315-5.0245-1.1373.6609.3758.217c.2255.1302.4392.1936.6464.1937.2134.0033.4031-.0467.5814-.1503.178-.1034.2641-.2137.2517-.3338-.0064-.1236-.1225-.2437-.3248-.3605zm-29.0729-.0867.1954-.1136-.6939-.4006.3332-.1936.6014.3472.1895-.1101-.6015-.3472.3332-.1937.6709.3873.1954-.1136-.8847-.5108-1.2467.7245zm5.7826 3.3385.1954-.1135-.6882-.3973.3332-.1937.6014.3473.1895-.1101-.6015-.3473.3332-.1936.6709.3873.1955-.1136-.8848-.5108-1.2467.7245zm28.9398.0099-1.1373.6609.1966.1136.385-.2237.2544.1469-.1132.3806.2429.1402.1186-.4107c.2137.0634.4093.0435.5992-.0668.1262-.0733.1891-.15.1716-.227-.0179-.0767-.1164-.1668-.2899-.267zm-7.9163-4.5705-1.1373.661.1966.1135.3849-.2237.2486.1435-.1073.384.2429.1402.1187-.4106c.2136.0634.4093.0435.5991-.0668.1262-.0734.1891-.1501.1716-.227-.0179-.0767-.1165-.1669-.2899-.267zm3.9494 2.2802-.1723.1002.347.2003-.965.5608.1966.1135.965-.5608.3469.2003.1723-.1001zm-2.7582-1.5924-1.1373.6609.8269.4774.1836-.1066-.6304-.3639.3045-.177.5494.3172.1668-.0969-.5494-.3172.3045-.177.613.3539.178-.1034zm-11.525 6.5836 1.4649-.8513-.5377-.3104-.2241.1302.3006.1736-1.2407.721zm-14.5141-8.3797 1.4649-.8513-.532-.3071-.2241.1302.2949.1702-1.2408.7211zm16.1115.3237c-.0753-.0366-.1673.0035-.2424-.0399l-.1273-.0735-.0749-.0234-.0754-.0768c-.0089-.0095-.0284-.024-.0528-.038-.0533-.0308-.1307-.0589-.1782-.022l-.0343.0199.1909.0968c-.023.0669-.1156-.0266-.1614 0l.0058.0568-.0803.0467.0521.0702.1042.0533c.0158.0145.0333.0265.0519.0372.0764.0442.1729.0635.2658.1065.0637.03.0753.0367.1502.0333l.1498.0201.0633-.0769.0397-.0767c.0405-.0412.0272-.0721-.0241-.1017-.0069-.0039-.0144-.0079-.0226-.0119m12.2811 2.8312-1.1373.6609.1966.1135 1.1373-.6609z" fill="#ee5550"/></g><g><path d="m17.66241 18.86244.1321-.0768 2.4862 1.4353c-.1483-.0675-.3197-.1131-.5026-.137z" fill="#485f69"/></g><g><path d="m21.05761 19.96424-.6063.3523c-.0211-.0143-.0429-.0284-.0662-.0419-.0214-.0123-.0438-.0238-.0664-.035l.6059-.3522z" fill="#485f69"/></g><g><path d="m18.21491 20.39934c-.3752.2426-.5145.5583-.4073.83l-2.116-1.2217.9194-.5343z" fill="#fee182"/></g><g><path d="m23.22021 21.21294c.2023.1168.1976.3004.0025.4138l-.2528.1469-2.4909-1.4382c-.009-.0063-.0185-.0125-.0277-.0189l.6062-.3523z" fill="#fee182"/></g><g><path d="m17.55271 21.94694c-.0163-.0094-.0311-.0204-.0446-.0322l.0936.054c-.0179-.006-.0342-.0132-.049-.0218z" fill="#ee5550"/></g><g><path d="m17.70131 22.03524c-.0079-.0045-.0143-.0111-.0189-.0198l.0497.0286c-.0117-.0013-.0223-.0039-.0308-.0088z" fill="#ee5550"/></g><g><path d="m11.17811 26.03384c-.0394.1368-.1714.2737-.4011.4072-.23.1336-.4656.2103-.702.2338-.2361.0233-.4552-.0235-.6576-.1404-.2024-.1168-.2839-.2436-.2445-.3804.0398-.137.1714-.2738.4014-.4074.2297-.1335.4656-.2104.7016-.2337.2361-.0232.4557.0234.6581.1402.2024.1169.2834.2439.2441.3807zm-1.1272.4473c.1613-.0267.3166-.0902.4775-.1837.1664-.0967.2754-.1869.3152-.277.04-.0901-.0008-.1736-.1222-.2438-.1214-.07-.2658-.0934-.4213-.0699-.1611.0265-.3165.0834-.4829.1801-.1609.0935-.2642.187-.3098.2805-.0398.09.0011.1736.1225.2436.1214.0702.2657.0935.421.0702" fill="#fff"/></g><g><path d="m5.73341 26.36424c.081.0468.1445.1036.1969.1603.052.0635.0871.1235.0932.187l-.2709.0234c-.006-.0367-.0291-.0836-.0699-.1335-.0406-.0501-.0927-.0936-.1563-.1303-.0578-.0334-.127-.0535-.1905-.0634l-.1729.0334-.0568.1001c.0115.0402.0695.1069.1681.197.0985.0901.151.1735.1569.2438.0121.0734-.0394.1368-.1485.2002-.1094.0635-.2359.0902-.3858.0835-.1556-.0101-.2943-.0501-.433-.1302-.1967-.1135-.3012-.2537-.3194-.4173l.2938-.0167c.0181.1369.0938.247.2268.3238.0694.04.1443.0635.2135.0702l.1728-.0335.0569-.1c-.0057-.0369-.0524-.0902-.1218-.157-.0754-.0634-.1217-.1169-.1508-.1535l-.0524-.1169c-.0179-.0768.0338-.147.1485-.2136.115-.0669.2418-.0937.3915-.0802.1442.01.2829.05.4101.1234z" fill="#fff"/></g><g><path d="m35.73141 29.08184c-.0748-.0034-.1671-.0368-.277-.1003l-.2371-.1369.4077-.2369.2429.1402c.1042.0601.1622.1135.1737.1469.0119.0401-.0167.0835-.0912.1268-.0748.0434-.1438.0635-.219.0602z" fill="#ee5550"/></g><g><path d="m11.95811 30.46404c.0115-.0086.0241-.0172.0372-.0255l-.1199.1821c-.002-.0532.0087-.1023.0827-.1566z" fill="#cb4844"/></g><g><path d="m11.86931 31.10494-.137.2072-.2256-.1303.1542-.2369-.6303-.3639-.4086.09-.2255-.1301 1.8018-.4041.2255.1302-.0315.0479zm-.5565-.5874.4569.2637.1057-.1606.1199-.1821.0602-.0913z" fill="#fff"/></g><g><path d="m43.64771 33.65234c-.0748-.0034-.1671-.0369-.2769-.1003l-.2371-.1369.4077-.2369.2429.1402c.104.0601.1621.1135.17941.1502.01189.0401-.0225.0801-.097.1234-.07481.0435-.14391.0636-.21901.0603z" fill="#ee5550"/></g><g><path d="m44.91781 33.97944c.3006.1736.3245.3339.0601.4875-.12619.0734-.2584.1101-.3968.1034-.1441-.0034-.2772-.0466-.416-.1267l-.214-.1236.7758-.4508z" fill="#ee5550"/></g><g><path d="m45.42631 34.23984c.0182.1235-.0678.2338-.2458.3372-.1783.1036-.3681.1536-.5814.1503-.2073-.0002-.4267-.0669-.6465-.1938l-.3758-.217 1.1373-.6609.3932.227c.20241.1169.3127.2336.319.3572zm-.8452.3305c.1384.0067.2706-.03.3968-.1034.2644-.1536.2405-.3139-.0601-.4875l-.1909-.1102-.7758.4508.214.1236c.1388.0801.2719.1233.416.1267" fill="#fff"/></g><g><path d="m25.23551 34.15644c.1215.0701.1623.1536.1165.2405-.0398.0901-.143.1836-.3094.2803-.1608.0935-.322.1536-.4832.1804-.1496.0266-.2939.0032-.4154-.0669-.0372-.0215-.0656-.0437-.0875-.0664.1706-.0384.3453-.0794.5073-.1239.1783-.0501.4315-.1369.5288-.2471-.013-.0093-.0258-.0174-.0383-.0246-.16-.0924-.2825-.0114-.475-.0053-.0905.002-.1732-.0364-.2593-.0568.0019-.0011.0037-.0023.0056-.0034.1664-.0967.3276-.1502.4886-.1768.1557-.0234.2942-.0034.4213.07z" fill="#ee5550"/></g></g><g><path d="m35.54791 29.20194-.1187.4106-.2429-.1402.1073-.384-.2486-.1435-.3849.2237-.1966-.1135 1.1373-.661.4279.2471c.1734.1001.272.1903.2899.267.0175.0769-.0454.1536-.1716.227-.1898.1103-.3855.1302-.5991.0668zm-.0935-.2204c.1099.0635.2022.0969.277.1003.0752.0033.1442-.0168.219-.0602.0745-.0433.1031-.0867.0912-.1268-.0115-.0334-.0695-.0868-.1737-.1469l-.2429-.1402-.4077.2369z" fill="#fff"/></g></g></g><g><g><g><g enable-background="new"><g><path d="m45.53831 20.59514-.0093 3.2948c-.0044 1.5593-1.0266 3.1162-3.0686 4.3055-4.1102 2.3938-10.8007 2.3938-14.9379 0-2.0819-1.2046-3.1217-2.7865-3.1172-4.366l.0093-3.2949c-.0045 1.5795 1.0353 3.1614 3.1172 4.3661 4.1372 2.3938 10.8277 2.3937 14.938-.0001 2.042-1.1892 3.0641-2.7461 3.0685-4.3054z" fill="#f1bb34"/></g><g><path d="m42.42101 16.22914c4.1372 2.3938 4.1592 6.2775.0488 8.6714-4.1103 2.3938-10.8008 2.3939-14.938.0001-4.1372-2.3939-4.159-6.2777-.0488-8.6715 4.1105-2.394 10.8008-2.3939 14.938 0z" fill="#fed44c"/><g><path d="m41.74811 17.39474c-1.8015-1.0375-4.2146-1.6168-6.8093-1.6168-2.5879 0-4.9944.5727-6.7824 1.6168-1.5461.9029-2.3998 2.0209-2.3998 3.1528 0 .1615.0202.3233.0605.4917.2151-.9499 1.0285-1.8726 2.3393-2.6341 1.788-1.044 4.1945-1.6167 6.7824-1.6167 2.5947 0 5.0078.5793 6.8093 1.6167 1.3243.7681 2.1712 1.7246 2.3863 2.6881.0404-.1684.0605-.3437.0605-.5122 0-1.1249-.894-2.2834-2.4468-3.1863z" fill="#f1bb34"/><path d="m41.74811 18.40514c-1.8015-1.0374-4.2146-1.6167-6.8093-1.6167-2.5879 0-4.9944.5727-6.7824 1.6167-1.3108.7615-2.1242 1.6842-2.3393 2.6341.2151.9635 1.0621 1.9266 2.3863 2.6947 1.8015 1.044 4.2147 1.6167 6.8094 1.6167 2.5879 0 4.9944-.5727 6.7824-1.6167 1.3108-.7681 2.1241-1.6911 2.3392-2.6407-.2151-.9635-1.062-1.92-2.3863-2.6881z" fill="#f9c83a"/></g></g></g></g><g><g enable-background="new"><g><path d="m39.76721 18.09104-.0015.5331-.5768.3359.0016-.5331z" fill="#f1bb34"/></g><g><path d="m34.86311 19.61444.0015-.533c.0005-.1683.124-.3258.3685-.4681.2537-.1478.5606-.2137.9261-.2009.3627.0145.7314.1093 1.1034.2893l-.0015.533c-.372-.1799-.7407-.2748-1.1034-.2892-.36551-.0129-.67241.053-.92611.2008-.24449.1424-.36799.2998-.36849.4681z" fill="#f1bb34"/></g><g><path d="m37.95711 19.14524-.0015.5331-2.1273 1.2389.0015-.533z" fill="#f1bb34"/></g><g><path d="m38.92801 20.46934-.0015.533c-.1469-.4981-.4705-.9384-.9709-1.324l.0015-.5331c.5004.3857.824.826.9709 1.3241z" fill="#f1bb34"/></g><g><path d="m40.71241 20.29094-.0015.533-1.7844.1784.0015-.533z" fill="#f1bb34"/></g><g><path d="m32.81951 19.50824.0015-.533c-.0001.0394.0029.0789.0091.1186.0688.4243.4289.9432 1.0829 1.5587l-.0015.533c-.654-.6154-1.0141-1.1344-1.0829-1.5586-.0062-.0398-.0093-.0793-.0091-.1187z" fill="#f1bb34"/></g><g><path d="m34.94821 22.00694-.0015.5331c.0001-.0085-.0002-.017-.0008-.0255-.0122-.1864-.1797-.4532-.4972-.7938l.0015-.533c.3175.3406.485.6074.4972.7938.0006.0085.0009.017.0008.0254z" fill="#f1bb34"/></g><g><path d="m34.45021 21.18774-.00149.533-2.03621 1.1858.0016-.533z" fill="#f1bb34"/></g><g><path d="m30.48341 22.64994-.0015.533c-.9367-.6636-1.4588-1.4429-1.5689-2.3396l.0015-.5331c.1101.8968.6322 1.6761 1.5689 2.3397z" fill="#f1bb34"/></g><g><path d="m30.38871 23.55314-.0015.533-.7304-.4226.0015-.533z" fill="#f1bb34"/></g><g><path d="m31.20271 23.07904-.0015.533-.814.4741.0015-.533z" fill="#f1bb34"/></g><g><path d="m36.97111 22.11454-.0015.5331c-.0012.396-.3032.7672-.9038 1.117-.6623.3858-1.4364.5625-2.3196.532-.886-.0321-1.7316-.2587-2.545-.6846l.0015-.533c.8134.4258 1.659.6524 2.545.6845.88319.0306 1.6573-.1462 2.3196-.5319.6006-.3498.9027-.721.9038-1.1171z" fill="#f1bb34"/></g><g><path d="m36.96281 21.99754c.0634.4403-.2361.8501-.8955 1.2341-.6623.3857-1.4364.5625-2.3196.5319-.886-.0321-1.73161-.2587-2.545-.6845l-.814.4741-.7304-.4226.8251-.4806c-.9367-.6636-1.4588-1.4429-1.5689-2.3397l1.8182-.0916c.0842.6894.4139 1.2615.984 1.713l2.1963-1.2791c-.654-.6155-1.0141-1.1344-1.0829-1.5587-.066-.4226.2252-.8243.8791-1.2052.6512-.3792 1.4169-.5576 2.2891-.5336.8776.0242 1.701.2379 2.4728.6429l.5657-.3295.7304.4226-.5767.3359c.7725.5174 1.2826 1.1393 1.5219 1.864l-1.7844.1784c-.1469-.4981-.4705-.9384-.9709-1.3241l-2.1273 1.239.0333.0193c.6707.6218 1.0364 1.1537 1.0997 1.594zm-3.3678.691c.3876.0225.7112-.0434.976-.1976.2622-.1527.3886-.3231.3764-.5094-.0122-.1864-.1797-.4532-.4972-.7938l-2.0361 1.1858c.4024.188.7932.2925 1.1809.315m1.7085-2.8459 1.9591-1.1409c-.372-.18-.7407-.2748-1.1034-.2893-.3655-.0128-.6724.0531-.9261.2009-.2512.1463-.3748.3085-.3683.4821.0038.1719.149.4227.4387.7472" fill="#fed44c"/></g></g></g></g><g><g><g enable-background="new"><g><path d="m47.67081 15.97974-.0093 3.2948c-.0044 1.5593-1.0266 3.1162-3.0686 4.3055-4.1102 2.3938-10.8007 2.3939-14.9379 0-2.0819-1.2046-3.1217-2.7865-3.1172-4.366l.0093-3.2948c-.0045 1.5794 1.0353 3.1614 3.1172 4.366 4.1372 2.3938 10.8277 2.3938 14.938-.0001 2.042-1.1892 3.0641-2.7461 3.0685-4.3054z" fill="#e2ac2f"/></g><g><path d="m44.55351 11.61374c4.1372 2.3938 4.15921 6.2775.0488 8.6714-4.1103 2.3939-10.8008 2.3939-14.938.0001-4.1372-2.3939-4.159-6.2777-.0488-8.6715 4.1105-2.3939 10.8008-2.3939 14.938 0z" fill="#fed44c"/><g><path d="m43.88061 12.77934c-1.8015-1.0375-4.2146-1.6167-6.8093-1.6167-2.5879 0-4.9944.5726-6.7824 1.6167-1.5461.9029-2.3998 2.0209-2.3998 3.1528 0 .1615.0202.3234.0605.4918.2151-.95 1.0285-1.8727 2.3393-2.6341 1.788-1.0441 4.1945-1.6168 6.7824-1.6168 2.5947 0 5.0078.5793 6.8093 1.6168 1.3243.768 2.1712 1.7246 2.3863 2.688.0404-.1684.0605-.3437.0605-.5121 0-1.125-.894-2.2835-2.4468-3.1864z" fill="#f1bb34"/><path d="m43.88061 13.78984c-1.8015-1.0375-4.2146-1.6168-6.8093-1.6168-2.5879 0-4.9944.5727-6.7824 1.6168-1.3108.7614-2.1242 1.6841-2.3393 2.6341.2151.9634 1.0621 1.9265 2.3863 2.6946 1.8015 1.044 4.2147 1.6167 6.8094 1.6167 2.5879 0 4.9944-.5727 6.78241-1.6167 1.31079-.7681 2.1241-1.6911 2.3392-2.6407-.21511-.9634-1.06201-1.92-2.38631-2.688z" fill="#f9c83a"/></g></g></g></g><g><g enable-background="new"><g><path d="m41.89971 13.47564-.0015.5331-.5768.3359.0016-.5331z" fill="#f1bb34"/></g><g><path d="m36.99561 14.99904.0015-.533c.0005-.1683.124-.3257.3685-.4681.2537-.1478.5606-.2137.9261-.2009.3627.0145.7314.1093 1.1034.2893l-.0015.533c-.372-.1799-.7407-.2747-1.1034-.2892-.3655-.0129-.6724.053-.9261.2008-.2445.1424-.368.2998-.3685.4681z" fill="#f1bb34"/></g><g><path d="m40.08961 14.52994-.0015.533-2.1273 1.2389.0015-.533z" fill="#f1bb34"/></g><g><path d="m41.06051 15.85394-.0015.533c-.1469-.4981-.4705-.9383-.9709-1.324l.0015-.533c.5004.3856.824.8259.9709 1.324z" fill="#f1bb34"/></g><g><path d="m42.84491 15.67554-.0015.5331-1.7844.1783.0015-.533z" fill="#f1bb34"/></g><g><path d="m34.95201 14.89294.0015-.5331c-.0001.0394.0029.0789.0091.1186.0688.4243.4289.9432 1.0829 1.5587l-.0015.533c-.654-.6154-1.0141-1.1344-1.0829-1.5586-.0062-.0397-.0093-.0793-.0091-.1186z" fill="#f1bb34"/></g><g><path d="m37.08072 17.39164-.0015.533c.0001-.0085-.0002-.017-.0008-.0255-.0122-.1864-.1797-.4532-.4972-.7938l.0015-.533c.3175.3406.485.6074.4972.7938.00059.0085.00089.017.0008.0255z" fill="#f1bb34"/></g><g><path d="m36.58271 16.57234-.0015.533-2.0362 1.1859.0016-.5331z" fill="#f1bb34"/></g><g><path d="m32.61591 18.03454-.0015.5331c-.9367-.6637-1.4588-1.443-1.5689-2.3397l.0015-.5331c.1101.8968.6322 1.6761 1.5689 2.3397z" fill="#f1bb34"/></g><g><path d="m32.52121 18.93774-.0015.533-.7304-.4226.0015-.533z" fill="#f1bb34"/></g><g><path d="m33.33521 18.46364-.0015.533-.814.4741.0015-.533z" fill="#f1bb34"/></g><g><path d="m39.10361 17.49914-.0015.5331c-.0012.3961-.3032.7672-.9038 1.1171-.6623.3857-1.4364.5624-2.3196.5319-.886-.0321-1.7316-.2587-2.545-.6846l.0015-.533c.8134.4258 1.659.6524 2.545.6846.8832.0305 1.6573-.1463 2.3196-.532.6006-.3498.9027-.721.9038-1.1171z" fill="#f1bb34"/></g><g><path d="m39.09531 17.38224c.0634.4402-.2361.85-.8955 1.234-.6623.3857-1.4364.5625-2.3196.532-.886-.0322-1.7316-.2588-2.545-.6846l-.814.4741-.7304-.4226.8251-.4806c-.9367-.6636-1.4588-1.4429-1.5689-2.3397l1.8182-.0915c.0842.6893.4139 1.2614.984 1.7129l2.1963-1.2791c-.654-.6155-1.0141-1.1344-1.0829-1.5587-.066-.4226.2252-.8243.8791-1.2052.6512-.3792 1.4169-.5576 2.2891-.5335.8776.0241 1.701.2378 2.4728.6428l.5657-.3295.7304.4226-.5767.3359c.7725.5174 1.2826 1.1393 1.5219 1.864l-1.7844.1784c-.1469-.4981-.4705-.9384-.9709-1.324l-2.1273 1.2389.0333.0193c.6707.6218 1.0364 1.1537 1.0997 1.5941zm-3.3678.6909c.3876.0226.7112-.0434.976-.1976.2622-.1527.3886-.323.3764-.5094s-.1797-.4532-.4972-.7938l-2.0361 1.1858c.4024.188.7932.2925 1.1809.315m1.7085-2.8458 1.9591-1.141c-.372-.18-.7407-.2748-1.1034-.2893-.36551-.0128-.67241.0531-.9261.2009-.2512.1463-.3748.3085-.3683.4821.0038.1719.149.4227.4387.7473" fill="#fed44c"/></g></g></g></g><g><g><g enable-background="new"><g><path d="m45.38001 10.55594-.0093 3.2949c-.0045 1.5592-1.0266 3.1161-3.0686 4.3054-4.1102 2.3938-10.8007 2.3939-14.938 0-2.0819-1.2046-3.1217-2.7865-3.1172-4.366l.0093-3.2948c-.0044 1.5795 1.0353 3.1614 3.1173 4.366 4.1372 2.3938 10.8277 2.3938 14.9379 0 2.042-1.1893 3.0642-2.7462 3.0686-4.3055z" fill="#f1bb34"/></g><g><path d="m42.26271 6.18994c4.1372 2.3938 4.15919 6.2775.04869 8.6715-4.1102 2.3938-10.8007 2.3938-14.9379 0-4.1373-2.3938-4.159-6.2777-.0488-8.6715 4.11051-2.3939 10.80071-2.3938 14.93801 0z" fill="#fed44c"/><g><path d="m41.58981 7.35554c-1.8015-1.0375-4.2146-1.6167-6.8094-1.6167-2.5879 0-4.9944.5727-6.7824 1.6167-1.546.9029-2.3997 2.021-2.3997 3.1528 0 .1615.0201.3234.0605.4918.2151-.95 1.0284-1.8726 2.3392-2.6341 1.788-1.0441 4.1945-1.6167 6.7824-1.6167 2.5948 0 5.0079.5792 6.8094 1.6167 1.3242.768 2.1712 1.7246 2.3863 2.688.0403-.1684.0605-.3437.0605-.5121 0-1.125-.894-2.2835-2.4468-3.1864z" fill="#f1bb34"/><path d="m41.58981 8.36604c-1.8015-1.0375-4.2146-1.6167-6.8094-1.6167-2.5879 0-4.9944.5726-6.7824 1.6167-1.3108.7615-2.1241 1.6841-2.3392 2.6341.2151.9634 1.062 1.9266 2.3863 2.6946 1.8015 1.0441 4.2146 1.6167 6.8093 1.6167 2.588 0 4.9944-.5726 6.7824-1.6167 1.3108-.768 2.1242-1.691 2.3393-2.6407-.2151-.9634-1.0621-1.92-2.3863-2.688z" fill="#f9c83a"/></g></g></g></g><g><g enable-background="new"><g><path d="m39.60891 8.05194-.0015.533-.5768.3359.0015-.533z" fill="#f1bb34"/></g><g><path d="m34.70471 9.57534.0015-.5331c.0005-.1683.1241-.3257.3685-.4681.2538-.1478.5607-.2137.9262-.2008.3626.0145.7314.1093 1.1034.2892l-.0015.533c-.372-.1799-.7408-.2747-1.1034-.2892-.3655-.0128-.6724.0531-.9262.2008-.2444.1424-.368.2999-.3685.4682z" fill="#f1bb34"/></g><g><path d="m37.79881 9.10614-.0016.533-2.1273 1.239.0016-.5331z" fill="#f1bb34"/></g><g><path d="m38.76961 10.43014-.0015.533c-.1468-.4981-.4704-.9383-.9709-1.324l.0015-.533c.5005.3856.8241.8259.9709 1.324z" fill="#f1bb34"/></g><g><path d="m40.55411 10.25184-.0015.533-1.7845.1783.0015-.533z" fill="#f1bb34"/></g><g><path d="m32.66111 9.46914.0015-.533c-.0001.0393.003.0788.0092.1186.0688.4242.4289.9432 1.0829 1.5586l-.0015.5331c-.654-.6155-1.0142-1.1345-1.0829-1.5587-.0062-.0397-.0093-.0793-.0092-.1186z" fill="#f1bb34"/></g><g><path d="m34.78991 11.96784-.0015.533c0-.0084-.0003-.0169-.0008-.0255-.0122-.1864-.1797-.4531-.4973-.7938l.0015-.533c.3176.3406.4851.6074.4973.7938.0006.0085.0008.017.0008.0255z" fill="#f1bb34"/></g><g><path d="m34.29181 11.14854-.0015.533-2.0361 1.1859.0015-.533z" fill="#f1bb34"/></g><g><path d="m30.32501 12.61084-.0015.533c-.9367-.6636-1.4587-1.4429-1.5689-2.3397l.0015-.533c.1102.8967.6322 1.676 1.5689 2.3397z" fill="#f1bb34"/></g><g><path d="m30.23041 13.51394-.0016.5331-.7304-.4227.0015-.533z" fill="#f1bb34"/></g><g><path d="m31.04441 13.03984-.0015.5331-.8141.4741.0016-.5331z" fill="#f1bb34"/></g><g><path d="m36.81271 12.07544-.0015.533c-.0011.3961-.3031.7673-.9037 1.1171-.6623.3857-1.4364.5624-2.3196.5319-.8861-.0321-1.7316-.2587-2.545-.6845l.0015-.5331c.8134.4259 1.6589.6525 2.545.6846.8832.0305 1.6573-.1462 2.3196-.532.6006-.3498.9026-.7209.9037-1.117z" fill="#f1bb34"/></g><g><path d="m36.80441 11.95844c.0635.4402-.236.85-.8954 1.234-.6623.3858-1.4364.5625-2.3196.532-.8861-.0321-1.7316-.2587-2.545-.6846l-.814.4741-.7305-.4226.8251-.4805c-.9367-.6637-1.4587-1.443-1.5689-2.3397l1.8182-.0916c.0842.6893.414 1.2615.9841 1.713l2.1963-1.2792c-.654-.6154-1.0141-1.1344-1.0829-1.5586-.066-.4227.2251-.8244.879-1.2052.6512-.3793 1.417-.5577 2.2892-.5336.8776.0241 1.701.2378 2.4728.6428l.5657-.3295.7304.4227-.5768.3359c.7725.5174 1.2826 1.1392 1.522 1.864l-1.7845.1783c-.1468-.4981-.4704-.9384-.9708-1.324l-2.1273 1.2389.0333.0193c.6707.6218 1.0363 1.1537 1.0996 1.5941zm-3.3678.691c.3876.0225.7113-.0435.9761-.1977.2621-.1527.3886-.323.3764-.5094s-.1797-.4532-.4973-.7938l-2.03609 1.1859c.40239.188.79329.2924 1.18089.315m1.7086-2.8459 1.9591-1.141c-.372-.1799-.7408-.2747-1.1034-.2892-.3655-.0129-.6724.053-.9262.2008-.25121.1463-.3747.3086-.36821.4821.00371.172.14901.4227.43871.7473" fill="#fed44c"/></g></g></g></g></g><path d="m39.17151 16.47174.6575.9467-.9467-.6574-.4405 2.439-.4405-2.439-.9467.6574.6574-.9467-2.439-.4404 2.439-.4406-.6574-.9466.9467.6574.4405-2.439.4405 2.439.9467-.6574-.6575.9466 2.4391.4406z" fill="#fff"/></g></svg>