<svg id="ecommerce_1_" enable-background="new 0 0 115 115" viewBox="0 0 115 115" xmlns="http://www.w3.org/2000/svg"><g id="checkout_1_"><g><g><path d="m0 75.223v25.681c0 3.606 2.923 6.529 6.529 6.529h101.943c3.606 0 6.529-2.923 6.529-6.529v-25.681z" fill="#e05858"/></g></g><g><g><path d="m103.229 80.333h-91.458c-2.846 0-5.154 2.308-5.154 5.154v11.683c0 2.846 2.308 5.154 5.154 5.154h91.458c2.846 0 5.154-2.308 5.154-5.154v-11.683c0-2.847-2.308-5.154-5.154-5.154z" fill="#96ceb4"/></g></g><g><g><ellipse cx="57.256" cy="91.328" fill="#ffeead" rx="5.444" ry="5.514"/></g></g><g><g><g><path d="m102.252 66.184h-89.254l-12.998 9.039h115z" fill="#ff6f69"/></g></g><g><g><g><path d="m76.259 67.84c-.123-.254-.914-.456-1.769-.456h-1.907c-.855 0-1.488.202-1.413.456l.172.584c.079.27.878.493 1.783.493h2.018c.905 0 1.53-.223 1.399-.493z" fill="#71a58a"/></g></g><g><g><path d="m83.781 68.425-.439-.584c-.191-.254-1.035-.456-1.89-.456h-1.907c-.855 0-1.434.202-1.292.456l.327.584c.151.27 1.01.493 1.914.493h2.018c.906 0 1.472-.223 1.269-.493z" fill="#71a58a"/></g></g><g><g><path d="m91.02 68.425-.594-.584c-.258-.254-1.156-.456-2.011-.456h-1.907c-.855 0-1.381.202-1.171.456l.482.584c.223.27 1.141.493 2.045.493h2.018c.907 0 1.413-.223 1.138-.493z" fill="#71a58a"/></g></g><g><g><path d="m98.26 68.425-.75-.585c-.326-.254-1.278-.456-2.132-.456h-1.907c-.855 0-1.327.202-1.05.456l.638.584c.295.27 1.272.493 2.177.493h2.018c.905.001 1.352-.222 1.006-.492z" fill="#71a58a"/></g></g><g><g><path d="m77.573 70.55-.329-.678c-.142-.294-1-.528-1.919-.528h-2.049c-.919 0-1.595.234-1.508.528l.199.678c.092.314.96.574 1.937.574h2.179c.976.001 1.642-.259 1.49-.574z" fill="#71a58a"/></g></g><g><g><path d="m85.377 70.55-.509-.678c-.221-.294-1.141-.528-2.059-.528h-2.049c-.919 0-1.532.234-1.368.528l.379.678c.176.314 1.113.574 2.09.574h2.179c.976.001 1.573-.259 1.337-.574z" fill="#71a58a"/></g></g><g><g><path d="m93.181 70.55-.689-.678c-.299-.294-1.281-.528-2.2-.528h-2.049c-.919 0-1.47.234-1.228.528l.56.678c.259.314 1.266.574 2.243.574h2.179c.976.001 1.504-.259 1.184-.574z" fill="#71a58a"/></g></g><g><g><path d="m100.986 70.55-.869-.678c-.377-.294-1.421-.528-2.34-.528h-2.049c-.919 0-1.408.234-1.087.528l.74.678c.343.314 1.419.574 2.395.574h2.179c.975.001 1.434-.259 1.031-.574z" fill="#71a58a"/></g></g><g><g><path d="m78.778 73.036-.386-.796c-.167-.344-1.104-.617-2.097-.617h-2.215c-.993 0-1.718.273-1.617.617l.234.796c.109.37 1.059.677 2.12.677h2.367c1.062 0 1.774-.306 1.594-.677z" fill="#71a58a"/></g></g><g><g><path d="m87.243 73.036-.598-.796c-.258-.344-1.268-.617-2.261-.617h-2.215c-.993 0-1.645.273-1.452.617l.446.796c.207.37 1.239.677 2.3.677h2.367c1.061 0 1.691-.306 1.413-.677z" fill="#71a58a"/></g></g><g><g><path d="m95.708 73.036-.809-.796c-.35-.344-1.433-.617-2.425-.617h-2.215c-.993 0-1.572.273-1.288.617l.657.796c.306.37 1.419.677 2.48.677h2.367c1.061 0 1.61-.306 1.233-.677z" fill="#71a58a"/></g></g><g><g><path d="m104.174 73.036-1.021-.796c-.441-.344-1.597-.617-2.59-.617h-2.215c-.993 0-1.5.273-1.124.617l.869.796c.404.37 1.599.677 2.66.677h2.367c1.061 0 1.528-.306 1.054-.677z" fill="#71a58a"/></g></g></g><g><g><g><path d="m76.227 67.274c-.123-.254-.914-.456-1.769-.456h-1.907c-.855 0-1.488.202-1.413.456l.172.584c.079.27.878.493 1.783.493h2.018c.905 0 1.53-.223 1.399-.493z" fill="#96ceb4"/></g></g><g><g><path d="m83.749 67.858-.439-.584c-.191-.254-1.035-.456-1.89-.456h-1.907c-.855 0-1.434.202-1.292.456l.327.584c.151.27 1.01.493 1.914.493h2.018c.906.001 1.472-.222 1.269-.493z" fill="#96ceb4"/></g></g><g><g><path d="m90.988 67.858-.594-.584c-.258-.254-1.156-.456-2.011-.456h-1.907c-.855 0-1.381.202-1.171.456l.482.584c.223.27 1.141.493 2.045.493h2.018c.906.001 1.413-.222 1.138-.493z" fill="#96ceb4"/></g></g><g><g><path d="m98.227 67.858-.749-.584c-.326-.254-1.278-.456-2.132-.456h-1.907c-.855 0-1.327.202-1.05.456l.638.584c.295.27 1.272.493 2.177.493h2.018c.905.001 1.352-.222 1.005-.493z" fill="#96ceb4"/></g></g><g><g><path d="m77.541 69.984-.329-.678c-.142-.294-1-.528-1.919-.528h-2.049c-.919 0-1.595.234-1.508.528l.199.678c.092.314.961.574 1.937.574h2.179c.976 0 1.642-.259 1.49-.574z" fill="#96ceb4"/></g></g><g><g><path d="m85.345 69.984-.509-.678c-.221-.294-1.141-.528-2.059-.528h-2.049c-.919 0-1.532.234-1.368.528l.379.678c.176.314 1.113.574 2.09.574h2.179c.976 0 1.573-.259 1.337-.574z" fill="#96ceb4"/></g></g><g><g><path d="m93.149 69.984-.689-.678c-.299-.294-1.281-.528-2.2-.528h-2.049c-.919 0-1.47.234-1.228.528l.56.678c.26.314 1.266.574 2.242.574h2.179c.977 0 1.505-.259 1.185-.574z" fill="#96ceb4"/></g></g><g><g><path d="m100.954 69.984-.869-.678c-.377-.294-1.421-.528-2.34-.528h-2.049c-.919 0-1.408.234-1.087.528l.74.678c.343.314 1.418.574 2.395.574h2.179c.975 0 1.434-.259 1.031-.574z" fill="#96ceb4"/></g></g><g><g><path d="m78.746 72.47-.386-.796c-.167-.344-1.104-.617-2.097-.617h-2.215c-.993 0-1.718.273-1.616.617l.234.796c.109.37 1.059.677 2.12.677h2.368c1.06 0 1.771-.307 1.592-.677z" fill="#96ceb4"/></g></g><g><g><path d="m87.211 72.47-.597-.796c-.258-.344-1.268-.617-2.261-.617h-2.215c-.993 0-1.645.273-1.452.617l.446.796c.207.37 1.239.677 2.3.677h2.367c1.06 0 1.69-.307 1.412-.677z" fill="#96ceb4"/></g></g><g><g><path d="m95.676 72.47-.809-.796c-.35-.344-1.433-.617-2.426-.617h-2.215c-.993 0-1.572.273-1.288.617l.657.796c.306.37 1.419.677 2.48.677h2.367c1.062 0 1.61-.307 1.234-.677z" fill="#96ceb4"/></g></g><g><g><path d="m104.141 72.47-1.021-.796c-.441-.344-1.597-.617-2.59-.617h-2.215c-.993 0-1.5.273-1.124.617l.869.796c.404.37 1.599.677 2.66.677h2.367c1.062 0 1.529-.307 1.054-.677z" fill="#96ceb4"/></g></g></g><g><g><path d="m16.569 67.412-2.131 1.672h33.647l.487-1.672z" fill="#99734a"/></g></g></g><g><g><path d="m12.998 38.279h89.219v27.905h-89.219z" fill="#e05858"/></g></g><g><g><path d="m101.219 36.819c-.75-.99-2.667-1.647-4.81-1.647h-77.516c-2.142 0-4.06.656-4.81 1.647l-1.101 1.453h89.235z" fill="#ff6f69"/></g></g><g><g><path d="m99.849 8.619c-.472-.633-1.679-1.052-3.027-1.052h-48.79c-1.348 0-2.555.419-3.027 1.052l-.693.928h56.285z" fill="#ff6f69"/></g></g><g><g><path d="m93.145 43.959h-36.28c-1.299 0-2.352 1.053-2.352 2.352v11.787c0 1.299 1.053 2.352 2.352 2.352h36.28c1.299 0 2.352-1.053 2.352-2.352v-11.787c0-1.299-1.053-2.352-2.352-2.352z" fill="#96ceb4"/></g></g><g><g><path d="m91.771 45.301h-33.532c-1.172 0-2.122.95-2.122 2.122v9.563c0 1.172.95 2.122 2.122 2.122h33.531c1.172 0 2.122-.95 2.122-2.122v-9.563c0-1.172-.95-2.122-2.121-2.122z" fill="#99734a"/></g></g><g><g><path d="m43.378 42.942c-.103 1.127-1.04 2.013-2.194 2.013s-2.091-.886-2.194-2.013h-2.053c-.103 1.127-1.04 2.013-2.194 2.013s-2.091-.886-2.194-2.013h-2.053c-.103 1.127-1.04 2.013-2.194 2.013s-2.091-.886-2.194-2.013h-2.053c-.103 1.127-1.04 2.013-2.194 2.013s-2.091-.886-2.194-2.013h-1.796v26.142h27.266v-26.142z" fill="#ffeead"/></g></g><g><g><path d="m41.797 51.665h-20.584c-.31 0-.564.254-.564.564s.254.564.564.564h20.585c.31 0 .564-.254.564-.564-.001-.31-.255-.564-.565-.564z" fill="#99734a"/></g></g><g><g><path d="m41.797 54.939h-20.584c-.31 0-.564.254-.564.564s.254.564.564.564h20.585c.31 0 .564-.254.564-.564-.001-.31-.255-.564-.565-.564z" fill="#99734a"/></g></g><g><g><path d="m41.797 58.213h-20.584c-.31 0-.564.254-.564.564s.254.564.564.564h20.585c.31 0 .564-.254.564-.564-.001-.31-.255-.564-.565-.564z" fill="#99734a"/></g></g><g><g><path d="m41.797 61.487h-20.584c-.31 0-.564.254-.564.564s.254.564.564.564h20.585c.31 0 .564-.254.564-.564-.001-.31-.255-.564-.565-.564z" fill="#99734a"/></g></g><g><g><path d="m41.797 64.761h-20.584c-.31 0-.564.254-.564.564s.254.564.564.564h20.585c.31 0 .564-.254.564-.564s-.255-.564-.565-.564z" fill="#99734a"/></g></g><g><g><g><path d="m81.83 47.869c-2.007 0-2.935.768-2.935 2.736v2.847c0 1.969.954 2.761 2.935 2.761 1.98 0 2.934-.792 2.934-2.761v-2.847c0-1.968-.929-2.736-2.934-2.736zm1.2 5.695c0 .942-.259 1.239-1.2 1.239-.942 0-1.201-.297-1.201-1.239v-3.009c0-1.052.321-1.274 1.201-1.274.879 0 1.2.223 1.2 1.274z" fill="#ffeead"/></g></g><g><g><path d="m88.691 47.869c-2.007 0-2.935.768-2.935 2.736v2.847c0 1.969.954 2.761 2.935 2.761 1.98 0 2.934-.792 2.934-2.761v-2.847c-.001-1.968-.929-2.736-2.934-2.736zm1.199 5.695c0 .942-.259 1.239-1.2 1.239-.942 0-1.201-.297-1.201-1.239v-3.009c0-1.052.321-1.274 1.201-1.274.879 0 1.2.223 1.2 1.274z" fill="#ffeead"/></g></g></g><g><g><path d="m75.206 23.05h-1.121c-1.277 0-2.322 1.045-2.322 2.322v9.964c0 .759.621 1.38 1.38 1.38h3.004c.759 0 1.38-.621 1.38-1.38v-9.964c0-1.277-1.044-2.322-2.321-2.322z" fill="#96ceb4"/></g></g><g><g><path d="m76.079 22.781h-2.868c-.797 0-1.448.652-1.448 1.448v2.421c0 .797.652 1.448 1.448 1.448h2.868c.797 0 1.448-.652 1.448-1.448v-2.421c0-.797-.651-1.448-1.448-1.448z" fill="#639376"/></g></g><g><g><path d="m44.311 9.547v13.354c0 1.807 1.478 3.285 3.285 3.285h49.715c1.807 0 3.285-1.478 3.285-3.285v-13.354z" fill="#e05858"/></g></g><g><g><path d="m97.007 11.203h-49.106c-.778 0-1.409.631-1.409 1.409v10.51c0 .778.631 1.409 1.409 1.409h49.106c.778 0 1.409-.631 1.409-1.409v-10.51c0-.778-.631-1.409-1.409-1.409z" fill="#96ceb4"/></g></g><g><g><path d="m95.529 12.795h-46.151c-.656 0-1.188.532-1.188 1.188v7.767c0 .656.532 1.188 1.188 1.188h46.151c.656 0 1.188-.532 1.188-1.188v-7.767c0-.656-.532-1.188-1.188-1.188z" fill="#99734a"/></g></g><g><g><g><path d="m85.564 14.578c-1.522 0-2.227.583-2.227 2.076v2.161c0 1.493.723 2.094 2.227 2.094 1.502 0 2.225-.601 2.225-2.094v-2.161c0-1.493-.704-2.076-2.225-2.076zm.91 4.321c0 .714-.196.939-.91.939s-.912-.225-.912-.939v-2.282c0-.799.244-.968.912-.968.667 0 .91.169.91.968z" fill="#ffeead"/></g></g><g><g><path d="m90.764 14.578c-1.522 0-2.227.583-2.227 2.076v2.161c0 1.493.723 2.094 2.227 2.094 1.502 0 2.225-.601 2.225-2.094v-2.161c0-1.493-.704-2.076-2.225-2.076zm.91 4.321c0 .714-.196.939-.91.939s-.912-.225-.912-.939v-2.282c0-.799.244-.968.912-.968.667 0 .91.169.91.968z" fill="#ffeead"/></g></g></g></g></svg>