<svg id="Layer_1" enable-background="new 0 0 68 68" viewBox="0 0 68 68" xmlns="http://www.w3.org/2000/svg"><g><g><path d="m54.45131 20.90324v3.63703h-40.90221v-3.63703c0-1.13782.92238-2.0602 2.0602-2.0602h36.7818c1.13783 0 2.06021.92239 2.06021 2.0602z" fill="#444"/></g><g><path d="m54.45452 20.90134v3.63616h-2.77104v-3.63616c0-1.13309-.91681-2.0602-2.0602-2.0602h2.77104c1.13296-.00001 2.0602.92711 2.0602 2.0602z" fill="#666"/></g><g><path d="m18.38034 18.84113c-1.13309 0-2.0602.92712-2.0602 2.0602v3.63616h-2.77104v-3.63616c0-1.13309.92724-2.0602 2.0602-2.0602z" fill="#333"/></g><g><path d="m54.45117 25.29004h-40.90234c-.41406 0-.75-.33594-.75-.75v-3.63672c0-1.5498 1.26074-2.81055 2.81055-2.81055h36.78125c1.5498 0 2.81055 1.26074 2.81055 2.81055v3.63672c-.00001.41406-.33595.75-.75001.75zm-40.15234-1.5h39.40234v-2.88672c0-.72266-.58789-1.31055-1.31055-1.31055h-36.78124c-.72266 0-1.31055.58789-1.31055 1.31055z"/></g><g><g><g><path d="m48.63485 11.88944v15.92292c0 .40099-.32507.72605-.72606.72605h-27.81021c-.40359 0-.73077-.32718-.73077-.73077v-15.9182c0-1.42227 1.15298-2.57525 2.57525-2.57525h24.11654c1.42227-.00001 2.57525 1.15297 2.57525 2.57525z" fill="#f2f2f2"/></g><g><path d="m35.087 9.314h3.354v15.223h-3.354z" fill="#fff"/></g><g><path d="m48.6343 11.88795v15.92533c0 .40175-.32958.72115-.72102.72115h-4.08947c.40163 0 .72102-.31939.72102-.72115v-15.92533c0-1.42155-1.15371-2.57525-2.57525-2.57525h4.08947c1.42167 0 2.57525 1.1537 2.57525 2.57525z" fill="#fff"/></g><g><path d="m23.45727 11.88795v15.91514c0 .41194.32958.73133.73133.73133h-4.08947c-.40175 0-.73133-.31939-.73133-.73133v-15.91514c0-1.42155 1.15358-2.57525 2.57525-2.57525h4.08947c-1.42154 0-2.57525 1.1537-2.57525 2.57525z" fill="#d3d3d3"/></g><g><path d="m47.90918 29.28809h-27.81055c-.81641 0-1.48047-.66406-1.48047-1.48047v-15.91797c0-1.83398 1.49121-3.3252 3.3252-3.3252h24.11621c1.83398 0 3.3252 1.49121 3.3252 3.3252v15.92285c0 .81348-.66211 1.47559-1.47559 1.47559zm-25.96582-19.22364c-1.00684 0-1.8252.81836-1.8252 1.8252v15.91797l27.79102-.01953-.02441-15.89844c0-1.00684-.81836-1.8252-1.8252-1.8252z"/></g></g></g><g><path d="m65.24839 29.77541v21.4191c0 1.70673-1.38358 3.09031-3.0903 3.09031h-56.31271c-1.70673 0-3.0903-1.38358-3.0903-3.09031v-21.4191c0-2.88972 2.34258-5.23231 5.23231-5.23231h52.02871c2.88971.00001 5.23229 2.34259 5.23229 5.23231z" fill="#fe9967"/></g><g><path d="m65.24997 29.77049v21.42616c0 1.69957-1.38043 3.09031-3.09031 3.09031h-5.65525c1.70988 0 3.09031-1.39074 3.09031-3.09031v-21.42616c0-2.88433-2.33835-5.22268-5.23299-5.22268h5.65525c2.88433 0 5.23299 2.33835 5.23299 5.22268z" fill="#ffac88"/></g><g><path d="m43.695 24.538h5.655v29.749h-5.655z" fill="#ffac88"/></g><g><path d="m11.49044 54.28696h-5.64506c-1.70988 0-3.0903-1.39074-3.0903-3.09031v-21.42616c0-2.88433 2.33835-5.22268 5.233-5.22268h5.64492c-2.88433 0-5.23287 2.33835-5.23287 5.22268v21.42616c0 1.69957 1.3803 3.09031 3.09031 3.09031z" fill="#ef8759"/></g><g><path d="m62.16016 55.03516h-56.31934c-2.11816 0-3.84082-1.72266-3.84082-3.83985v-21.41797c0-3.30176 2.68555-5.9873 5.9873-5.9873h52.02637c3.30078 0 5.98633 2.68555 5.98633 5.9873v21.41797c0 2.11719-1.72266 3.83985-3.83984 3.83985zm-54.17286-29.74512c-2.47461 0-4.4873 2.0127-4.4873 4.4873v21.41797c0 1.29004 1.0498 2.33984 2.34082 2.33984h56.31934c1.29004 0 2.33984-1.0498 2.33984-2.33984v-21.41797c0-2.47461-2.0127-4.4873-4.48633-4.4873z"/></g><g><path d="m62.16016 55.03516h-56.31934c-2.11816 0-3.84082-1.72266-3.84082-3.83985v-21.41797c0-3.30176 2.68555-5.9873 5.9873-5.9873h52.02637c3.30078 0 5.98633 2.68555 5.98633 5.9873v21.41797c0 2.11719-1.72266 3.83985-3.83984 3.83985zm-54.17286-29.74512c-2.47461 0-4.4873 2.0127-4.4873 4.4873v21.41797c0 1.29004 1.0498 2.33984 2.34082 2.33984h56.31934c1.29004 0 2.33984-1.0498 2.33984-2.33984v-21.41797c0-2.47461-2.0127-4.4873-4.48633-4.4873z"/></g><g><path d="m14.31378 24.54028v5.93771c0 1.70673 1.38358 3.0903 3.0903 3.0903h33.19222c1.70673 0 3.09031-1.38358 3.09031-3.0903v-5.93771z" fill="#feeb75"/></g><g><path d="m35.087 24.538h3.354v8.955h-3.354z" fill="#fff3ab"/></g><g><path d="m53.68195 24.5375v5.9437c0 1.69982-1.38043 3.0903-3.09031 3.0903h-5.04765c1.71 0 3.09031-1.39048 3.09031-3.0903v-5.9437z" fill="#fff3ab"/></g><g><path d="m22.4516 33.57151h-5.04752c-1.70988 0-3.0903-1.39048-3.0903-3.0903v-5.9437h5.04752v5.9437c0 1.69981 1.39061 3.0903 3.0903 3.0903z" fill="#efd96a"/></g><g><path d="m50.59668 34.31836h-33.19238c-2.11816 0-3.84082-1.72266-3.84082-3.84082v-5.9375c0-.41406.33594-.75.75-.75h39.37305c.41406 0 .75.33594.75.75v5.9375c-.00001 2.11816-1.72266 3.84082-3.83985 3.84082zm-35.5332-9.02832v5.1875c0 1.29102 1.0498 2.34082 2.34082 2.34082h33.19238c1.29004 0 2.33984-1.0498 2.33984-2.34082v-5.1875z"/></g><g><g><path d="m53.68762 54.28537-.00008-7.01676c.00013-1.82185-1.47704-3.29902-3.299-3.29901l-32.77457.00017c-1.82211.00001-3.29911 1.47719-3.29909 3.29904l.00008 7.01676z" fill="#444"/></g><g><path d="m53.69213 47.27191v7.01505h-4.06885v-7.01505c0-1.8233-1.4731-3.30659-3.2964-3.30659h4.05867c1.82317 0 3.30658 1.48329 3.30658 3.30659z" fill="#666"/></g><g><path d="m21.68026 43.96532c-1.8233 0-3.30671 1.48329-3.30671 3.30659v7.01505h-4.05867v-7.01505c0-1.8233 1.4731-3.30659 3.2964-3.30659z" fill="#333"/></g><g><path d="m53.6875 55.03516h-39.37207c-.41406 0-.75-.33594-.75-.75l-.00098-7.0166c0-2.23242 1.81641-4.04883 4.0498-4.04883h32.77441c2.23242 0 4.04883 1.81641 4.04883 4.04883v7.0166c.00001.41406-.33593.75-.74999.75zm-38.62207-1.5h37.87207v-6.2666c0-1.40527-1.14355-2.54883-2.54883-2.54883h-32.77441c-1.40625 0-2.5498 1.14355-2.5498 2.54883z"/></g></g><g><g><g><g><path d="m49.12683 43.96532v12.14479c0 1.42227-1.15298 2.57525-2.57525 2.57525h-25.10051c-1.42227 0-2.57525-1.15298-2.57525-2.57525v-12.14479z" fill="#ededed"/></g><g><path d="m35.087 43.97h3.354v14.716h-3.354z" fill="#fff"/></g><g><path d="m49.12627 43.96658v12.14221c0 1.42228-1.15298 2.57525-2.57525 2.57525h-3.54697c1.18197 0 2.12947-.94763 2.12947-2.12947v-12.588h3.99275z" fill="#fff"/></g><g><path d="m24.99804 58.68404h-3.99275c-1.17131 0-2.12947-.94763-2.12947-2.12947v-12.588h3.99275v12.588c0 1.18184.94749 2.12947 2.12947 2.12947z" fill="#d3d3d3"/></g><g><path d="m46.55176 59.43555h-25.10059c-1.83398 0-3.3252-1.49121-3.3252-3.3252v-12.14551c0-.41406.33594-.75.75-.75h30.25098c.41406 0 .75.33594.75.75v12.14551c0 1.83399-1.49121 3.3252-3.32519 3.3252zm-26.92578-14.72071v11.39551c0 1.00684.81836 1.8252 1.8252 1.8252h25.10059c1.00684 0 1.8252-.81836 1.8252-1.8252v-11.39551z"/></g></g></g></g><g><path d="m43.90625 20.27051h-19.80957c-.41406 0-.75-.33594-.75-.75s.33594-.75.75-.75h19.80957c.41406 0 .75.33594.75.75s-.33594.75-.75.75z"/></g><g><path d="m39.34277 15.4668h-10.68261c-.41406 0-.75-.33594-.75-.75s.33594-.75.75-.75h10.68262c.41406 0 .75.33594.75.75s-.33594.75-.75001.75z"/></g><g><g><path d="m22.71289 29.80469h-1.68555c-.41406 0-.75-.33594-.75-.75s.33594-.75.75-.75h1.68555c.41406 0 .75.33594.75.75s-.33594.75-.75.75z"/></g><g><path d="m27.45996 29.80469h-1.68555c-.41406 0-.75-.33594-.75-.75s.33594-.75.75-.75h1.68555c.41406 0 .75.33594.75.75s-.33594.75-.75.75z"/></g><g><path d="m46.97363 29.80469h-11.88672c-.41406 0-.75-.33594-.75-.75s.33594-.75.75-.75h11.88672c.41406 0 .75.33594.75.75s-.33593.75-.75.75z"/></g></g></g></svg>