<svg id="Cube" enable-background="new 0 0 64 64" height="512" viewBox="0 0 64 64" width="512" xmlns="http://www.w3.org/2000/svg"><g><path d="m32 27.315v36.518c-.243 0-.499-.051-.729-.154-.013.013-.013 0-.025 0l-30.081-12.838c-.013 0-.013-.013-.025-.013-.692-.307-1.14-.998-1.14-1.753v-34.15c0-.409.128-.794.358-1.114 10.548 4.506 21.095 8.998 31.642 13.504z" fill="#4aabf4"/><path d="m64 14.925v34.15c0 .755-.448 1.447-1.139 1.753-.013 0-.013.013-.025.013l-30.08 12.839c-.013 0-.013.013-.025 0-.23.103-.487.154-.729.154v-36.519c10.547-4.506 21.094-8.998 31.642-13.504.228.32.356.703.356 1.114z" fill="#25a4d6"/><path d="m63.642 13.811c-10.548 4.506-21.095 8.998-31.642 13.504-10.547-4.506-21.094-8.998-31.642-13.504.205-.282.461-.499.781-.64l.025-.013c4.25-1.817 29.287-12.492 30.094-12.838.474-.205 1.011-.205 1.485 0 .807.346 25.843 11.021 30.092 12.839l.025.013c.321.139.576.358.782.639z" fill="#7cc0f2"/></g></svg>