<svg height="512" viewBox="0 0 64 64" width="512" xmlns="http://www.w3.org/2000/svg"><g id="calculator-Bill-Invoice-Payment-Receipt"><path d="m47 49a3 3 0 0 0 3 3h-16v-8h13z" fill="#f6c08e"/><path d="m59 6v5h-6v-5a3 3 0 0 1 6 0z" fill="#f3ac3c"/><path d="m56 3a3 3 0 0 0 -3 3v43a3 3 0 0 1 -6 0v-5h-34v-37a4 4 0 0 1 4-4z" fill="#f5e0ad"/><rect fill="#365e7d" height="32" rx="2" width="31" x="3" y="29"/><path d="m7 52h5v5h-5z" fill="#e6e6e6"/><path d="m7 44h5v5h-5z" fill="#e6e6e6"/><path d="m7 33h23v7h-23z" fill="#5bcbfa"/><path d="m16 44h5v5h-5z" fill="#e6e6e6"/><path d="m16 52h5v5h-5z" fill="#e6e6e6"/><path d="m25 44h5v13h-5z" fill="#dd636e"/><g fill="#1a6fb0"><path d="m18 7h4v2h-4z"/><path d="m18 12h4v2h-4z"/><path d="m18 17h4v2h-4z"/><path d="m18 22h4v2h-4z"/><path d="m25 7h23v2h-23z"/><path d="m25 12h23v2h-23z"/><path d="m25 17h23v2h-23z"/><path d="m25 22h23v2h-23z"/></g><path d="m47 29h-1v-1h-2v1h-1a1 1 0 0 0 -1 1v4a1 1 0 0 0 1 1h3v2h-2v-1h-2v2a1 1 0 0 0 1 1h1v1h2v-1h1a1 1 0 0 0 1-1v-4a1 1 0 0 0 -1-1h-3v-2h2v1h2v-2a1 1 0 0 0 -1-1z" fill="#ec455a"/><path d="m25 36h2v2h-2z" fill="#fff"/><path d="m21 36h2v2h-2z" fill="#fff"/><path d="m37 29h3v2h-3z" fill="#1a6fb0"/><path d="m37 33h3v2h-3z" fill="#1a6fb0"/><path d="m37 37h3v2h-3z" fill="#1a6fb0"/></g></svg>