<svg version="1.1" id="Capa_1" xmlns="http://www.w3.org/2000/svg" xmlns:xlink="http://www.w3.org/1999/xlink" x="0px" y="0px" viewBox="0 0 511.791 511.791" style="enable-background:new 0 0 511.791 511.791;" xml:space="preserve">
<g>
	<g>
		<path style="fill:#FFF5C6;" d="M337.923,504.291H48.51c-11.673,0-21.137-9.463-21.137-21.137V101.082&#10;&#9;&#9;&#9;c0-11.673,9.463-21.137,21.137-21.137h289.412c11.673,0,21.137,9.463,21.137,21.137v382.072&#10;&#9;&#9;&#9;C359.059,494.828,349.596,504.291,337.923,504.291z"/>
		<path style="fill:#FCEDB1;" d="M359.06,101.081v382.07c0,11.68-9.46,21.14-21.14,21.14h-40.04c11.67,0,21.13-9.46,21.13-21.14&#10;&#9;&#9;&#9;v-382.07c0-11.67-9.46-21.14-21.13-21.14h40.04C349.6,79.941,359.06,89.411,359.06,101.081z"/>
		<path style="fill:#FFF9E2;" d="M363.923,467.964H74.51c-11.673,0-21.137-9.463-21.137-21.137V64.755&#10;&#9;&#9;&#9;c0-11.673,9.463-21.137,21.137-21.137h289.412c11.673,0,21.137,9.463,21.137,21.137v382.072&#10;&#9;&#9;&#9;C385.059,458.501,375.596,467.964,363.923,467.964z"/>
		<path style="fill:#FFF5C6;" d="M385.06,64.751v382.08c0,11.67-9.46,21.13-21.14,21.13h-40.04c11.67,0,21.13-9.46,21.13-21.13&#10;&#9;&#9;&#9;V64.751c0-11.67-9.46-21.13-21.13-21.13h40.04C375.6,43.621,385.06,53.081,385.06,64.751z"/>
		<g>
			<path style="fill:#60B7FF;" d="M484.421,131.111c0.024,68.076-55.168,123.607-123.611,123.611&#10;&#9;&#9;&#9;&#9;c-68.44-0.007-123.633-55.537-123.611-123.611C237.198,62.842,292.54,7.5,360.81,7.5S484.421,62.842,484.421,131.111z"/>
		</g>
		<g>
			<path style="fill:#26A6FE;" d="M484.42,131.111c0.03,68.08-55.17,123.61-123.61,123.61c-11,0-21.65-1.43-31.79-4.12&#10;&#9;&#9;&#9;&#9;c52.97-14.05,91.85-62.35,91.83-119.49c0-57.28-38.96-105.46-91.83-119.48c10.14-2.7,20.8-4.13,31.79-4.13&#10;&#9;&#9;&#9;&#9;C429.08,7.501,484.42,62.841,484.42,131.111z"/>
		</g>
		<g>
			<g>
				<g>
					<g>
						<path style="fill:#C4E2FF;" d="M359.712,131.112c-14.698,14.698-38.613,14.698-53.311,0l-17.086-17.086&#10;&#9;&#9;&#9;&#9;&#9;&#9;&#9;c-14.698-14.698-14.698-38.613,0-53.311c14.698-14.698,38.614-14.698,53.312,0L359.713,77.8&#10;&#9;&#9;&#9;&#9;&#9;&#9;&#9;C374.411,92.498,374.411,116.413,359.712,131.112z M307.035,78.434c-4.928,4.928-4.927,12.945,0,17.873l17.086,17.086&#10;&#9;&#9;&#9;&#9;&#9;&#9;&#9;c4.928,4.928,12.945,4.928,17.873,0c4.928-4.928,4.928-12.946,0-17.873l-17.086-17.086&#10;&#9;&#9;&#9;&#9;&#9;&#9;&#9;C319.98,73.506,311.962,73.506,307.035,78.434z"/>
					</g>
				</g>
				<g>
					<g>
						<path style="fill:#D8ECFE;" d="M430.109,201.509c-14.698,14.698-38.613,14.698-53.311,0l-17.086-17.086&#10;&#9;&#9;&#9;&#9;&#9;&#9;&#9;c-14.698-14.698-14.698-38.613,0-53.311c14.698-14.698,38.614-14.698,53.312,0l17.086,17.086&#10;&#9;&#9;&#9;&#9;&#9;&#9;&#9;C444.808,162.895,444.808,186.81,430.109,201.509z M377.432,148.831c-4.928,4.928-4.927,12.945,0,17.873l17.086,17.086&#10;&#9;&#9;&#9;&#9;&#9;&#9;&#9;c4.928,4.928,12.945,4.928,17.873,0s4.928-12.946,0-17.873l-17.086-17.086C390.377,143.903,382.359,143.903,377.432,148.831z"/>
					</g>
				</g>
				<g>
					<g>
						<path style="fill:#C4E2FF;" d="M430.11,148.201l-9.49-9.49c-0.64,10.62-2.63,20.89-5.79,30.63c2.28,4.7,1.46,10.55-2.44,14.45&#10;&#9;&#9;&#9;&#9;&#9;&#9;&#9;c-1.39,1.39-3.02,2.39-4.76,2.99c-4.34,8.6-9.66,16.62-15.8,23.93c13.05,4.21,27.94,1.14,38.28-9.2&#10;&#9;&#9;&#9;&#9;&#9;&#9;&#9;C444.81,186.811,444.81,162.891,430.11,148.201z"/>
					</g>
				</g>
				<path style="fill:#B3DAFE;" d="M388.148,159.547L388.148,159.547c-4.935,4.935-12.937,4.935-17.873,0l-38.997-38.997&#10;&#9;&#9;&#9;&#9;&#9;c-4.935-4.935-4.935-12.937,0-17.873l0,0c4.935-4.935,12.937-4.935,17.873,0l38.997,38.997&#10;&#9;&#9;&#9;&#9;&#9;C393.083,146.609,393.083,154.611,388.148,159.547z"/>
			</g>
		</g>
		<polygon style="fill:#FEE97D;" points="209.145,427.964 93.374,427.964 93.374,300.379 179.734,300.379 209.145,330.6 &#9;&#9;"/>
		<path style="fill:#FCDC59;" d="M209.15,330.601v97.36h-27.51v-92.34c0-3.219-1.256-6.31-3.501-8.617l-25.909-26.623h27.5&#10;&#9;&#9;&#9;L209.15,330.601z"/>
		<path style="fill:#D9B1EE;" d="M242.537,387.601H183.55c-7.917,0-14.334-6.418-14.334-14.334v0&#10;&#9;&#9;&#9;c0-7.917,6.418-14.334,14.334-14.334h58.987c7.917,0,14.334,6.418,14.334,14.334v0&#10;&#9;&#9;&#9;C256.871,381.183,250.453,387.601,242.537,387.601z"/>
	</g>
	<g>
		<g>
			<path style="fill:none;stroke:#000000;stroke-width:15;stroke-linecap:round;stroke-linejoin:round;stroke-miterlimit:10;" d="&#10;&#9;&#9;&#9;&#9;M484.421,131.111c0.024,68.076-55.168,123.607-123.611,123.611c-68.44-0.007-123.633-55.537-123.611-123.611&#10;&#9;&#9;&#9;&#9;C237.198,62.842,292.54,7.5,360.81,7.5S484.421,62.842,484.421,131.111z"/>
		</g>
		<path style="fill:none;stroke:#000000;stroke-width:15;stroke-linecap:round;stroke-linejoin:round;stroke-miterlimit:10;" d="&#10;&#9;&#9;&#9;M359.06,467.961v15.19c0,11.68-9.46,21.14-21.14,21.14H48.51c-11.67,0-21.14-9.46-21.14-21.14v-382.07&#10;&#9;&#9;&#9;c0-11.67,9.47-21.14,21.14-21.14h4.86"/>
		<path style="fill:none;stroke:#000000;stroke-width:15;stroke-linecap:round;stroke-linejoin:round;stroke-miterlimit:10;" d="&#10;&#9;&#9;&#9;M385.06,288.168v158.663c0,11.67-9.46,21.13-21.14,21.13H74.51c-11.67,0-21.14-9.46-21.14-21.13V64.751&#10;&#9;&#9;&#9;c0-11.67,9.47-21.13,21.14-21.13h198.97"/>
		<g>
			<g>
				<path style="fill:none;stroke:#000000;stroke-width:15;stroke-linecap:round;stroke-linejoin:round;stroke-miterlimit:10;" d="&#10;&#9;&#9;&#9;&#9;&#9;M344.81,99.841c-0.61-1.57-1.55-3.05-2.82-4.32l-17.08-17.09c-4.93-4.92-12.95-4.92-17.88,0c-4.92,4.93-4.92,12.95,0.01,17.88&#10;&#9;&#9;&#9;&#9;&#9;l17.08,17.08c1.27,1.27,2.75,2.21,4.32,2.82 M349.23,138.501c-14,6.64-31.26,4.18-42.83-7.39l-17.08-17.09&#10;&#9;&#9;&#9;&#9;&#9;c-14.7-14.69-14.7-38.61,0-53.31c14.69-14.69,38.61-14.69,53.31,0l17.08,17.09c11.57,11.57,14.03,28.83,7.39,42.83"/>
			</g>
			<g>
				<path style="fill:none;stroke:#000000;stroke-width:15;stroke-linecap:round;stroke-linejoin:round;stroke-miterlimit:10;" d="&#10;&#9;&#9;&#9;&#9;&#9;M370.19,123.721c14-6.64,31.27-4.18,42.83,7.39l17.09,17.09c14.7,14.69,14.7,38.61,0,53.31c-14.7,14.7-38.61,14.7-53.31,0&#10;&#9;&#9;&#9;&#9;&#9;l-17.09-17.09c-11.57-11.57-14.03-28.83-7.39-42.83 M390.98,146.001c1.58,0.61,3.06,1.56,4.33,2.83l17.08,17.09&#10;&#9;&#9;&#9;&#9;&#9;c4.93,4.92,4.93,12.94,0,17.87c-4.93,4.93-12.94,4.93-17.87,0l-17.09-17.09c-1.27-1.27-2.21-2.75-2.83-4.32"/>
			</g>
			<path style="fill:none;stroke:#000000;stroke-width:15;stroke-linecap:round;stroke-linejoin:round;stroke-miterlimit:10;" d="&#10;&#9;&#9;&#9;&#9;M388.148,159.547L388.148,159.547c-4.935,4.935-12.937,4.935-17.873,0l-38.997-38.997c-4.935-4.935-4.935-12.937,0-17.873l0,0&#10;&#9;&#9;&#9;&#9;c4.935-4.935,12.937-4.935,17.873,0l38.997,38.997C393.083,146.609,393.083,154.611,388.148,159.547z"/>
		</g>
		
			<polyline style="fill:none;stroke:#000000;stroke-width:15;stroke-linecap:round;stroke-linejoin:round;stroke-miterlimit:10;" points="&#10;&#9;&#9;&#9;93.37,349.454 93.37,300.381 179.73,300.381 209.15,330.601 209.15,358.931 &#9;&#9;"/>
		
			<polyline style="fill:none;stroke:#000000;stroke-width:15;stroke-linecap:round;stroke-linejoin:round;stroke-miterlimit:10;" points="&#10;&#9;&#9;&#9;209.15,387.601 209.15,427.961 93.37,427.961 93.37,384.558 &#9;&#9;"/>
		<path style="fill:none;stroke:#000000;stroke-width:15;stroke-linecap:round;stroke-linejoin:round;stroke-miterlimit:10;" d="&#10;&#9;&#9;&#9;M242.537,387.601H183.55c-7.917,0-14.334-6.418-14.334-14.334v0c0-7.917,6.418-14.334,14.334-14.334h58.987&#10;&#9;&#9;&#9;c7.917,0,14.334,6.418,14.334,14.334v0C256.871,381.183,250.453,387.601,242.537,387.601z"/>
		
			<line style="fill:none;stroke:#000000;stroke-width:15;stroke-linecap:round;stroke-linejoin:round;stroke-miterlimit:10;" x1="93.374" y1="131.111" x2="157.286" y2="131.111"/>
		
			<line style="fill:none;stroke:#000000;stroke-width:15;stroke-linecap:round;stroke-linejoin:round;stroke-miterlimit:10;" x1="93.374" y1="159.319" x2="157.286" y2="159.319"/>
		
			<line style="fill:none;stroke:#000000;stroke-width:15;stroke-linecap:round;stroke-linejoin:round;stroke-miterlimit:10;" x1="93.374" y1="187.526" x2="209.145" y2="187.526"/>
		
			<line style="fill:none;stroke:#000000;stroke-width:15;stroke-linecap:round;stroke-linejoin:round;stroke-miterlimit:10;" x1="93.374" y1="215.733" x2="209.145" y2="215.733"/>
		
			<line style="fill:none;stroke:#000000;stroke-width:15;stroke-linecap:round;stroke-linejoin:round;stroke-miterlimit:10;" x1="93.374" y1="243.94" x2="209.145" y2="243.94"/>
		
			<line style="fill:none;stroke:#000000;stroke-width:15;stroke-linecap:round;stroke-linejoin:round;stroke-miterlimit:10;" x1="272.097" y1="300.4" x2="348.711" y2="300.4"/>
		
			<line style="fill:none;stroke:#000000;stroke-width:15;stroke-linecap:round;stroke-linejoin:round;stroke-miterlimit:10;" x1="272.097" y1="328.528" x2="348.711" y2="328.528"/>
	</g>
</g>
<g>
</g>
<g>
</g>
<g>
</g>
<g>
</g>
<g>
</g>
<g>
</g>
<g>
</g>
<g>
</g>
<g>
</g>
<g>
</g>
<g>
</g>
<g>
</g>
<g>
</g>
<g>
</g>
<g>
</g>
</svg>