<?xml version="1.0" encoding="UTF-8" standalone="no"?>
<!-- Created with Inkscape (http://www.inkscape.org/) -->

<svg
   version="1.1"
   id="svg1803"
   xml:space="preserve"
   width="682.66669"
   height="682.66669"
   viewBox="0 0 682.66669 682.66669"
   xmlns="http://www.w3.org/2000/svg"
   xmlns:svg="http://www.w3.org/2000/svg"><defs
     id="defs1807"><clipPath
       clipPathUnits="userSpaceOnUse"
       id="clipPath1817"><path
         d="M 0,512 H 512 V 0 H 0 Z"
         id="path1815" /></clipPath></defs><g
     id="g1809"
     transform="matrix(1.3333333,0,0,-1.3333333,0,682.66667)"><g
       id="g1811"><g
         id="g1813"
         clip-path="url(#clipPath1817)"><g
           id="g1819"
           transform="translate(512,256)"><path
             d="m 0,0 c 0,-141.385 -114.615,-256 -256,-256 -141.385,0 -256,114.615 -256,256 0,141.385 114.615,256 256,256 C -114.615,256 0,141.385 0,0"
             style="fill:#fed402;fill-opacity:1;fill-rule:nonzero;stroke:none"
             id="path1821" /></g><g
           id="g1823"
           transform="translate(351.9863,131.4702)"><path
             d="m 0,0 h -237.985 c -17.805,0 -32.239,14.434 -32.239,32.239 0,17.804 14.434,32.239 32.239,32.239 H 0 c 17.805,0 32.238,-14.435 32.238,-32.239 C 32.238,14.434 17.805,0 0,0"
             style="fill:#0091c8;fill-opacity:1;fill-rule:nonzero;stroke:none"
             id="path1825" /></g><g
           id="g1827"
           transform="translate(375.5088,328.1592)"><path
             d="M 0,0 16.591,16.591 33.182,0 l 16.59,16.591 0.91,-0.908 v 79.741 c 0,21.901 -17.755,39.656 -39.657,39.656 H -101.964 V -2.752 h 66.03 l 19.343,19.343 z"
             style="fill:#afe6ff;fill-opacity:1;fill-rule:nonzero;stroke:none"
             id="path1829" /></g><g
           id="g1831"
           transform="translate(339.5752,325.4072)"><path
             d="m 0,0 19.343,19.343 10.23,-10.23 v 89.063 c 0,18.034 12.042,33.246 28.521,38.059 -3.533,1.033 -7.268,1.597 -11.135,1.597 H -66.03 V 0 Z"
             style="fill:#94deff;fill-opacity:1;fill-rule:nonzero;stroke:none"
             id="path1833" /></g><g
           id="g1835"
           transform="translate(344.5693,152.4692)"><path
             d="m 0,0 h -223.483 c -5.77,0 -10.447,4.677 -10.447,10.446 0,5.769 4.677,10.446 10.447,10.446 H 0 c 5.77,0 10.446,-4.677 10.446,-10.446 C 10.446,4.677 5.77,0 0,0"
             style="fill:#0073aa;fill-opacity:1;fill-rule:nonzero;stroke:none"
             id="path1837" /></g><g
           id="g1839"
           transform="translate(384.2246,463.2388)"><path
             d="m 0,0 h -223.483 c -21.902,0 -39.656,-17.754 -39.656,-39.656 V -300.323 H -39.655 V -39.656 C -39.655,-17.754 -21.901,0 0,0"
             style="fill:#ffffff;fill-opacity:1;fill-rule:nonzero;stroke:none"
             id="path1841" /></g><g
           id="g1843"
           transform="translate(192.6943,463.2388)"><path
             d="m 0,0 h -31.953 c -21.901,0 -39.656,-17.754 -39.656,-39.656 v -260.667 h 31.953 V -39.656 C -39.656,-17.754 -21.901,0 0,0"
             style="fill:#e1faff;fill-opacity:1;fill-rule:nonzero;stroke:none"
             id="path1845" /></g><path
           d="m 244.067,374.09 h -91.029 v 20.938 h 91.029 z"
           style="fill:#6ee1ff;fill-opacity:1;fill-rule:nonzero;stroke:none"
           id="path1847" /><path
           d="m 313.305,374.09 h -31.974 v 20.938 h 31.974 z"
           style="fill:#fe646f;fill-opacity:1;fill-rule:nonzero;stroke:none"
           id="path1849" /><path
           d="m 244.067,316.948 h -91.029 v 20.938 h 91.029 z"
           style="fill:#6ee1ff;fill-opacity:1;fill-rule:nonzero;stroke:none"
           id="path1851" /><path
           d="m 313.305,316.948 h -31.974 v 20.938 h 31.974 z"
           style="fill:#fe646f;fill-opacity:1;fill-rule:nonzero;stroke:none"
           id="path1853" /><path
           d="M 244.067,258.062 H 153.038 V 279 h 91.029 z"
           style="fill:#6ee1ff;fill-opacity:1;fill-rule:nonzero;stroke:none"
           id="path1855" /><path
           d="M 313.305,258.062 H 281.331 V 279 h 31.974 z"
           style="fill:#fe646f;fill-opacity:1;fill-rule:nonzero;stroke:none"
           id="path1857" /><path
           d="M 442.008,74.031 H 173.526 v 129.862 h 268.482 z"
           style="fill:#5d913f;fill-opacity:1;fill-rule:nonzero;stroke:none"
           id="path1859" /><path
           d="M 442.008,203.893 H 173.526 V 74.031 H 442.008 Z M 426.334,89.704 H 189.199 v 98.515 h 237.135 z"
           style="fill:#3d772a;fill-opacity:1;fill-rule:nonzero;stroke:none"
           id="path1861" /><g
           id="g1863"
           transform="translate(173.5259,166.9917)"><path
             d="m 0,0 c 4.286,-2.997 9.499,-4.76 15.125,-4.76 14.601,0 26.436,11.836 26.436,26.436 0,5.671 -1.791,10.92 -4.831,15.225 H 0 Z"
             style="fill:#3d772a;fill-opacity:1;fill-rule:nonzero;stroke:none"
             id="path1865" /></g><g
           id="g1867"
           transform="translate(188.6509,115.2944)"><path
             d="m 0,0 c -5.626,0 -10.839,-1.763 -15.125,-4.76 v -36.504 h 37.013 c 2.87,4.229 4.548,9.332 4.548,14.827 C 26.436,-11.836 14.601,0 0,0"
             style="fill:#3d772a;fill-opacity:1;fill-rule:nonzero;stroke:none"
             id="path1869" /></g><g
           id="g1871"
           transform="translate(397.5879,188.668)"><path
             d="m 0,0 c 0,-14.601 11.836,-26.437 26.437,-26.437 6.947,0 13.264,2.685 17.983,7.067 V 15.225 H 4.83 C 1.791,10.919 0,5.67 0,0"
             style="fill:#3d772a;fill-opacity:1;fill-rule:nonzero;stroke:none"
             id="path1873" /></g><g
           id="g1875"
           transform="translate(442.0078,108.2275)"><path
             d="m 0,0 c -4.719,4.383 -11.036,7.067 -17.983,7.067 -14.601,0 -26.437,-11.836 -26.437,-26.437 0,-5.495 1.678,-10.598 4.548,-14.827 H 0 Z"
             style="fill:#3d772a;fill-opacity:1;fill-rule:nonzero;stroke:none"
             id="path1877" /></g><g
           id="g1879"
           transform="translate(351.8984,138.9619)"><path
             d="m 0,0 c 0,-24.374 -19.759,-44.132 -44.132,-44.132 -24.373,0 -44.131,19.758 -44.131,44.132 0,24.373 19.758,44.131 44.131,44.131 C -19.759,44.131 0,24.373 0,0"
             style="fill:#3d772a;fill-opacity:1;fill-rule:nonzero;stroke:none"
             id="path1881" /></g><path
           d="M 251.128,130.602 H 200.42 v 16.719 h 50.708 z"
           style="fill:#6eaa50;fill-opacity:1;fill-rule:nonzero;stroke:none"
           id="path1883" /><path
           d="M 415.178,130.602 H 364.47 v 16.719 h 50.708 z"
           style="fill:#6eaa50;fill-opacity:1;fill-rule:nonzero;stroke:none"
           id="path1885" /><g
           id="g1887"
           transform="translate(310.1387,133.998)"><path
             d="m 0,0 v -11.112 c 2.423,0.784 4.061,2.565 4.061,5.913 C 4.061,-2.493 2.423,-0.997 0,0 m -5.343,10.33 v 10.257 c -2.279,-0.784 -3.703,-2.421 -3.703,-5.271 0,-2.565 1.424,-3.919 3.703,-4.986 m 0,-28.851 c -4.7,0.144 -8.548,0.999 -12.251,2.708 v 10.614 l 7.052,0.498 v -4.132 c 0,-1.282 0.214,-1.78 1.424,-2.208 0.997,-0.356 2.351,-0.569 3.775,-0.569 V 1.711 c -6.553,1.781 -12.465,4.559 -12.465,12.821 0,7.124 4.915,11.896 12.465,12.965 V 34.05 H 0 V 27.639 C 3.847,27.425 7.551,26.57 11.042,24.933 V 14.889 L 4.061,14.46 v 3.848 c 0,1.282 -0.214,1.78 -1.424,2.207 C 1.853,20.729 0.927,20.944 0,21.014 V 8.478 H 0.071 C 6.34,6.553 12.893,3.775 12.893,-4.844 12.893,-12.536 7.551,-17.167 0,-18.306 v -7.337 h -5.343 z"
             style="fill:#6eaa50;fill-opacity:1;fill-rule:nonzero;stroke:none"
             id="path1889" /></g><path
           d="M 477.301,39.706 H 208.819 v 129.862 h 268.482 z"
           style="fill:#97d729;fill-opacity:1;fill-rule:nonzero;stroke:none"
           id="path1891" /><path
           d="M 477.301,169.568 H 208.819 V 39.706 H 477.301 Z M 461.627,55.379 H 224.492 v 98.515 h 237.135 z"
           style="fill:#6eaa50;fill-opacity:1;fill-rule:nonzero;stroke:none"
           id="path1893" /><g
           id="g1895"
           transform="translate(208.8188,132.667)"><path
             d="m 0,0 c 4.286,-2.997 9.498,-4.76 15.125,-4.76 14.6,0 26.436,11.836 26.436,26.436 0,5.671 -1.791,10.92 -4.831,15.225 H 0 Z"
             style="fill:#6eaa50;fill-opacity:1;fill-rule:nonzero;stroke:none"
             id="path1897" /></g><g
           id="g1899"
           transform="translate(223.9438,80.9697)"><path
             d="m 0,0 c -5.627,0 -10.839,-1.763 -15.125,-4.76 v -36.504 h 37.013 c 2.87,4.229 4.548,9.332 4.548,14.827 C 26.436,-11.836 14.6,0 0,0"
             style="fill:#6eaa50;fill-opacity:1;fill-rule:nonzero;stroke:none"
             id="path1901" /></g><g
           id="g1903"
           transform="translate(432.8809,154.3433)"><path
             d="m 0,0 c 0,-14.601 11.836,-26.437 26.436,-26.437 6.948,0 13.265,2.685 17.984,7.067 V 15.225 H 4.83 C 1.791,10.919 0,5.67 0,0"
             style="fill:#6eaa50;fill-opacity:1;fill-rule:nonzero;stroke:none"
             id="path1905" /></g><g
           id="g1907"
           transform="translate(477.3008,73.9028)"><path
             d="m 0,0 c -4.719,4.383 -11.036,7.067 -17.984,7.067 -14.6,0 -26.436,-11.836 -26.436,-26.437 0,-5.495 1.678,-10.598 4.548,-14.827 H 0 Z"
             style="fill:#6eaa50;fill-opacity:1;fill-rule:nonzero;stroke:none"
             id="path1909" /></g><g
           id="g1911"
           transform="translate(387.1914,104.6372)"><path
             d="m 0,0 c 0,-24.374 -19.759,-44.132 -44.132,-44.132 -24.373,0 -44.132,19.758 -44.132,44.132 0,24.373 19.759,44.131 44.132,44.131 C -19.759,44.131 0,24.373 0,0"
             style="fill:#6eaa50;fill-opacity:1;fill-rule:nonzero;stroke:none"
             id="path1913" /></g><path
           d="m 286.422,96.277 h -50.708 v 16.719 h 50.708 z"
           style="fill:#8bc727;fill-opacity:1;fill-rule:nonzero;stroke:none"
           id="path1915" /><path
           d="m 450.471,96.277 h -50.708 v 16.719 h 50.708 z"
           style="fill:#8bc727;fill-opacity:1;fill-rule:nonzero;stroke:none"
           id="path1917" /><g
           id="g1919"
           transform="translate(345.4316,99.6733)"><path
             d="m 0,0 v -11.112 c 2.423,0.784 4.061,2.565 4.061,5.913 C 4.061,-2.493 2.423,-0.997 0,0 m -5.343,10.33 v 10.257 c -2.279,-0.784 -3.703,-2.421 -3.703,-5.271 0,-2.565 1.424,-3.919 3.703,-4.986 m 0,-28.851 c -4.7,0.144 -8.548,0.999 -12.251,2.708 v 10.614 l 7.052,0.498 v -4.132 c 0,-1.282 0.214,-1.78 1.424,-2.208 0.997,-0.356 2.351,-0.569 3.775,-0.569 V 1.711 c -6.553,1.781 -12.465,4.559 -12.465,12.821 0,7.124 4.914,11.896 12.465,12.965 V 34.05 H 0 V 27.639 C 3.847,27.425 7.551,26.57 11.042,24.933 V 14.889 L 4.061,14.46 v 3.848 c 0,1.282 -0.214,1.78 -1.425,2.207 C 1.853,20.729 0.927,20.944 0,21.014 V 8.478 H 0.071 C 6.34,6.553 12.893,3.775 12.893,-4.844 12.893,-12.536 7.551,-17.167 0,-18.306 v -7.337 h -5.343 z"
             style="fill:#97d729;fill-opacity:1;fill-rule:nonzero;stroke:none"
             id="path1921" /></g><g
           id="g1923"
           transform="translate(151.2803,63.3052)"><path
             d="m 0,0 c 0,-30.896 -25.047,-55.943 -55.943,-55.943 -30.897,0 -55.943,25.047 -55.943,55.943 0,30.896 25.046,55.943 55.943,55.943 C -25.047,55.943 0,30.896 0,0"
             style="fill:#fee45a;fill-opacity:1;fill-rule:nonzero;stroke:none"
             id="path1925" /></g><g
           id="g1927"
           transform="translate(95.3369,99.8662)"><path
             d="m 0,0 c 23.241,0 42.311,-17.816 44.322,-40.535 0.116,1.31 0.186,2.634 0.186,3.974 0,24.582 -19.927,44.508 -44.508,44.508 -24.581,0 -44.508,-19.926 -44.508,-44.508 0,-1.34 0.07,-2.664 0.186,-3.974 C -42.311,-17.816 -23.241,0 0,0"
             style="fill:#ffd23c;fill-opacity:1;fill-rule:nonzero;stroke:none"
             id="path1929" /></g><g
           id="g1931"
           transform="translate(95.3369,119.2485)"><path
             d="m 0,0 c -30.896,0 -55.943,-25.047 -55.943,-55.943 0,-30.897 25.047,-55.944 55.943,-55.944 30.896,0 55.943,25.047 55.943,55.944 C 55.943,-25.047 30.896,0 0,0 m 0,-11.921 c 24.274,0 44.022,-19.748 44.022,-44.022 0,-24.274 -19.748,-44.022 -44.022,-44.022 -24.274,0 -44.022,19.748 -44.022,44.022 0,24.274 19.748,44.022 44.022,44.022"
             style="fill:#faf58c;fill-opacity:1;fill-rule:nonzero;stroke:none"
             id="path1933" /></g><g
           id="g1935"
           transform="translate(98.3438,57.0132)"><path
             d="m 0,0 v -14.086 c 3.071,0.993 5.147,3.251 5.147,7.495 C 5.147,-3.16 3.071,-1.264 0,0 m -6.772,13.095 v 13.002 c -2.89,-0.993 -4.695,-3.069 -4.695,-6.682 0,-3.251 1.805,-4.967 4.695,-6.32 m 0,-36.573 c -5.959,0.182 -10.836,1.267 -15.531,3.433 v 13.454 l 8.94,0.633 v -5.239 c 0,-1.625 0.27,-2.257 1.805,-2.798 1.264,-0.453 2.98,-0.723 4.786,-0.723 V 2.169 c -8.308,2.257 -15.801,5.779 -15.801,16.253 0,9.03 6.229,15.079 15.801,16.434 v 8.308 H 0 v -8.128 c 4.876,-0.27 9.571,-1.355 13.998,-3.431 V 18.874 L 5.147,18.331 v 4.877 c 0,1.625 -0.271,2.257 -1.805,2.798 C 2.348,26.277 1.175,26.549 0,26.638 V 10.747 H 0.091 C 8.037,8.307 16.344,4.786 16.344,-6.141 16.344,-15.891 9.571,-21.761 0,-23.205 v -9.301 h -6.772 z"
             style="fill:#ffd23c;fill-opacity:1;fill-rule:nonzero;stroke:none"
             id="path1937" /></g></g></g></g></svg>
