<svg height="512" viewBox="0 0 24 24" width="512" xmlns="http://www.w3.org/2000/svg" xmlns:xlink="http://www.w3.org/1999/xlink"><linearGradient id="linear-gradient" gradientUnits="userSpaceOnUse" x1="1" x2="23" y1="12" y2="12"><stop offset="0" stop-color="#87f1fc"/><stop offset=".2557" stop-color="#7fd4fb"/><stop offset=".5295" stop-color="#78bcfb"/><stop offset=".7844" stop-color="#74aefa"/><stop offset="1" stop-color="#73a9fa"/></linearGradient><g id="Layer_3" data-name="Layer 3"><path d="m12 1a11 11 0 1 0 11 11 11 11 0 0 0 -11-11zm5.3535 16.3535a.5.5 0 0 1 -.707 0l-2.213-2.2135a4.8273 4.8273 0 0 1 -3.0585 1.11 4.875 4.875 0 1 1 4.875-4.875 4.8265 4.8265 0 0 1 -1.11 3.058l2.213 2.2135a.5.5 0 0 1 .0005.707zm-2.1035-5.9785a3.861 3.861 0 0 1 -1.1219 2.7215c-.0057.0052-.0132.0069-.0187.0124s-.0073.0131-.0125.0188a3.8712 3.8712 0 1 1 1.1531-2.7527z" fill="url(#linear-gradient)"/></g></svg>