<svg viewBox="0 0 512 512" xmlns="http://www.w3.org/2000/svg" xmlns:xlink="http://www.w3.org/1999/xlink"><linearGradient id="linear-gradient" gradientUnits="userSpaceOnUse" x1="74.98" x2="437.02" y1="74.98" y2="437.02"><stop offset="0" stop-color="#48d6e2"/><stop offset="1" stop-color="#058fd0"/></linearGradient><linearGradient id="linear-gradient-2" gradientUnits="userSpaceOnUse" x1="146.39" x2="437.01" y1="146.39" y2="437.01"><stop offset="0" stop-color="#0073a0"/><stop offset="1" stop-color="#0073a0" stop-opacity="0"/></linearGradient><g id="Layer_2" data-name="Layer 2"><g id="Layer_2_copy_8" data-name="Layer 2 copy 8"><g id="_104" data-name="104"><circle id="background" cx="256" cy="256" fill="url(#linear-gradient)" r="256"/><path d="m509.69 290.48c-15.32 113.8-105.41 203.89-219.21 219.21l-154.65-154.69-1.61-11.84 13.3-23.46-39.29-39.29-7.23-9.47v-29.88l7.23-9.51 33.29-9.22 9.72-23.47-17-30.06 1.59-11.8 21.17-21.17 11.84-1.61 30.06 17 23.47-9.72 9.22-33.29 9.51-7.23h29.88l9.51 7.23 39.14 39.14 23.61-13.15 11.76 1.63z" fill="url(#linear-gradient-2)"/><path d="m403.77 231.55-33.29-9.22a117.81 117.81 0 0 0 -9.72-23.47l17-30.06a9.89 9.89 0 0 0 -1.59-11.8l-21.17-21.17a9.89 9.89 0 0 0 -11.84-1.61l-30.06 17a117.81 117.81 0 0 0 -23.47-9.72l-9.22-33.29a9.88 9.88 0 0 0 -9.51-7.23h-29.84a9.88 9.88 0 0 0 -9.51 7.23l-9.22 33.29a117.81 117.81 0 0 0 -23.47 9.72l-30.06-17a9.89 9.89 0 0 0 -11.8 1.61l-21.17 21.17a9.89 9.89 0 0 0 -1.61 11.84l17 30.06a117.81 117.81 0 0 0 -9.72 23.47l-33.29 9.22a9.88 9.88 0 0 0 -7.23 9.51v29.88a9.88 9.88 0 0 0 7.23 9.51l33.29 9.22a117.81 117.81 0 0 0 9.72 23.47l-17 30.06a9.89 9.89 0 0 0 1.61 11.76l21.17 21.17a9.89 9.89 0 0 0 11.84 1.61l30.06-17a117.81 117.81 0 0 0 23.47 9.72l9.22 33.29a9.88 9.88 0 0 0 9.51 7.23h29.88a9.88 9.88 0 0 0 9.51-7.23l9.22-33.29a117.81 117.81 0 0 0 23.47-9.72l30.06 17a9.89 9.89 0 0 0 11.76-1.61l21.17-21.17a9.89 9.89 0 0 0 1.61-11.84l-17-30.06a117.81 117.81 0 0 0 9.72-23.47l33.29-9.22a9.88 9.88 0 0 0 7.23-9.51v-29.84a9.88 9.88 0 0 0 -7.25-9.51zm-147.77 69.19a44.74 44.74 0 1 1 44.74-44.74 44.74 44.74 0 0 1 -44.74 44.74z" fill="#fff"/></g></g></g></svg>