<svg id="Smooth" enable-background="new 0 0 128 128" height="512" viewBox="0 0 128 128" width="512" xmlns="http://www.w3.org/2000/svg" xmlns:xlink="http://www.w3.org/1999/xlink"><linearGradient id="lg1"><stop offset="0" stop-color="#58595b"/><stop offset="1" stop-color="#414042"/></linearGradient><linearGradient id="SVGID_1_" gradientTransform="matrix(-1 0 0 1 58 0)" gradientUnits="userSpaceOnUse" x1="-37.5" x2="-37.5" xlink:href="#lg1" y1="-28.25" y2="142.252"/><linearGradient id="SVGID_2_" gradientTransform="matrix(-1 0 0 1 58 0)" gradientUnits="userSpaceOnUse" x1="-58.995" x2="-58.995" xlink:href="#lg1" y1="-29.25" y2="141.252"/><linearGradient id="lg2"><stop offset="0" stop-color="#93634d"/><stop offset="1" stop-color="#93634d"/></linearGradient><linearGradient id="SVGID_3_" gradientTransform="matrix(-1 0 0 1 58 0)" gradientUnits="userSpaceOnUse" x1="-64" x2="-16" xlink:href="#lg2" y1="87" y2="87"/><linearGradient id="lg3"><stop offset="0" stop-color="#d69b61"/><stop offset="1" stop-color="#c17e51"/></linearGradient><linearGradient id="SVGID_4_" gradientTransform="matrix(-1 0 0 1 58 0)" gradientUnits="userSpaceOnUse" x1="-68" x2="-58" xlink:href="#lg3" y1="60" y2="60"/><linearGradient id="lg4"><stop offset="0" stop-color="#dfb082"/><stop offset="1" stop-color="#cb936d"/></linearGradient><linearGradient id="SVGID_5_" gradientTransform="matrix(-1 0 0 1 58 0)" gradientUnits="userSpaceOnUse" x1="-60.5" x2="-60.5" xlink:href="#lg4" y1="80" y2="86.353"/><linearGradient id="SVGID_6_" gradientUnits="userSpaceOnUse" x1="76.5" x2="76.5" xlink:href="#lg4" y1="80" y2="86.353"/><linearGradient id="lg5"><stop offset="0" stop-color="#809000"/><stop offset="1" stop-color="#6b7f00"/></linearGradient><linearGradient id="SVGID_7_" gradientUnits="userSpaceOnUse" x1="66.029" x2="67.519" xlink:href="#lg5" y1="24.5" y2="24.5"/><linearGradient id="SVGID_8_" gradientUnits="userSpaceOnUse" x1="56.025" x2="57.515" xlink:href="#lg5" y1="24.5" y2="24.5"/><linearGradient id="SVGID_9_" gradientUnits="userSpaceOnUse" x1="60.025" x2="62.016" y1="21" y2="21"><stop offset="0" stop-color="#a6b046"/><stop offset="1" stop-color="#9ca728"/></linearGradient><linearGradient id="SVGID_10_" gradientUnits="userSpaceOnUse" x1="64" x2="64" y1="53.625" y2="58.375"><stop offset="0" stop-color="#f0d2b6"/><stop offset=".6667" stop-color="#fdc9ae"/></linearGradient><linearGradient id="SVGID_11_" gradientUnits="userSpaceOnUse" x1="64" x2="64" xlink:href="#lg4" y1="32.013" y2="33.008"/><linearGradient id="SVGID_12_" gradientUnits="userSpaceOnUse" x1="32.5" x2="32.5" xlink:href="#lg1" y1="-28.25" y2="142.252"/><linearGradient id="SVGID_13_" gradientUnits="userSpaceOnUse" x1="11.005" x2="11.005" xlink:href="#lg1" y1="-29.25" y2="141.252"/><linearGradient id="SVGID_14_" gradientUnits="userSpaceOnUse" x1="6" x2="54" xlink:href="#lg2" y1="87" y2="87"/><linearGradient id="SVGID_15_" gradientUnits="userSpaceOnUse" x1="2" x2="12" xlink:href="#lg3" y1="60" y2="60"/><linearGradient id="SVGID_16_" gradientUnits="userSpaceOnUse" x1="9.5" x2="9.5" xlink:href="#lg4" y1="80" y2="86.353"/><linearGradient id="SVGID_17_" gradientTransform="matrix(-1 0 0 1 -1519 0)" gradientUnits="userSpaceOnUse" x1="-1570.5" x2="-1570.5" xlink:href="#lg4" y1="80" y2="86.353"/><linearGradient id="SVGID_18_" gradientUnits="userSpaceOnUse" x1="29.5" x2="29.5" xlink:href="#lg3" y1="91.932" y2="141.405"/><linearGradient id="SVGID_19_" gradientUnits="userSpaceOnUse" x1="98.5" x2="98.5" xlink:href="#lg3" y1="91.932" y2="141.405"/><linearGradient id="lg6"><stop offset="0" stop-color="#ffac27"/><stop offset=".9973" stop-color="#ffbe5f"/></linearGradient><linearGradient id="SVGID_20_" gradientUnits="userSpaceOnUse" x1="26" x2="54" xlink:href="#lg6" y1="43.5" y2="43.5"/><linearGradient id="SVGID_21_" gradientUnits="userSpaceOnUse" x1="74" x2="102" xlink:href="#lg6" y1="43.5" y2="43.5"/><linearGradient id="SVGID_22_" gradientUnits="userSpaceOnUse" x1="64" x2="64" y1="59.5" y2="72.517"><stop offset="0" stop-color="#f7d0bf"/><stop offset="1" stop-color="#eeae9a"/></linearGradient><linearGradient id="SVGID_23_" gradientUnits="userSpaceOnUse" x1="64" x2="64" y1="83.167" y2="110.185"><stop offset="0" stop-color="#f18774"/><stop offset=".2844" stop-color="#ee8372"/><stop offset=".579" stop-color="#e7766c"/><stop offset=".8773" stop-color="#da6263"/><stop offset="1" stop-color="#d3575e"/></linearGradient><g><g><path d="m95.998 79c11.046 0 18.649 2.999 21.002 4.998 0 0-43-.002-43 0 3.53-1.999 10.952-4.998 21.998-4.998z" fill="url(#SVGID_1_)"/><path d="m122 36c-4.713 2.025-16.78 19.828-5 48z" fill="url(#SVGID_2_)"/><path d="m74.998 90h46.004c.549 0 .998-.449.998-.998v-5.002h-48v5.002c0 .549.449.998.998.998z" fill="url(#SVGID_3_)"/><path d="m116 84h6l4-47c0-.559-.441-1-1-1h-4c-.559 0-1 .441-1 1z" fill="url(#SVGID_4_)"/><path d="m120 90 3 30c0 1-.794 2-2 2-1.009 0-1.844-1.004-2-2l-5-30z" fill="url(#SVGID_5_)"/><path d="m75 90-3 30c0 1 .794 2 2 2 1.009 0 1.844-1.004 2-2l5-30z" fill="url(#SVGID_6_)"/></g><path d="m69.005 13c-6.651 16.472-.172 21.723-.005 23 .167-1.277 6.656-6.528.005-23z" fill="url(#SVGID_7_)"/><path d="m59 13c-6.651 16.472-.167 21.723 0 23 .167-1.277 6.651-6.528 0-23z" fill="url(#SVGID_8_)"/><path d="m64 6c-8.479 20.186-.998 29 0 30 .998-1 8.479-9.814 0-30z" fill="url(#SVGID_9_)"/><path d="m69 47h-10c-.5 0-.952-.502-1-1l-1-11h14l-1 11c-.048.498-.5 1-1 1z" fill="url(#SVGID_10_)"/><path d="m71.971 36h-15.942c-.566 0-1.029-.463-1.029-1.029v-1.942c0-.566.463-1.029 1.029-1.029h15.942c.566 0 1.029.463 1.029 1.029v1.942c0 .566-.463 1.029-1.029 1.029z" fill="url(#SVGID_11_)"/><g><path d="m32.002 79c-11.046 0-18.649 2.999-21.002 4.998 0 0 43-.002 43 0-3.53-1.999-10.952-4.998-21.998-4.998z" fill="url(#SVGID_12_)"/><path d="m6 36c4.713 2.025 16.78 19.828 5 48z" fill="url(#SVGID_13_)"/><path d="m53.002 90h-46.004c-.549 0-.998-.449-.998-.998v-5.002h48v5.002c0 .549-.449.998-.998.998z" fill="url(#SVGID_14_)"/><path d="m12 84h-6l-4-47c0-.559.441-1 1-1h4c.559 0 1 .441 1 1z" fill="url(#SVGID_15_)"/><path d="m8 90-3 30c0 1 .794 2 2 2 1.009 0 1.844-1.004 2-2l5-30z" fill="url(#SVGID_16_)"/><path d="m53 90 3 30c0 1-.794 2-2 2-1.009 0-1.844-1.004-2-2l-5-30z" fill="url(#SVGID_17_)"/></g><path d="m31 55-11 65c0 1 .777 2 2 2 .98 0 1.826-1.036 2-2l15-65z" fill="url(#SVGID_18_)"/><path d="m97 55 11 65c0 1-.777 2-2 2-.98 0-1.826-1.036-2-2l-15-65z" fill="url(#SVGID_19_)"/><path d="m54 40c0 3.866-6.268 7-14 7s-14-3.134-14-7z" fill="url(#SVGID_20_)"/><path d="m102 40c0 3.866-6.268 7-14 7s-14-3.134-14-7z" fill="url(#SVGID_21_)"/><path d="m104.958 55h-81.916c-.573 0-1.042-.469-1.042-1.042v-5.917c0-.572.469-1.041 1.042-1.041h81.917c.573 0 1.042.469 1.042 1.042v5.917c-.001.572-.47 1.041-1.043 1.041z" fill="url(#SVGID_22_)"/><path d="m29 47 35 36 35-36z" fill="url(#SVGID_23_)"/></g></svg>