<svg id="Capa_1" enable-background="new 0 0 512 512" viewBox="0 0 512 512" xmlns="http://www.w3.org/2000/svg"><g><g><path d="m376 0h-240c-22.055 0-40 17.945-40 40v172.008c0 2.875.117 5.758.359 8.633l20.008 240.008c2.391 28.796 26.906 51.351 55.797 51.351h174.43c29.711 0 54.273-23.234 55.906-52.891l13.336-239.984c.109-1.93.164-3.867.164-5.789v-173.336c0-22.055-17.945-40-40-40z" fill="#8a8895"/></g><g><path d="m376 0h-16v510.315c23.371-5.762 41.121-26.164 42.5-51.206l13.336-239.984c.109-1.93.164-3.867.164-5.789v-173.336c0-22.055-17.945-40-40-40z" fill="#5c546a"/></g><g><path d="m152 0h-16c-22.055 0-40 17.945-40 40v172.008c0 2.875.117 5.758.359 8.633l20.008 240.008c1.805 21.747 16.236 39.917 35.633 47.519z" fill="#5c546a"/></g><g><g><path d="m336 488h-160c-4.422 0-8-3.578-8-8s3.578-8 8-8h160c4.422 0 8 3.578 8 8s-3.578 8-8 8z" fill="#5c546a"/></g></g><g><path d="m352 56h-192c-13.255 0-24 10.745-24 24v144c0 8.837 7.163 16 16 16h208c8.837 0 16-7.163 16-16v-144c0-13.255-10.745-24-24-24z" fill="#d7dbe0"/></g><g><path d="m352 72h-192c-4.418 0-8 3.582-8 8v80c0 4.418 3.582 8 8 8h192c4.418 0 8-3.582 8-8v-80c0-4.418-3.582-8-8-8z" fill="#fff"/></g><g><g><path d="m240 136c-4.422 0-8-3.578-8-8v-16c0-4.422 3.578-8 8-8s8 3.578 8 8v16c0 4.422-3.578 8-8 8z" fill="#5c546a"/></g></g><g><g><path d="m208 136c-4.422 0-8-3.578-8-8v-16c0-4.422 3.578-8 8-8s8 3.578 8 8v16c0 4.422-3.578 8-8 8z" fill="#5c546a"/></g></g><g><g><path d="m272 136c-4.422 0-8-3.578-8-8v-16c0-4.422 3.578-8 8-8s8 3.578 8 8v16c0 4.422-3.578 8-8 8z" fill="#5c546a"/></g></g><g><g><path d="m304 136c-4.422 0-8-3.578-8-8v-16c0-4.422 3.578-8 8-8s8 3.578 8 8v16c0 4.422-3.578 8-8 8z" fill="#5c546a"/></g></g><g><path d="m208 304h-32c-4.418 0-8-3.582-8-8v-16c0-4.418 3.582-8 8-8h32c4.418 0 8 3.582 8 8v16c0 4.418-3.582 8-8 8z" fill="#5c546a"/></g><g><path d="m272 304h-32c-4.418 0-8-3.582-8-8v-16c0-4.418 3.582-8 8-8h32c4.418 0 8 3.582 8 8v16c0 4.418-3.582 8-8 8z" fill="#5c546a"/></g><g><path d="m336 304h-32c-4.418 0-8-3.582-8-8v-16c0-4.418 3.582-8 8-8h32c4.418 0 8 3.582 8 8v16c0 4.418-3.582 8-8 8z" fill="#5c546a"/></g><g><path d="m208 352h-32c-4.418 0-8-3.582-8-8v-16c0-4.418 3.582-8 8-8h32c4.418 0 8 3.582 8 8v16c0 4.418-3.582 8-8 8z" fill="#5c546a"/></g><g><path d="m272 352h-32c-4.418 0-8-3.582-8-8v-16c0-4.418 3.582-8 8-8h32c4.418 0 8 3.582 8 8v16c0 4.418-3.582 8-8 8z" fill="#5c546a"/></g><g><path d="m336 352h-32c-4.418 0-8-3.582-8-8v-16c0-4.418 3.582-8 8-8h32c4.418 0 8 3.582 8 8v16c0 4.418-3.582 8-8 8z" fill="#5c546a"/></g><g><path d="m208 400h-32c-4.418 0-8-3.582-8-8v-16c0-4.418 3.582-8 8-8h32c4.418 0 8 3.582 8 8v16c0 4.418-3.582 8-8 8z" fill="#5c546a"/></g><g><path d="m272 400h-32c-4.418 0-8-3.582-8-8v-16c0-4.418 3.582-8 8-8h32c4.418 0 8 3.582 8 8v16c0 4.418-3.582 8-8 8z" fill="#5c546a"/></g><g><path d="m336 400h-32c-4.418 0-8-3.582-8-8v-16c0-4.418 3.582-8 8-8h32c4.418 0 8 3.582 8 8v16c0 4.418-3.582 8-8 8z" fill="#5c546a"/></g><g><path d="m208 448h-32c-4.418 0-8-3.582-8-8v-16c0-4.418 3.582-8 8-8h32c4.418 0 8 3.582 8 8v16c0 4.418-3.582 8-8 8z" fill="#ff4f19"/></g><g><path d="m272 448h-32c-4.418 0-8-3.582-8-8v-16c0-4.418 3.582-8 8-8h32c4.418 0 8 3.582 8 8v16c0 4.418-3.582 8-8 8z" fill="#ffd100"/></g><g><path d="m336 448h-32c-4.418 0-8-3.582-8-8v-16c0-4.418 3.582-8 8-8h32c4.418 0 8 3.582 8 8v16c0 4.418-3.582 8-8 8z" fill="#73d14f"/></g><g><path d="m288 184h-64c-4.418 0-8 3.582-8 8v24c0 4.418 3.582 8 8 8h64c4.418 0 8-3.582 8-8v-24c0-4.418-3.582-8-8-8z" fill="#b8bac0"/></g><g><path d="m352 184h-32c-4.418 0-8 3.582-8 8v24c0 4.418 3.582 8 8 8h32c4.418 0 8-3.582 8-8v-24c0-4.418-3.582-8-8-8z" fill="#b8bac0"/></g><g><path d="m192 184h-32c-4.418 0-8 3.582-8 8v24c0 4.418 3.582 8 8 8h32c4.418 0 8-3.582 8-8v-24c0-4.418-3.582-8-8-8z" fill="#b8bac0"/></g></g><g/><g/><g/><g/><g/><g/><g/><g/><g/><g/><g/><g/><g/><g/><g/></svg>