<svg id="Capa_1" enable-background="new 0 0 512 512" height="512" viewBox="0 0 512 512" width="512" xmlns="http://www.w3.org/2000/svg"><g><path d="m71.39 433.36c-44.21-46.01-71.39-108.51-71.39-177.36 0-141.38 114.62-256 256-256s256 114.62 256 256c0 68.85-27.18 131.35-71.39 177.36z" fill="#ff405c"/><path d="m512 256c0-5.922-.219-11.793-.615-17.615l-183.8-183.47-164.274 155.301 81.94 81.928 107.747 141.216h87.612c44.21-46.01 71.39-108.51 71.39-177.36z" fill="#ea1c81"/><path d="m127.49 290.92h9.07l16.72 23.68 20.3-23.68h82.42l41.452 82.695-41.452 73.882-119.438 34.988c-24.302-12.842-46.29-29.481-65.172-49.126v-86.34c0-30.979 25.12-56.099 56.1-56.099z" fill="#fff"/><path d="m384.51 290.92h-9.07l-16.72 23.68-20.3-23.68h-82.42v156.577l119.438 34.988c24.302-12.842 46.29-29.481 65.172-49.126v-86.34c0-30.979-25.12-56.099-56.1-56.099z" fill="#e0e0e0"/><path d="m173.58 386.89v-95.97h-37.02v191.57c35.66 18.84 76.31 29.51 119.44 29.51l51.921-55.656-51.921-69.454z" fill="#9bda05"/><path d="m338.42 386.89h-82.42v125.11c43.13 0 83.78-10.67 119.44-29.51v-191.57h-37.02z" fill="#57c126"/><g><path d="m256 349.58 31.464-58.66-31.464-51.057h-51.3l-.615 58.722c-.08 9.445-.215 50.995 51.915 50.995z" fill="#ffc1a6"/><path d="m256 349.58v-109.717h51.3l.615 58.722c.08 9.445.215 50.995-51.915 50.995z" fill="#f9a991"/></g><path d="m255.999 74.012c-37.222 0-81.211 28.252-84.793 79.563-9.625 1.757-16.463 13.669-15.387 23.3l1.65 21.918c1.129 10.114 10.552 17.498 20.936 16.399l1.791-.183c7.27 18.397 15.942 31.175 25.056 40.14 17.574 17.298 36.713 22.526 50.747 22.526l45.791-82.115z" fill="#ffdcc0"/><g><path d="m306.745 255.149c9.113-8.965 17.786-21.743 25.056-40.14l1.791.183c10.384 1.099 19.807-6.285 20.936-16.399l1.65-21.918c1.077-9.631-5.761-21.543-15.387-23.3-3.582-51.31-47.568-79.562-84.79-79.563v203.662c14.172.001 33.171-5.228 50.744-22.525z" fill="#ffc1a6"/></g><g><path d="m166.421 126.131-.545 24.332c0 19.294 14.295 39.906 14.295 39.906l21.459-56.834c17.004 9.685 35.687 14.527 54.37 14.527l50.145-44.657-50.145-56.049c-18.595 0-82.236 10.277-89.579 78.775z" fill="#42527f"/></g><path d="m310.37 133.534 21.458 56.834s15.176-24.424 13.75-64.237c-2.465-68.846-70.983-78.775-89.578-78.775v100.705c18.683 0 37.366-4.842 54.37-14.527z" fill="#2d3b56"/><g><path d="m165.876 104.138v8.301l90.124 22.368 41.452-49.162-41.452-56.121h-15.51c-41.208 0-74.614 33.406-74.614 74.614z" fill="#9bda05"/></g><path d="m256.887 135.027 89.237-22.588v-8.301c0-41.208-33.405-74.614-74.613-74.614h-15.511v105.282z" fill="#57c126"/><g><path d="m165.876 150.462h90.124l31.464-19.011-31.464-19.012h-90.124z" fill="#57c126"/></g><path d="m367.005 150.462c10.5 0 19.012-8.512 19.012-19.012s-8.512-19.012-19.012-19.012h-111.005v38.023h111.005z" fill="#00a763"/></g></svg>